<svg xmlns="http://www.w3.org/2000/svg" viewBox="0 0 74.9 75"><linearGradient id="a" gradientUnits="userSpaceOnUse" x1="24.914" y1="7.201" x2="69.164" y2="49.617"><stop offset="0" stop-color="#8f37e8"/><stop offset="1" stop-color="#4ca6fe"/></linearGradient><path d="M22.8 25.9c.1.1.3.2.5.2s.3-.1.5-.2c.1-.1.2-.3.2-.5s-.1-.3-.2-.5L22 23.2c-.7-.7-.3-1.9.4-2.6l3.4-3.4c1.2-1.2 3.1-1.2 4.3 0 1.1 1.2 1.1 3 0 4.2l-1.7 1.7c-.1.1-.2.3-.2.5s.1.3.2.5c.1.1.3.2.5.2s.3-.1.5-.2l1.6-1.6c1.2-1.2 3.2-1.2 4.4 0 .6.6 1.5 1 2.4 1 1.5 0 3.3-.1 4.3 1l3.5 3.6.1.1c.2.3.5.5.9.6.4.2.7.2 1.1.2.4 0 .8-.1 1.1-.3.3-.1.6-.3.8-.6l.2-.2 1.6-1.6c.1-.1.2-.3.2-.5s-.1-.3-.2-.5-.3-.2-.5-.2-.3.1-.5.2L48.8 27c-.1.1-.2.3-.4.4-.1.1-.2.2-.3.2-.2.1-.4.1-.6.2-.2 0-.4 0-.6-.1-.1-.1-.3-.2-.4-.3-.1-.1-.1-.2-.2-.2L43 23.8c-1.1-1.2-1.1-3 0-4.2 1.2-1.2 3.1-1.2 4.3 0l1.1 1.2c.1.1.3.2.5.2s.3-.1.5-.2.2-.3.2-.5-.1-.3-.2-.5l-1.1-1.1c-1.2-1.2-1.2-3.2 0-4.4.7-.7 1-1.6 1-2.5 0-.9-.4-1.8-1-2.5L40.2 1c-.7-.7-1.5-1-2.5-1-.9 0-1.8.4-2.5 1l-8.1 8.2c-.6.6-1 1.5-1 2.4 0 1.5.1 3.3-1 4.4l-3.6 3.7c-1.2 1.2-1.7 3.2-.4 4.5l1.7 1.7zM28 10.2L36.1 2c.4-.4 1-.6 1.5-.6.6 0 1.1.2 1.5.6l8.1 8.2c.4.4.6 1 .6 1.6 0 .6-.2 1.2-.6 1.6l-8.1 8.2c-.4.4-1 .6-1.5.6-.6 0-1.1-.2-1.5-.6L28 13.3c-.4-.4-.6-1-.6-1.6 0-.5.2-1.1.6-1.5z" fill="url(#a)"/><linearGradient id="b" gradientUnits="userSpaceOnUse" x1="24.217" y1="7.928" x2="68.467" y2="50.345"><stop offset="0" stop-color="#8f37e8"/><stop offset="1" stop-color="#4ca6fe"/></linearGradient><path d="M73.9 35.2L65.8 27c-.6-.6-1.5-1-2.4-1-1.5 0-3.3.1-4.3-1l-3.8-3.9-.1-.1c-.3-.3-.6-.5-1-.7-.4-.2-.8-.3-1.2-.3-.4 0-.8.1-1.2.2-.4.2-.7.4-1 .7l-1.6 1.6c-.1.1-.2.3-.2.5s.1.3.2.5.3.2.5.2.3-.1.5-.2l1.6-1.6c.2-.2.4-.3.6-.4.2-.1.4-.1.7-.1.2 0 .5.1.7.2.2.1.4.2.5.3l.1.1 3.6 3.6c1.1 1.2 1.1 3 0 4.2-1.2 1.2-3.1 1.2-4.3 0l-1.6-1.6c-.1-.1-.3-.2-.5-.2s-.3.1-.5.2c-.1.1-.2.3-.2.5s.1.3.2.5l1.5 1.6c1.2 1.2 1.2 3.2 0 4.4-.5.6-.9 1.3-1 2.1-.1.7.1 1.5.4 2.2v.2l-5.5 5.5c-.6.6-1 1.5-1 2.4 0 .8.2 1.7.8 2.3l.2.2 1.3 1.4c.1.1.3.2.5.2s.3-.1.5-.2.2-.3.2-.5-.1-.3-.2-.5l-1.3-1.3c-.1-.1-.2-.2-.3-.4-.1-.4-.2-.8-.2-1.2 0-.5.2-1 .6-1.4l.1-.1 3.3-3.4c1.2-1.2 3.1-1.2 4.3 0 1.1 1.2 1.1 3 0 4.2l-1.7 1.7c-.1.1-.2.3-.2.5s.1.3.2.5.3.2.5.2.3-.1.5-.2l1.1-1.1c1.5-1.5 3.8-1.5 5.3 0 .7.7 1.5 1 2.5 1 .9 0 1.8-.4 2.5-1l8.1-8.2c.7-.7 1-1.6 1-2.5s-.6-1.9-1.2-2.6zm-.5 3.4c-.1.3-.3.5-.5.7l-8.1 8.2c-.4.4-1 .6-1.5.6-.6 0-1.1-.2-1.5-.6l-8.1-8.2c-.4-.4-.6-1-.6-1.6 0-.6.2-1.2.6-1.6l8.1-8.2c.4-.4 1-.6 1.5-.6.6 0 1.1.2 1.5.6l8.1 8.2c.2.2.4.4.5.7.1.3.2.6.2.9 0 .3-.1.6-.2.9z" fill="url(#b)"/><linearGradient id="c" gradientUnits="userSpaceOnUse" x1="6.872" y1="26.023" x2="51.121" y2="68.44"><stop offset="0" stop-color="#8f37e8"/><stop offset="1" stop-color="#4ca6fe"/></linearGradient><path d="M53.9 50.9l-1.8-1.8c-.1-.1-.3-.2-.5-.2s-.3.1-.5.2c-.1.1-.2.3-.2.5s.1.3.2.5l1.8 1.8c.4.4.6.9.6 1.4 0 .4-.1.9-.3 1.3l-.3.3-2.9 3c-1.2 1.2-3.1 1.2-4.3 0-1.1-1.2-1.1-3 0-4.2l1.2-1.2c.1-.1.2-.3.2-.5s-.1-.3-.2-.5c-.1-.1-.3-.2-.5-.2s-.3.1-.5.2l-.9 1c-1.2 1.2-3.2 1.2-4.4 0-.6-.6-1.5-1-2.4-1-1.5 0-3.3.1-4.3-1l-3.8-3.9-.1-.1c-.6-.5-1.4-.8-2.2-.8-.8 0-1.6.4-2.2 1l-.1.1-1.3 1.4c-.2.1-.2.2-.2.4s.1.3.2.5c.1.1.3.2.5.2s.3-.1.5-.2l1.3-1.4.1-.1c.3-.3.8-.5 1.2-.6.4 0 .9.1 1.2.3.1.1.2.2.3.2l3.6 3.6c1.1 1.2 1.1 3 0 4.2-1.2 1.2-3.1 1.2-4.3 0L27 53.8c-.1-.1-.3-.2-.5-.2s-.3.1-.5.2c-.1.1-.2.3-.2.5s.1.3.2.5l1.5 1.6c1.2 1.2 1.2 3.2 0 4.4-.7.7-1 1.6-1 2.5 0 .9.4 1.8 1 2.5l8.1 8.2c.7.7 1.5 1 2.5 1 .9 0 1.8-.4 2.5-1l8.1-8.2c.6-.6 1-1.5 1-2.4 0-1.5-.1-3.3 1-4.4l3.3-3.3.2-.2c.5-.6.8-1.5.8-2.3-.1-.8-.4-1.7-1.1-2.3zm-6.1 13.9L39.7 73c-.4.4-1 .6-1.5.6-.6 0-1.1-.2-1.5-.6l-8.1-8.2c-.4-.4-.6-1-.6-1.6 0-.6.2-1.2.6-1.6l8.1-8.2c.4-.4 1-.6 1.5-.6.6 0 1.1.2 1.5.6l8.1 8.2c.4.4.6 1 .6 1.6 0 .6-.2 1.2-.6 1.6z" fill="url(#c)"/><linearGradient id="d" gradientUnits="userSpaceOnUse" x1="7.11" y1="25.774" x2="51.36" y2="68.191"><stop offset="0" stop-color="#8f37e8"/><stop offset="1" stop-color="#4ca6fe"/></linearGradient><path d="M26 51.9c0-.2-.1-.3-.2-.5-.1-.1-.3-.2-.5-.2s-.3.1-.5.2l-1.7 1.7c-.7.7-1.9.3-2.6-.4l-3.4-3.4c-1.2-1.2-1.2-3.1 0-4.3 1.2-1.1 3-1.1 4.2 0l1.7 1.7c.1.1.3.2.5.2s.3-.1.5-.2c.1-.1.2-.3.2-.5s-.1-.3-.2-.5l-1.6-1.6c-1.2-1.2-1.2-3.2 0-4.4.6-.6 1-1.5 1-2.4 0-1.5-.1-3.3 1-4.3l3.6-3.5.1-.1c.3-.2.5-.5.6-.9.2-.4.2-.7.2-1.1 0-.4-.1-.8-.3-1.1-.1-.3-.3-.6-.6-.8l-.2-.2-1.6-1.6c-.1-.1-.3-.2-.5-.2s-.3.1-.5.2-.2.3-.2.5.1.3.2.5l1.5 1.5c.1.1.3.2.4.4.1.1.2.2.2.3.1.2.1.4.2.6 0 .2 0 .4-.1.6-.1.1-.2.3-.3.4-.1.1-.2.1-.2.2L23.6 32c-1.2 1.1-3 1.1-4.2 0-1.2-1.2-1.2-3.1 0-4.3l1.2-1.1c.1-.1.2-.3.2-.5s-.1-.3-.2-.5-.3-.2-.5-.2-.3.1-.5.2l-1.1 1.1c-1.2 1.2-3.2 1.2-4.4 0-.7-.7-1.6-1-2.5-1-.9 0-1.8.4-2.5 1L1 34.9c-.7.7-1 1.5-1 2.5 0 .9.4 1.8 1 2.5L9.2 48c.6.6 1.5 1 2.4 1 1.5 0 3.3-.1 4.4 1l3.7 3.6c1.2 1.2 3.2 1.7 4.5.4l1.7-1.7c.1-.1.1-.2.1-.4zm-12.8-4.8c-.4.4-1 .6-1.6.6-.6 0-1.2-.2-1.6-.6L1.9 39c-.4-.4-.6-1-.6-1.5 0-.6.2-1.1.6-1.5l8.2-8.1c.4-.4 1-.6 1.6-.6.6 0 1.2.2 1.6.6l8.2 8.1c.4.4.6 1 .6 1.5 0 .6-.2 1.1-.6 1.5l-8.3 8.1z" fill="url(#d)"/></svg>
