<svg width="13" height="16" xmlns="http://www.w3.org/2000/svg" xmlns:xlink="http://www.w3.org/1999/xlink"><use xlink:href="#path0_fill" transform="translate(5.14 9.3)" fill="#222C3C"/><use xlink:href="#path1_fill" transform="translate(.89)" fill="#CED0DA"/><defs><path id="path0_fill" d="M3.4 1.684c0 .93-.76 1.684-1.7 1.684-.939 0-1.7-.754-1.7-1.684C0 .754.761 0 1.7 0c.94 0 1.7.754 1.7 1.684z"/><path id="path1_fill" fill-rule="evenodd" d="M1.7 4a4 4 0 0 1 4-4h.5a4 4 0 0 1 4 4v1.917a2 2 0 0 1 1.7 1.978V14a2 2 0 0 1-2 2H2a2 2 0 0 1-2-2V7.895a2 2 0 0 1 1.7-1.978V4zm1.7 1.895h5.1v-1.79a2 2 0 0 0-2-2H5.4a2 2 0 0 0-2 2v1.79zm4.25 5.052c0 .93-.76 1.684-1.7 1.684-.939 0-1.7-.754-1.7-1.684 0-.93.761-1.684 1.7-1.684.94 0 1.7.754 1.7 1.684z"/></defs></svg>