<svg width="16" height="16" xmlns="http://www.w3.org/2000/svg" xmlns:xlink="http://www.w3.org/1999/xlink"><use xlink:href="#path0_fill" fill="#CED0DA"/><defs><path id="path0_fill" fill-rule="evenodd" d="M14 12c0-1.08-1.151-2.019-2.862-2.547A3.98 3.98 0 0 1 8 11a3.98 3.98 0 0 1-3.138-1.546C3.151 9.981 2 10.92 2 12v2h12v-2zm-4-8a2 2 0 1 0-4 0v3a2 2 0 1 0 4 0V4zm5 12H1a1 1 0 0 1-1-1v-3c0-1.864 1.648-3.472 4.068-4.331A3.88 3.88 0 0 1 4 7V4a4 4 0 0 1 8 0v3c0 .229-.03.451-.068.669C14.352 8.528 16 10.136 16 12v3a1 1 0 0 1-1 1z"/></defs></svg>