<svg height="12" viewBox="0 0 12 12" width="12" xmlns="http://www.w3.org/2000/svg"><path d="m7.8877 2.59384c-1.46219-1.4622-3.8318-1.4622-5.29399 0-1.46219 1.46219-1.46219 3.83179 0 5.29398s3.8318 1.46219 5.29399 0 1.46219-3.83179 0-5.29398zm3.8933007 9.1871607c-.2927.2920001-.7667.2920001-1.0594 0l-2.35761018-2.35836011c-2.05291013 1.53476011-4.96382031 1.38956011-6.82880042-.47617003-2.04691913-2.04617013-2.04691913-5.36436034 0-7.41128046 2.04617012-2.04691913 5.36511033-2.04691913 7.41128046 0 1.86573014 1.86498011 2.01093014 4.77589029.47617003 6.82880042l2.35836011 2.35841018c.2920001.2919.2920001.7659 0 1.0586z" fill="#ced0da" fill-rule="evenodd"/></svg>