<svg width="60" height="60" xmlns="http://www.w3.org/2000/svg" xmlns:xlink="http://www.w3.org/1999/xlink"><use xlink:href="#path0_fill" fill="url(#paint0_linear)"/><defs><linearGradient id="paint0_linear" x2="1" gradientUnits="userSpaceOnUse" gradientTransform="rotate(41.276 29.494 29.552) scale(57.9454)"><stop offset="0" stop-color="#973AF5"/><stop offset="1" stop-color="#4CA6FE"/></linearGradient><path id="path0_fill" d="M30 0C13.467 0 0 13.4 0 30c0 16.533 13.467 30 30 30s30-13.467 30-30C60 13.4 46.533 0 30 0zm15.133 22.133l-19 19c-.266.267-.6.4-.933.4-.333 0-.667-.133-.933-.4L14.933 31.8a1.289 1.289 0 0 1 0-1.867 1.289 1.289 0 0 1 1.867 0l8.4 8.4 18.067-18.066a1.289 1.289 0 0 1 1.866 0c.534.466.534 1.333 0 1.866z"/></defs></svg>