<svg xmlns="http://www.w3.org/2000/svg" xmlns:xlink="http://www.w3.org/1999/xlink" width="26" height="20"><linearGradient id="a"><stop offset="0" stop-color="#8050ef"/><stop offset="1" stop-color="#687bf7"/></linearGradient><linearGradient id="b" x1="71.281%" x2="71.281%" y1="82.41%" y2="182.41%" xlink:href="#a"/><linearGradient id="c" x1="100%" y1="0%" y2="100%" xlink:href="#a"/><g fill="none" fill-rule="evenodd"><g fill-rule="nonzero"><path fill="#8492b4" d="M25 4.626a.627.627 0 0 1-.622.632.627.627 0 0 1-.621-.632V3.204L16.58 10.5a1.231 1.231 0 0 1-.88.369 1.23 1.23 0 0 1-.88-.369L6.536 2.08a.641.641 0 0 1 0-.895.609.609 0 0 1 .874 0l8.289 8.42 7.176-7.296h-1.398a.627.627 0 0 1-.621-.631c0-.35.278-.632.621-.632h2.9c.344 0 .622.283.622.632z"/><path fill="url(#b)" d="M24 3.626a.627.627 0 0 1-.622.632.627.627 0 0 1-.621-.632V2.204L15.58 9.5a1.231 1.231 0 0 1-.88.369 1.23 1.23 0 0 1-.88-.369L5.536 1.08a.641.641 0 0 1 0-.895.609.609 0 0 1 .874 0l8.289 8.42 7.176-7.296h-1.398a.627.627 0 0 1-.621-.631c0-.35.278-.632.621-.632h2.9c.344 0 .622.283.622.632z" transform="translate(1 1)"/><path fill="#8492b4" d="M19.645 15.374a.627.627 0 0 0-.621-.632.627.627 0 0 0-.622.632v1.422L11.226 9.5a1.231 1.231 0 0 0-.88-.369 1.23 1.23 0 0 0-.881.369l-8.283 8.42a.641.641 0 0 0 0 .895.609.609 0 0 0 .874 0l8.29-8.42 7.176 7.296h-1.399c-.343 0-.621.283-.621.631s.278.632.621.632h2.9a.627.627 0 0 0 .622-.632z"/><path fill="url(#c)" d="M18.645 14.374a.627.627 0 0 0-.621-.632.627.627 0 0 0-.622.632v1.422L10.226 8.5a1.231 1.231 0 0 0-.88-.369 1.23 1.23 0 0 0-.881.369L.182 16.92a.641.641 0 0 0 0 .895.609.609 0 0 0 .874 0l8.29-8.42 7.176 7.296h-1.399c-.343 0-.621.283-.621.631s.278.632.621.632h2.9a.627.627 0 0 0 .622-.632z" transform="translate(1 1)"/></g><path stroke="#8492b4" stroke-width=".1" d="M25 4.626a.627.627 0 0 1-.622.632.627.627 0 0 1-.621-.632V3.204L16.58 10.5a1.231 1.231 0 0 1-.88.369 1.23 1.23 0 0 1-.88-.369L6.536 2.08a.641.641 0 0 1 0-.895.609.609 0 0 1 .874 0l8.289 8.42 7.176-7.296h-1.398a.627.627 0 0 1-.621-.631c0-.35.278-.632.621-.632h2.9c.344 0 .622.283.622.632zm-5.355 10.748a.627.627 0 0 0-.621-.632.627.627 0 0 0-.622.632v1.422L11.226 9.5a1.231 1.231 0 0 0-.88-.369 1.23 1.23 0 0 0-.881.369l-8.283 8.42a.641.641 0 0 0 0 .895.609.609 0 0 0 .874 0l8.29-8.42 7.176 7.296h-1.399c-.343 0-.621.283-.621.631s.278.632.621.632h2.9a.627.627 0 0 0 .622-.632z"/></g></svg>
