<svg xmlns="http://www.w3.org/2000/svg" width="400" height="400" viewBox="0 0 400 400"><defs><radialGradient id="slack-avatar-a" r="100%" fx="50%" fy="50%"><stop offset="0%" stop-color="#F2F2FF"/><stop offset="100%" stop-color="#B3B3FF"/></radialGradient><radialGradient id="slack-avatar-b" r="42.535%" fx="50%" fy="50%"><stop offset="0%" stop-color="#250054"/><stop offset="100%" stop-color="#2B1C61" stop-opacity="0"/></radialGradient><linearGradient id="slack-avatar-c" x1="32.656%" x2="-59.273%" y1="-74.911%" y2="83.119%"><stop offset="17.7%" stop-color="#1D2237"/><stop offset="32.5%" stop-color="#47137A"/><stop offset="100%" stop-color="#913BFE"/></linearGradient><linearGradient id="slack-avatar-d" x1="-109.881%" x2="40.71%" y1="-15.359%" y2="117.157%"><stop offset="0%" stop-color="#1C2334"/><stop offset="44.9%" stop-color="#6759E0"/><stop offset="100%" stop-color="#4BB2F9"/></linearGradient><linearGradient id="slack-avatar-e" x1="-30.155%" x2="82.217%" y1="45.304%" y2="124.669%"><stop offset="0%" stop-color="#5C1EA0" stop-opacity="0"/><stop offset="100%" stop-color="#F2C94C" stop-opacity=".35"/></linearGradient><linearGradient id="slack-avatar-f" x1="-16.323%" x2="139.206%" y1="-220.749%" y2="-220.749%"><stop offset="0%" stop-color="#231C4C"/><stop offset="100%" stop-color="#0143D6"/></linearGradient><linearGradient id="slack-avatar-g" x1="110.199%" x2="104.977%" y1="-19.862%" y2="107.411%"><stop offset="0%"/><stop offset="100%" stop-color="#0D35A5"/></linearGradient><linearGradient id="slack-avatar-h" x1="32.656%" x2="-59.273%" y1="-74.911%" y2="83.119%"><stop offset="17.7%" stop-color="#1D2237"/><stop offset="32.5%" stop-color="#47137A"/><stop offset="100%" stop-color="#913BFE"/></linearGradient><linearGradient id="slack-avatar-i" x1="-109.881%" x2="40.71%" y1="-15.359%" y2="117.157%"><stop offset="0%" stop-color="#1C2334"/><stop offset="44.9%" stop-color="#6759E0"/><stop offset="100%" stop-color="#4BB2F9"/></linearGradient><linearGradient id="slack-avatar-j" x1="-30.155%" x2="82.217%" y1="45.304%" y2="124.669%"><stop offset="0%" stop-color="#5C1EA0" stop-opacity="0"/><stop offset="100%" stop-color="#F2C94C" stop-opacity=".35"/></linearGradient><linearGradient id="slack-avatar-k" x1="-16.323%" x2="139.206%" y1="-220.749%" y2="-220.749%"><stop offset="0%" stop-color="#231C4C"/><stop offset="100%" stop-color="#0143D6"/></linearGradient><linearGradient id="slack-avatar-l" x1="110.199%" x2="104.977%" y1="-19.862%" y2="107.41%"><stop offset="0%"/><stop offset="100%" stop-color="#0D35A5"/></linearGradient></defs><g fill="none"><rect width="400" height="400" fill="url(#slack-avatar-a)" fill-opacity=".3"/><rect width="400" height="400" fill="url(#slack-avatar-b)" fill-opacity=".08"/><g transform="translate(78.175 53.049)"><polygon fill="url(#slack-avatar-c)" points="43.147 223.473 43.063 223.473 43.063 294.345 62.23 289.592 62.906 289.423 80.807 285.094 89.251 282.887 96.85 281.02 96.85 275.588 96.85 265.572 96.85 263.62 97.019 211.506"/><polygon fill="url(#slack-avatar-d)" points="0 206.923 .253 266.167 .253 276.437 19.167 284.331 34.704 290.781 43.063 294.346 43.063 223.474"/><polygon fill="url(#slack-avatar-e)" points="43.147 223.471 43.063 223.471 43.063 294.343 62.23 289.59 62.906 289.42 80.807 285.091 89.251 282.884 96.85 281.017 96.85 275.585 96.85 265.57 96.85 263.617 97.019 211.503"/><polygon fill="url(#slack-avatar-f)" points="94.739 210.657 80.976 205.565 63.075 198.944 53.871 195.464 38.082 198.944 1.858 206.583 0 206.923 43.063 223.474 43.148 223.474 97.019 211.506"/><polygon fill="url(#slack-avatar-g)" points="94.739 210.657 80.976 205.565 63.075 198.944 53.871 195.464 38.082 198.944 1.858 206.583 0 206.923 43.063 223.474 43.148 223.474 97.019 211.506"/><polygon fill="url(#slack-avatar-c)" points="43.147 141.929 43.063 141.929 43.063 212.801 62.23 208.048 62.906 207.878 80.807 203.549 89.251 201.343 96.85 199.475 96.85 194.043 96.85 184.028 96.85 182.076 97.019 129.961"/><polygon fill="url(#slack-avatar-d)" points="0 125.374 .253 184.618 .253 194.888 19.167 202.782 34.704 209.233 43.063 212.798 43.063 141.925"/><polygon fill="url(#slack-avatar-e)" points="43.147 141.926 43.063 141.926 43.063 212.798 62.23 208.045 62.906 207.875 80.807 203.547 89.251 201.34 96.85 199.473 96.85 194.041 96.85 184.025 96.85 182.073 97.019 129.958"/><polygon fill="url(#slack-avatar-f)" points="94.739 129.113 80.976 124.02 63.075 117.4 53.871 113.92 38.082 117.4 1.858 125.039 0 125.378 43.063 141.929 43.148 141.929 97.019 129.962"/><polygon fill="url(#slack-avatar-g)" points="94.739 129.113 80.976 124.02 63.075 117.4 53.871 113.92 38.082 117.4 1.858 125.039 0 125.378 43.063 141.929 43.148 141.929 97.019 129.962"/><polygon fill="url(#slack-avatar-c)" points="43.147 62.203 43.063 62.203 43.063 133.075 62.23 128.322 62.906 128.153 80.807 123.824 89.251 121.617 96.85 119.75 96.85 114.318 96.85 104.302 96.85 102.35 97.019 50.236"/><polygon fill="url(#slack-avatar-d)" points="0 45.649 .253 104.893 .253 115.163 19.167 123.057 34.704 129.507 43.063 133.072 43.063 62.2"/><polygon fill="url(#slack-avatar-e)" points="43.147 62.201 43.063 62.201 43.063 133.073 62.23 128.32 62.906 128.15 80.807 123.821 89.251 121.614 96.85 119.747 96.85 114.315 96.85 104.3 96.85 102.347 97.019 50.233"/><polygon fill="url(#slack-avatar-f)" points="94.739 49.386 80.976 44.293 63.075 37.673 53.871 34.193 38.082 37.673 1.858 45.312 0 45.651 43.063 62.202 43.148 62.202 97.019 50.235"/><polygon fill="url(#slack-avatar-g)" points="94.739 49.386 80.976 44.293 63.075 37.673 53.871 34.193 38.082 37.673 1.858 45.312 0 45.651 43.063 62.202 43.148 62.202 97.019 50.235"/><polygon fill="url(#slack-avatar-h)" points="119.922 142.78 119.893 142.78 119.893 167.496 126.559 165.838 126.794 165.779 133.02 164.27 135.957 163.5 138.601 162.849 138.601 160.955 138.601 157.462 138.601 156.781 138.659 138.607"/><polygon fill="url(#slack-avatar-i)" points="104.915 137.007 105.003 157.668 105.003 161.249 111.582 164.002 116.986 166.252 119.893 167.495 119.893 142.779"/><polygon fill="url(#slack-avatar-j)" points="119.922 142.778 119.893 142.778 119.893 167.493 126.559 165.836 126.794 165.777 133.02 164.267 135.957 163.497 138.601 162.846 138.601 160.952 138.601 157.459 138.601 156.778 138.659 138.604"/><polygon fill="url(#slack-avatar-k)" points="137.867 138.31 133.08 136.534 126.854 134.225 123.652 133.011 118.161 134.225 105.561 136.889 104.915 137.007 119.893 142.779 119.923 142.779 138.66 138.606"/><polygon fill="url(#slack-avatar-l)" points="137.867 138.31 133.08 136.534 126.854 134.225 123.652 133.011 118.161 134.225 105.561 136.889 104.915 137.007 119.893 142.779 119.923 142.779 138.66 138.606"/><polygon fill="url(#slack-avatar-c)" points="190.317 189.276 190.232 189.276 190.232 260.148 209.4 255.395 210.075 255.226 227.976 250.897 236.42 248.69 244.019 246.823 244.019 241.391 244.019 231.375 244.019 229.423 244.188 177.309"/><polygon fill="url(#slack-avatar-d)" points="147.169 172.723 147.422 231.967 147.422 242.237 166.337 250.131 181.873 256.582 190.233 260.146 190.233 189.274"/><polygon fill="url(#slack-avatar-e)" points="190.317 189.271 190.232 189.271 190.232 260.143 209.4 255.39 210.075 255.22 227.976 250.892 236.42 248.685 244.019 246.818 244.019 241.385 244.019 231.37 244.019 229.418 244.188 177.303"/><polygon fill="url(#slack-avatar-f)" points="241.909 176.456 228.145 171.364 210.244 164.743 201.041 161.263 185.251 164.743 149.027 172.382 147.169 172.722 190.233 189.273 190.317 189.273 244.188 177.305"/><polygon fill="url(#slack-avatar-g)" points="241.909 176.456 228.145 171.364 210.244 164.743 201.041 161.263 185.251 164.743 149.027 172.382 147.169 172.722 190.233 189.273 190.317 189.273 244.188 177.305"/><polygon fill="url(#slack-avatar-c)" points="190.317 108.641 190.232 108.641 190.232 179.513 209.4 174.76 210.075 174.591 227.976 170.262 236.42 168.055 244.019 166.188 244.019 160.756 244.019 150.74 244.019 148.788 244.188 96.674"/><polygon fill="url(#slack-avatar-d)" points="147.169 92.093 147.422 151.338 147.422 161.608 166.337 169.501 181.873 175.952 190.233 179.517 190.233 108.644"/><polygon fill="url(#slack-avatar-e)" points="190.317 108.641 190.232 108.641 190.232 179.513 209.4 174.76 210.075 174.591 227.976 170.262 236.42 168.055 244.019 166.188 244.019 160.756 244.019 150.74 244.019 148.788 244.188 96.674"/><polygon fill="url(#slack-avatar-f)" points="241.909 95.828 228.145 90.735 210.244 84.115 201.041 80.635 185.251 84.115 149.027 91.754 147.169 92.093 190.233 108.644 190.317 108.644 244.188 96.677"/><polygon fill="url(#slack-avatar-g)" points="241.909 95.828 228.145 90.735 210.244 84.115 201.041 80.635 185.251 84.115 149.027 91.754 147.169 92.093 190.233 108.644 190.317 108.644 244.188 96.677"/><polygon fill="url(#slack-avatar-c)" points="190.317 28.008 190.232 28.008 190.232 98.88 209.4 94.127 210.075 93.957 227.976 89.628 236.42 87.421 244.019 85.554 244.019 80.122 244.019 70.107 244.019 68.154 244.188 16.04"/><polygon fill="url(#slack-avatar-d)" points="147.168 11.459 147.421 70.703 147.421 80.973 166.335 88.867 181.872 95.317 190.231 98.882 190.231 28.01"/><polygon fill="url(#slack-avatar-e)" points="190.317 28.008 190.232 28.008 190.232 98.88 209.4 94.127 210.075 93.957 227.976 89.628 236.42 87.421 244.019 85.554 244.019 80.122 244.019 70.107 244.019 68.154 244.188 16.04"/><polygon fill="url(#slack-avatar-f)" points="241.909 15.193 228.145 10.1 210.244 3.48 201.041 0 185.251 3.48 149.027 11.119 147.169 11.458 190.233 28.009 190.317 28.009 244.188 16.042"/><polygon fill="url(#slack-avatar-g)" points="241.909 15.193 228.145 10.1 210.244 3.48 201.041 0 185.251 3.48 149.027 11.119 147.169 11.458 190.233 28.009 190.317 28.009 244.188 16.042"/></g></g></svg>