<svg fill="none" height="104" viewBox="0 0 104 104" width="104" xmlns="http://www.w3.org/2000/svg"><ellipse cx="51.914401" cy="51.7173" fill="#f2994a" rx="51.6561" ry="51.7173"/><g stroke="#fff"><path d="m0 5.5304c0-3.05436 2.47604-5.5304 5.5304-5.5304h25.074c3.0544 0 5.5304 2.47604 5.5304 5.5304v32.9392c0 3.0544-2.476 5.5304-5.5304 5.5304h-25.074c-3.05436 0-5.5304-2.476-5.5304-5.5304z" stroke-width="7.18951" transform="translate(32 30)"/><path d="m13.6956 0h-5.18573c-4.69987 0-8.50987 3.81-8.50987 8.50987 0 4.69983 3.81 8.50983 8.50987 8.50983h5.35543" stroke-linecap="round" stroke-linejoin="round" stroke-width="6.63648" transform="matrix(-1 0 0 -1 82 65.2968)"/><path d="m19.0263 0h-14.72368c-2.37627 0-4.30262 1.92635-4.30262 4.30262 0 2.37627 1.92635 4.30262 4.30262 4.30262h9.39458" stroke-linecap="round" stroke-linejoin="round" stroke-width="6.63648" transform="matrix(0 1 1 0 50.3455 33.2593)"/><path d="m0 0h29.4638" stroke-linecap="round" stroke-linejoin="round" stroke-width="12.7199" transform="translate(35.3356 35.9753)"/></g></svg>