<svg fill="none" height="104" viewBox="0 0 104 104" width="104" xmlns="http://www.w3.org/2000/svg"><ellipse cx="51.884982" cy="52.119033" fill="#8b56ff" rx="51.6561" ry="51.7173"/><g stroke="#fff" stroke-linecap="round" stroke-linejoin="round" stroke-width="4.60148"><path d="m0 .766635 48.3392-.766635" transform="matrix(-.01588881 .99987376 -.99987376 -.01588881 40.5075 27.0389)"/><path d="m0 .766635 48.3392-.766635" transform="matrix(-.01588881 .99987376 -.99987376 -.01588881 48.9405 27.0389)"/><path d="m0 .766635 48.3392-.766635" transform="matrix(-.01588881 .99987376 -.99987376 -.01588881 57.3735 27.0389)"/><path d="m0 .766635 48.3392-.766635" transform="matrix(-.01588881 .99987376 -.99987376 -.01588881 65.8065 27.0389)"/><path d="m0 .767192 48.3041-.767192" transform="matrix(.99987378 .01588806 -.01588806 .99987378 28.2468 63.0901)"/><path d="m0 .767192 48.3041-.767192" transform="matrix(.99987378 .01588806 -.01588806 .99987378 28.2468 54.6509)"/><path d="m0 .767192 48.3041-.767192" transform="matrix(.99987378 .01588806 -.01588806 .99987378 28.2468 46.2119)"/><path d="m0 .767192 48.3041-.767192" transform="matrix(.99987378 .01588806 -.01588806 .99987378 28.2468 37.7727)"/></g><rect fill="#fff" height="42.9628" rx="2.30074" width="42.9315" x="31.3066" y="30.0955"/><rect fill="#8b56ff" height="27.6189" rx="3.06765" width="27.5988" x="38.973" y="38.5345"/><rect fill="#fff" height="10.7407" rx="2.30074" width="10.7329" x="47.4059" y="46.9736"/></svg>