<svg fill="none" height="104" viewBox="0 0 104 104" width="104" xmlns="http://www.w3.org/2000/svg"><ellipse cx="52.343966" cy="51.7173" fill="#eb5757" rx="51.6561" ry="51.7173"/><path clip-rule="evenodd" d="m34.1452 56.4368c.0001 9.4289-7.6436 17.0726-17.0726 17.0726-9.42889-.0001-17.0725322-7.6437-17.07256008-17.0727l.00001962-6.8859-.00005954-24.5032.0000989-2.4616c-.00003644-1.347 1.0920211-2.4389 2.4390411-2.439 1.34685.0001 2.43894 1.092 2.43881 2.439l.00007 2.4616.00002 10.6292c-.00013 1.347 1.09196 2.439 2.43881 2.439 1.34461 0 2.43525-1.088 2.43907-2.4316-.00003-.0024 0-.0049-.00003-.0073l-.00002-10.6292v-22.60877c-.00004-1.34697 1.09203-2.43891983 2.43903-2.43893 1.3469.00003384 2.4389 1.09195 2.4388 2.43896v22.60874 4.6395c0 .005-.0001.01 0 .015.0079 1.3402 1.097 2.4239 2.4388 2.424 1.3432 0 2.4328-1.0857 2.439-2.4273 0-.004.0001-.0077.0001-.0117v-4.6396l-.0001-7.3624c0-1.347 1.0921-2.4389 2.4391-2.4389 1.3468 0 2.4389 1.0919 2.4388 2.4389l.0003 7.3624v11.7184c-.0002 1.347 1.0919 2.4389 2.4388 2.4389 1.3387 0 2.4257-1.0785 2.4389-2.4141.0001-.0082.0001-.0165.0001-.0248v-11.7184l-.0001-14.9855c-.0001-1.34699 1.092-2.43894 2.439-2.43895 1.3469.00004 2.439 1.09195 2.4388 2.43895v14.9855l.0001 31.0373z" fill="#fff" fill-rule="evenodd" transform="matrix(-.503493 -.863999 .868028 -.496516 27.1919 87)"/><ellipse cx="67.94409" cy="44.1122" fill="#eb5757" rx="9.78279" ry="9.6922"/><path d="m7.87925.91585c-.81419-.576927-1.80787-.91585-2.88045-.91585-2.76076 0-4.9988 2.24543-4.9988 5.01532 0 2.76988 2.23804 5.01528 4.9988 5.01528 1.07258 0 2.06626-.33889 2.88045-.91582" stroke="#fff" stroke-linecap="round" stroke-linejoin="round" stroke-width="2.32555" transform="translate(63.075 39.1749)"/></svg>