<svg fill="none" height="104" viewBox="0 0 105 104" width="105" xmlns="http://www.w3.org/2000/svg"><ellipse cx="52.614596" cy="51.7173" fill="#6fcf97" rx="51.6561" ry="51.7173"/><path d="m0 5.19023 24.4683-5.19023" stroke="#fff" stroke-linecap="round" stroke-linejoin="round" stroke-width="7.39208" transform="matrix(-.494465 -.869197 .860543 -.509377 83.5131 63.9601)"/><path d="m0 5.19023 24.4683-5.19023" stroke="#fff" stroke-linecap="round" stroke-linejoin="round" stroke-width="7.39208" transform="matrix(-.494465 .869197 .860543 .509377 83.5336 40.04)"/><g fill="#fff"><path d="m0 1.61247c0-.890543.721927-1.61247 1.61247-1.61247h7.15585c7.17968 0 12.99998 5.8203 12.99998 13s-5.8203 13-12.99998 13h-7.15585c-.890543 0-1.61247-.7219-1.61247-1.6125z" transform="translate(17 39)"/><path d="m0 1.55744c0-.860151.697289-1.55744 1.55744-1.55744h18.65346c.8601 0 1.5574.697289 1.5574 1.55744v22.88516c0 .8601-.6973 1.5574-1.5574 1.5574h-18.65346c-.860151 0-1.55744-.6973-1.55744-1.5574z" transform="translate(42.0487 39)"/></g></svg>