<svg fill="none" height="104" viewBox="0 0 104 104" width="104" xmlns="http://www.w3.org/2000/svg"><ellipse cx="51.6561" cy="51.7173" fill="#4a4a4a" rx="51.6561" ry="51.7173"/><path d="m.168223 6.75965c-.1079364-2.54364 1.673357-4.78491 4.183257-5.21173 7.33962-1.248147 12.50862-1.6079058 20.64852-1.54006367 7.2455.10911967 12.3563.53788167 20.4255 1.66652367 2.6058.36447 4.505 2.65443 4.3871 5.28296-.3825 8.53056-.8931 14.74116-1.8989 23.39536-.3063 2.6349-1.6282 5.056-3.7027 6.7092-5.7001 4.5426-10.073 7.5486-16.5408 11.3781-1.6377.9696-3.6831.9364-5.2948-.0759-6.2056-3.8976-10.5587-6.8733-16.38832-11.2901-2.19131-1.6603-3.60564-4.1503-3.92705-6.8807-1.00508-8.5381-1.523299-14.7494-1.891807-23.43365z" stroke="#fff" stroke-width="5.76923" transform="translate(27 32)"/><path d="m.103522 4.15978c-.0664226-1.56531 1.029758-2.94455 2.574308-3.207214 4.51669-.768091 7.69757-.9894804 12.70677-.94773134 4.4588.06715034 7.6039.33100434 12.5695 1.02555534 1.6036.22429 2.7724 1.63349 2.6998 3.25105-.2354 5.24956-.5496 9.07146-1.1686 14.39716-.1884 1.6215-1.0019 3.1114-2.2785 4.1287-3.5078 2.7955-6.1988 4.6453-10.179 7.0019-1.0078.5967-2.2665.5763-3.2583-.0467-3.81887-2.3985-6.49767-4.2297-10.08514-6.9478-1.3485-1.0217-2.21886-2.554-2.41665-4.2342-.618507-5.2542-.937414-9.07653-1.164188-14.42072z" fill="#fff" transform="translate(36.6154 40.6538)"/></svg>