<svg fill="none" height="104" viewBox="0 0 104 104" width="104" xmlns="http://www.w3.org/2000/svg"><ellipse cx="52.28525" cy="51.7173" fill="#8b56ff" rx="51.6561" ry="51.7173"/><g fill="#fff"><path d="m0 10.8137c0-1.02864.322233-2.03145.921436-2.86756l4.551394-6.3509c.56109-.782927 1.72539-.782928 2.28648 0l4.55139 6.3509c.5992.83611.9214 1.83892.9214 2.86756v36.7798c0 .7768-.6297 1.4065-1.4065 1.4065h-10.41909c-.776796 0-1.40651-.6297-1.40651-1.4065z" transform="translate(33 27)"/><path d="m0 10.8137c0-1.02864.322233-2.03145.921436-2.86756l4.551394-6.3509c.56109-.782927 1.72539-.782928 2.28648 0l4.55139 6.3509c.5992.83611.9214 1.83892.9214 2.86756v36.7798c0 .7768-.6297 1.4065-1.4065 1.4065h-10.41909c-.776796 0-1.40651-.6297-1.40651-1.4065z" transform="translate(58.7678 27)"/><path d="m44.1429 49.0145h15.3214v11.3623h-15.3214z"/></g></svg>