<svg fill="none" height="104" viewBox="0 0 104 104" width="104" xmlns="http://www.w3.org/2000/svg"><ellipse cx="52.343966" cy="51.7173" fill="#f2994a" rx="51.6561" ry="51.7173"/><g fill="#fff"><path d="m41.9146 5.60004-2.8784-.5432zm-35.83908 26.59446-2.87844.5432zm30.82038 0-2.8785-.5432zm-4.6421.9188h-21.5362v5.8585h21.5362zm-23.29984-1.462-5.01872-26.59446-5.75688 1.0864 5.01872 26.59446zm30.08224-26.59446-5.0188 26.59446 5.7569 1.0864 5.0187-26.59446zm-33.33732-2.12759h31.57362v-5.8585h-31.57362zm39.09412 3.21399c.8894-4.71247-2.7248-9.07249-7.5205-9.07249v5.8585c1.1247 0 1.9722 1.02247 1.7637 2.12759zm-40.85776-1.0864c-.20855-1.10512.63901-2.12759 1.76364-2.12759v-5.8585c-4.795645 0-8.40983 4.36001-7.52052 9.07249zm6.78236 28.05646c-.86287 0-1.60363-.6141-1.76364-1.462l-5.75688 1.0864c.68232 3.6157 3.84103 6.2341 7.52052 6.2341zm21.5362 5.8585c3.6795 0 6.8382-2.6184 7.5205-6.2341l-5.7569-1.0864c-.16.8479-.9007 1.462-1.7636 1.462z" transform="translate(31.0143 42.6813)"/><path d="m-1.90199 10.1292c.16567 1.6092 1.604543 2.7795 3.21382 2.6139 1.60927-.1657 2.77955-1.6046 2.61388-3.21386zm13.12359-.59996c-.1657 1.60926 1.0046 3.04816 2.6138 3.21386 1.6093.1656 3.0482-1.0047 3.2139-2.6139zm-7.29589 0-.23629-2.29538-5.8277.59993.23629 2.29541zm7.53219-2.29538-.2363 2.29538 5.8277.59996.2363-2.29541zm-3.88426-4.30461c2.31467 0 4.12126 2.0021 3.88426 4.30461l5.8277.59993c.5926-5.75708-3.9245-10.76304-9.71196-10.76304zm0-5.8585c-5.78751 0-10.30458 5.00596-9.71192 10.76304l5.8277-.59993c-.23704-2.30251 1.56954-4.30461 3.88422-4.30461z" transform="translate(44.9446 25)"/><path d="m-1.86972 9.89286c.1754 1.60904 1.622007 2.77134 3.23109 2.59594 1.60908-.1754 2.7713-1.622 2.5959-3.23112zm13.53742-.63518c-.1754 1.60912.9868 3.05572 2.5959 3.23112s3.0557-.9869 3.2311-2.59594zm-10.821095-1.49119-2.913495.31759zm3.110665 1.49119-.19717-1.80878-5.82699.63518.19717 1.80878zm7.90763-1.80878-.1972 1.80878 5.827.63518.1972-1.80878zm-4.0524-4.51814c2.4262 0 4.3153 2.10623 4.0524 4.51814l5.827.63518c.641-5.88001-3.9646-11.01484-9.8794-11.01484zm0-5.86152c-5.91485 0-10.52036 5.13483-9.87939 11.01484l5.82699-.63518c-.26291-2.41191 1.6262-4.51814 4.0524-4.51814z" transform="matrix(.839547 .543287 -.457923 .888992 62.8821 25)"/><path d="m-1.86972 9.89286c.1754 1.60904 1.622007 2.77134 3.23109 2.59594 1.60908-.1754 2.7713-1.622 2.5959-3.23112zm13.53742-.63518c-.1754 1.60912.9868 3.05572 2.5959 3.23112s3.0557-.9869 3.2311-2.59594zm-10.821095-1.49119-2.913495.31759zm3.110665 1.49119-.19717-1.80878-5.82699.63518.19717 1.80878zm7.90763-1.80878-.1972 1.80878 5.827.63518.1972-1.80878zm-4.0524-4.51814c2.4262 0 4.3153 2.10623 4.0524 4.51814l5.827.63518c.641-5.88001-3.9646-11.01484-9.8794-11.01484zm0-5.86152c-5.91485 0-10.52036 5.13483-9.87939 11.01484l5.82699-.63518c-.26291-2.41191 1.6262-4.51814 4.0524-4.51814z" transform="matrix(.839547 -.543287 .457923 .888992 29 33.4888)"/></g><path d="m2.162-2.162h33.9948" stroke="#fff" stroke-linecap="round" stroke-width="4.32401" transform="matrix(0 1 -1 0 50.4858 42.6813)"/><path d="m2.162-2.162h33.995" stroke="#fff" stroke-linecap="round" stroke-width="4.32401" transform="matrix(.120362 .99273 .992672 -.120835 43.7715 42.0012)"/><path d="m2.162-2.162h33.995" stroke="#fff" stroke-linecap="round" stroke-width="4.32401" transform="matrix(-.120362 .99273 -.992672 -.120835 61.8124 40.6411)"/></svg>