<svg fill="none" height="104" viewBox="0 0 105 104" width="105" xmlns="http://www.w3.org/2000/svg"><ellipse cx="52.615" cy="51.717" fill="#6fcf97" rx="51.656" ry="51.717"/><g stroke="#fff" stroke-linecap="round" stroke-linejoin="round"><g stroke-width="6.112"><path d="m0 .15371 9.88775-.15372029" transform="matrix(-.267518 -.963553 -.959735 .280908 31.7926 63.6556)"/><path d="m0 .153677 9.88977-.15368729" transform="matrix(.237496 .9716 -.968156 .249488 42.8549 25.6913)"/><path d="m0 .153677 9.88977-.15368729" transform="matrix(.237496 .9716 -.968156 .249488 36.8024 35.1276)"/><path d="m0 .299251 19.2554-.299251" transform="matrix(.237496 .9716 -.968156 .249488 49.6957 17.2063)"/><path d="m0 .153677 9.88977-.15368729" transform="matrix(-.267463 -.963355 -.959941 .280968 56.9408 79.6671)"/><path d="m0 .153677 9.88977-.15368729" transform="matrix(-.267463 -.963355 -.959941 .280968 47.104 74.6021)"/><path d="m0 .299251 19.2554-.299251" transform="matrix(-.267463 -.963355 -.959941 .280968 66.9972 83.5034)"/></g><path d="m29.0024 8.13023c-2.6691-4.85587-7.7103-8.13023-13.4895-8.13023-8.56753 0-15.5129 7.19612-15.5129 16.073 0 8.8769 6.94537 16.073 15.5129 16.073 5.7792 0 10.8204-3.2744 13.4895-8.1303" stroke-width="7.334" transform="matrix(.964176 -.265263 .25251 .967594 34.2833 40.1306)"/></g></svg>