<?xml version="1.0" encoding="utf-8"?>
<!-- Generator: Adobe Illustrator 21.0.2, SVG Export Plug-In . SVG Version: 6.00 Build 0)  -->
<svg version="1.1" id="Layer_1" xmlns="http://www.w3.org/2000/svg" xmlns:xlink="http://www.w3.org/1999/xlink" x="0px" y="0px"
	 viewBox="0 0 949.2 949.2" style="enable-background:new 0 0 949.2 949.2;" xml:space="preserve">
<style type="text/css">
	.st0{fill:#EAEAEA;}
	.st1{fill:#111126;}
</style>
<path class="st0" d="M949.2,474.6c0,262.1-212.5,474.6-474.6,474.6C212.5,949.2,0,736.7,0,474.6C0,212.5,212.5,0,474.6,0
	C736.7,0,949.2,212.5,949.2,474.6z"/>
<path class="st1" d="M462.1,231.5c-2.5,9.9-9.6,40.9-12.8,61.7c-1.3,8.6-6.8,19.8,8.4,25.9c-3.4,0.6-4.6,1-5.7,0.9
	c-11-1.3-22-2.9-33.1-4.2c-2.5-0.3-5.5-0.7-7.6,0.4c-14.6,7.4-21.2,25.1-13.8,40.1c4.1,8.4,5.5,16.4,3.7,25.4
	c-0.4,2.1,0.4,4.7,1.3,6.8c8.6,20,10.1,40.3,3.2,61.2c-1.1,3.3-0.4,7.2-0.2,10.8c0.4,6.8,1,13.6,1.5,20.3
	c-10.7-8.4-22.5-15.8-31.4-25.8c-8.8-9.8-13.4-22.7-12.3-36.9c0.2-2.6-2-5.7-3.6-8.1c-4.9-7.2-10.9-13.8-15.1-21.4
	c-5.9-10.9-13.1-15.5-25-12.1c-5.9,1.7-11.3,5.6-16.4,9.1c-4.4,3-8.1,6.9-12.1,10.5c-0.5-0.5-1.1-0.9-1.6-1.4
	c0.6-1.6,0.9-3.3,1.7-4.7c6.1-10.9,6-10.8-2.5-19.9c-16.5-17.7-30.7-36.7-36.6-60.8c-3-12-6.7-23.9-10.1-35.7
	c-16.5,19.7-18.5,90.5-2.4,118.5c-5.1-24.7-10-48-4.4-72c1,5.4,1.7,10.8,1.9,16.2c0.8,19.4,5.7,37.9,14.2,55.2
	c1.8,3.7,6.8,5.8,10.4,8.5c1.3,0.9,3,1.3,4.5,1.9c-0.1,0.8-0.2,1.6-0.4,2.5c-8-0.5-16-1.2-24.1-1.6c-5.2-0.2-11.4-1.6-15.5,0.6
	c-5.4,2.9-9.9,8.4-13,13.8c-0.9,1.6,3.6,7.6,6.8,10c8.6,6.4,14.6,13.4,13.3,25.2c-0.3,2.8,3,7.9,5.8,8.9c7.8,2.9,10,8.6,11.4,15.8
	c0.9,4.6,1.6,10.4,4.7,13.2c9.8,8.8,12.9,19.3,13.1,32c0.1,8.1,4.5,16.4,3.5,24.2c-0.9,6.7,0.5,11.7,3.3,15.8l-0.2,0
	c0.2,0.2,0.4,0.4,0.6,0.7c1.8,2.5,4.2,4.8,6.9,6.9c3.3,3.1,5.7,5.2,5.7,5.2s9.9,10.2,10.1,20.2c0.2,10-0.6,11.4,2.4,20.2
	c3,8.8,7.3,15.7,8.6,23.2c1.3,7.5-1.6,9.6,3.1,14.4c4.7,4.8,9.7,8,14.8,13.6c5.1,5.6,12.2,7.7,17,12.5c4.8,4.8,12.5,13.8,18.4,19.5
	c3.1,3,7.1,5.5,10.3,7.3c0.8,0.8,1.2,1.4,1.1,1.7c-4,8.8,4.4,8.5,7.7,11.3c5.8,4.9,13.8,7.9,17.9,13.8c7.4,10.6,17.1,16.3,29,19.5
	c1,0.3,2.3,0.5,2.9,1.2c1.5,1.8,2.7,3.9,4,5.8c-0.5,0.6-1.1,1.3-1.6,1.9c12,4.2,24,8.5,36.1,12.5c2.4,0.8,5.4,0.9,7.7,0.2
	c10.1-3.2,20.2-6.7,30.2-10.3c1.9-0.7,5-2.7,4.8-3.5c-1.5-6.9,4.4-6,7.7-7.8c7.8-4.3,17-7.1,22.9-13.2c7.3-7.4,13.8-15.1,23.3-20
	c4-2.1,11.8-3,7.8-11.4c-0.2-0.5,1.9-2.3,3.1-3.2c1.6-1.3,3.2-2.5,5.6-4.2c1.6-0.7,3.2-1.7,6-3.8c6.4-4.8,19.4-16.8,24.8-23.2
	c5.3-6.4,13.8-14.3,13.8-14.3s-5.4-12.4-2-23.3l18.5-13.3c4-8.1,5.1-11.1,9.4-19.4c4.3-8.3,5.2-24.3,11.2-30.5
	c5.2-5.5,11.6-9.9,11.3-13.2c1.3-3.2,1.8-7,1.4-11.5c-0.6-5.6,1.3-11.5,1.9-17.3c0.5-4.7,0-9.7,1.3-14.1c2.1-7.5,3.7-16.1,8.6-21.5
	c5.2-5.7,8.8-10.8,9.5-18.3c0.6-6.6,3.3-11.7,10.1-15c3.2-1.5,6.6-6.8,6.5-10.4c-0.1-9.8,3.1-16.9,11.3-22.1
	c2.4-1.6,4.2-4.1,6.5-5.8c4-2.9,3.3-6.1,1.2-9.7c-5.7-9.9-14.2-13.3-25.6-11.4c-8.6,1.4-21.4,2.4-26,2.5c-4.6,0.1-1.3-3.2-1.3-3.2
	c16.2-0.5,18.2-13.3,21.9-23.9c3.1-8.7,4.7-17.9,6.4-27.1c1.6-8.7,1.6-12.9,3.4-26.4c1.8-13.6,5.9,26.3-0.6,58.9
	c13.1-19.2,9-88.9-5.8-109.6c-0.3,0.4-0.8,0.7-0.9,1.1c-0.6,2.6-1.2,5.2-1.6,7.8c-6.3,33.4-19.5,63.3-43.8,87.8
	c-8.9,8.9-8.5,9.2-2.3,20.7c0.6,1.2,0.7,2.7,1,4.1c-5.3-2.4-9.2-5.9-13.1-9.3c-7.5-6.5-15.8-9.8-26.1-9.7
	c-10.5,0.1-13.4,7.4-16.4,14.6c-5.6,13.2-18.9,21.2-19.4,38.7c-0.7,25.6-24.3,38.4-39.6,55.6c-0.2,0.2-1-0.1-1.7-0.2
	c-0.3-0.9-0.8-1.9-0.8-2.9c0.1-15.7,4.3-31.6-2.9-46.8c-0.4-0.9-0.1-2.1,0-3.2c2.8-22,5.5-43.9,8.5-65.9c0.4-2.8,2-5.5,3.3-8.1
	c7.7-15.6,2-33.6-13.5-41.4c-1.7-0.9-4.1-1.1-6.1-0.8c-8.4,1.1-16.8,2.6-25.2,3.8c-4.2,0.6-8.4,0.6-12.7,0.9
	c-0.2-0.6-0.5-1.2-0.7-1.8c6.9-2.3,10.5-6.4,8.9-13.7c-5.3-25.2-10.6-50.5-15.8-75.7c-0.4-2-0.9-11.9,1.4-6.7
	c2.4,5.2,10,27.8,14.4,42c4.2,13.8,7.5,27.9,11.2,41.8c-6.2-39.1-15.5-77.2-38.6-111.9c-6.4,7.5-11.9,17.3-14.7,24.7
	c-2.8,7.3-11,32.1-15.7,48.2c-3.7,12.4-13.3,36.9-9.2,37.7c4.1,0.8,24.5-72.7,25.8-77.9S464.5,221.6,462.1,231.5z"/>
</svg>
