<svg width="1500" height="500" viewBox="0 0 1500 500" fill="none" xmlns="http://www.w3.org/2000/svg"><g clip-path="url(#clip0)"><rect width="1500" height="500" fill="#1B2431"/><g filter="url(#filter0_d)"><rect width="1500.27" height="500" transform="matrix(1 6.94771e-09 -0.000123745 1 0.11438 0)" fill="url(#paint0_linear)"/><rect width="1500.27" height="500" transform="matrix(1 6.94771e-09 -0.000123745 1 0.11438 0)" fill="url(#paint1_radial)" fill-opacity=".2"/><rect width="1500.27" height="500" transform="matrix(1 6.94771e-09 -0.000123745 1 0.11438 0)" fill="url(#paint2_linear)"/></g><path d="M23.1351 40H17.2454V26.6316H8.51678V40H2.60588V9.15314H8.51678V21.8012H17.2454V9.15314H23.1351V40ZM39.3636 23.369L45.444 9.15314H51.9905L42.2873 29.3222L42.2661 40H36.334L36.3129 29.068L26.758 9.15314H33.2832L39.3636 23.369ZM61.2276 28.6867V40H55.2743V9.15314H65.825C67.5057 9.15314 69.0241 9.40031 70.38 9.89465C71.7359 10.3749 72.887 11.0528 73.8333 11.9285C74.7937 12.7901 75.5282 13.8282 76.0367 15.0429C76.5592 16.2575 76.8205 17.6064 76.8205 19.0894C76.8205 20.4735 76.5592 21.7518 76.0367 22.9241C75.5282 24.0964 74.7937 25.1133 73.8333 25.9748C72.887 26.8223 71.7359 27.4861 70.38 27.9663C69.0241 28.4466 67.5057 28.6867 65.825 28.6867H61.2276ZM61.2276 23.8562H65.825C66.6724 23.8562 67.4069 23.7291 68.0283 23.4749C68.6498 23.2207 69.1653 22.8746 69.5749 22.4368C69.9986 21.9989 70.3094 21.4975 70.5071 20.9326C70.719 20.3535 70.8249 19.7532 70.8249 19.1318C70.8249 18.4114 70.719 17.7405 70.5071 17.1191C70.3094 16.4976 69.9986 15.9539 69.5749 15.4878C69.1653 15.0217 68.6498 14.6544 68.0283 14.3861C67.4069 14.1177 66.6724 13.9836 65.825 13.9836H61.2276V23.8562ZM99.9345 26.4833H87.2652V35.1908H102.074V40H81.2908V9.15314H102.011V14.0047H87.2652V21.78H99.9345V26.4833ZM117.477 28.4748H112.964V40H107.011V9.15314H117.349C119.058 9.15314 120.605 9.35794 121.989 9.76754C123.373 10.163 124.553 10.7492 125.527 11.526C126.516 12.3028 127.272 13.2703 127.794 14.4285C128.331 15.5866 128.599 16.9284 128.599 18.4538C128.599 19.5555 128.465 20.5512 128.197 21.441C127.942 22.3167 127.568 23.1077 127.074 23.8139C126.594 24.506 126.007 25.1133 125.315 25.6359C124.637 26.1585 123.875 26.6104 123.027 26.9918L129.658 39.7246V40H123.281L117.477 28.4748ZM112.964 23.6444H117.371C119.051 23.6444 120.344 23.2207 121.248 22.3732C122.166 21.5117 122.625 20.3394 122.625 18.8563C122.625 17.3168 122.18 16.1233 121.29 15.2759C120.4 14.4143 119.087 13.9836 117.349 13.9836H112.964V23.6444ZM132.942 40V9.15314H140.929C142.977 9.15314 144.828 9.50624 146.48 10.2124C148.147 10.9045 149.566 11.8791 150.739 13.1361C151.925 14.379 152.836 15.8691 153.472 17.6064C154.121 19.3436 154.446 21.2504 154.446 23.3266V25.8689C154.446 27.9452 154.121 29.8519 153.472 31.5891C152.836 33.3123 151.939 34.8024 150.781 36.0594C149.623 37.3023 148.232 38.2698 146.607 38.9619C144.983 39.654 143.189 40 141.226 40H132.942ZM138.938 13.9836V35.212H141.226C142.342 35.212 143.338 35.0001 144.213 34.5764C145.103 34.1527 145.852 33.5383 146.459 32.7332C147.08 31.9281 147.554 30.9536 147.878 29.8095C148.203 28.6514 148.366 27.3378 148.366 25.8689V23.2842C148.366 21.9001 148.203 20.643 147.878 19.5131C147.568 18.3691 147.095 17.3874 146.459 16.5683C145.838 15.7491 145.061 15.1135 144.129 14.6615C143.21 14.2095 142.144 13.9836 140.929 13.9836H138.938ZM178.111 26.4833H165.442V35.1908H180.251V40H159.467V9.15314H180.187V14.0047H165.442V21.78H178.111V26.4833ZM195.632 20.2123L201.119 9.15314H208.11L199.424 24.4495L208.322 40H201.373L195.717 28.7714L190.081 40H183.047L191.945 24.4495L183.28 9.15314H190.229L195.632 20.2123Z" transform="translate(656 195)" fill="#fff"/><path d="M11.6345 19.1433C11.0999 19.8318 10.426 20.3518 9.61304 20.7034C8.80005 21.0476 7.91016 21.2197 6.94336 21.2197C5.30273 21.2197 4.01367 20.6704 3.07617 19.5718C2.13867 18.4731 1.65161 16.9497 1.61499 15.0015V11.1123C1.61499 9.06885 2.05811 7.50513 2.94434 6.42114C3.83789 5.32983 5.10864 4.78418 6.75659 4.78418C8.22876 4.78418 9.38232 5.19067 10.2173 6.00366C11.0522 6.81665 11.521 7.98853 11.6235 9.51929H10.3711C10.2393 8.28882 9.87671 7.3916 9.28345 6.82764C8.69751 6.25635 7.85889 5.9707 6.76758 5.9707C5.46387 5.9707 4.48608 6.40649 3.83423 7.27808C3.1897 8.14233 2.86743 9.41309 2.86743 11.0903V14.7817C2.86743 16.4517 3.22266 17.748 3.93311 18.6709C4.65088 19.5938 5.6543 20.0552 6.94336 20.0552C8.34229 20.0552 9.48486 19.6121 10.3711 18.7258V14.562H6.86646V13.3865H11.6345V19.1433ZM20.2258 14.3423H16.4905V21H15.2271V5.00391H19.6106C21.0681 5.00391 22.196 5.42139 22.9944 6.25635C23.8 7.08398 24.2029 8.23755 24.2029 9.71704C24.2029 10.7498 23.9539 11.658 23.4558 12.4417C22.9578 13.218 22.2876 13.7563 21.4453 14.0566L24.7742 20.8572V21H23.4338L20.2258 14.3423ZM16.4905 13.1777H19.8303C20.7751 13.1777 21.5295 12.8555 22.0935 12.2109C22.6575 11.5591 22.9395 10.7278 22.9395 9.71704C22.9395 8.59644 22.6465 7.72852 22.0605 7.11328C21.4746 6.49805 20.6543 6.19043 19.5996 6.19043H16.4905V13.1777ZM34.8926 16.5286H28.894L27.5317 21H26.2244L31.322 5.00391H32.4866L37.5842 21H36.2769L34.8926 16.5286ZM29.2566 15.353H34.53L31.8933 6.77271L29.2566 15.353ZM50.0317 21H48.7793L41.2317 7.37695V21H39.9683V5.00391H41.2317L48.7903 18.6489V5.00391H50.0317V21ZM53.833 21V5.00391H57.6013C59.3372 5.00391 60.7104 5.56055 61.7212 6.67383C62.7319 7.77979 63.252 9.30688 63.2812 11.2551V14.606C63.2812 16.6128 62.7686 18.1802 61.7432 19.3081C60.7251 20.436 59.2932 21 57.4475 21H53.833ZM55.0854 6.19043V19.8354H57.5134C58.9417 19.8354 60.0476 19.396 60.8313 18.5171C61.615 17.6309 62.0178 16.3674 62.0398 14.7268V11.376C62.0398 9.73535 61.6553 8.46094 60.8862 7.55273C60.1245 6.64453 59.0186 6.19043 57.5684 6.19043H55.0854ZM68.324 5.00391L73.1689 19.0774L78.0359 5.00391H79.6948V21H78.4424V14.0676L78.5522 7.09131L73.6523 21H72.6855L67.8076 7.15723L67.9175 14.0237V21H66.665V5.00391H68.324ZM90.9668 16.5286H84.9683L83.606 21H82.2986L87.3962 5.00391H88.5608L93.6584 21H92.3511L90.9668 16.5286ZM85.3308 15.353H90.6042L87.9675 6.77271L85.3308 15.353ZM108.501 13.5513H102.349V21H101.096V5.00391H109.424V6.19043H102.349V12.3647H108.501V13.5513ZM117.103 14.3423H113.368V21H112.104V5.00391H116.488C117.946 5.00391 119.073 5.42139 119.872 6.25635C120.677 7.08398 121.08 8.23755 121.08 9.71704C121.08 10.7498 120.831 11.658 120.333 12.4417C119.835 13.218 119.165 13.7563 118.323 14.0566L121.652 20.8572V21H120.311L117.103 14.3423ZM113.368 13.1777H116.708C117.653 13.1777 118.407 12.8555 118.971 12.2109C119.535 11.5591 119.817 10.7278 119.817 9.71704C119.817 8.59644 119.524 7.72852 118.938 7.11328C118.352 6.49805 117.532 6.19043 116.477 6.19043H113.368V13.1777ZM125.98 21H124.728V5.00391H125.98V21ZM137.45 13.3425H131.243V19.8354H138.384V21H129.99V5.00391H138.329V6.19043H131.243V12.178H137.45V13.3425ZM151.238 21H149.985L142.438 7.37695V21H141.174V5.00391H142.438L149.996 18.6489V5.00391H151.238V21ZM155.039 21V5.00391H158.807C160.543 5.00391 161.917 5.56055 162.927 6.67383C163.938 7.77979 164.458 9.30688 164.487 11.2551V14.606C164.487 16.6128 163.975 18.1802 162.949 19.3081C161.931 20.436 160.499 21 158.654 21H155.039ZM156.292 6.19043V19.8354H158.719C160.148 19.8354 161.254 19.396 162.037 18.5171C162.821 17.6309 163.224 16.3674 163.246 14.7268V11.376C163.246 9.73535 162.861 8.46094 162.092 7.55273C161.331 6.64453 160.225 6.19043 158.774 6.19043H156.292ZM169.135 19.8354H175.726V21H167.871V5.00391H169.135V19.8354ZM179.648 13.7051L183.636 5.00391H185.076L180.264 14.9795V21H179.011V14.9795L174.21 5.00391H175.682L179.648 13.7051ZM8.9209 43.7261H4.51538L3.65845 47H0.241699L5.24048 31.0039H8.1958L13.2275 47H9.77783L8.9209 43.7261ZM5.21851 41.0344H8.20679L6.71265 35.3325L5.21851 41.0344ZM23.7744 33.6956H19.8193V47H16.5784V33.6956H12.6892V31.0039H23.7744V33.6956ZM36.5845 40.4412C36.5845 42.5872 36.0754 44.2534 35.0574 45.4399C34.0466 46.6265 32.6404 47.2197 30.8386 47.2197C29.0442 47.2197 27.6343 46.6338 26.6089 45.4619C25.5835 44.2827 25.0635 42.6348 25.0488 40.5181V37.7825C25.0488 35.5852 25.5579 33.8713 26.5759 32.6409C27.594 31.4031 29.0076 30.7842 30.8167 30.7842C32.5964 30.7842 33.999 31.3921 35.0244 32.6079C36.0498 33.8164 36.5698 35.5156 36.5845 37.7056V40.4412ZM33.3435 37.7605C33.3435 36.3176 33.1384 35.2446 32.7283 34.5415C32.3181 33.8384 31.6809 33.4868 30.8167 33.4868C29.9597 33.4868 29.3262 33.8274 28.916 34.5085C28.5059 35.1824 28.2935 36.2114 28.2788 37.5957V40.4412C28.2788 41.8401 28.4875 42.8728 28.905 43.5393C29.3225 44.1985 29.967 44.5281 30.8386 44.5281C31.6809 44.5281 32.3071 44.2058 32.7173 43.5613C33.1274 42.9094 33.3362 41.9023 33.3435 40.54V37.7605ZM43.1213 31.0039L46.1426 42.5725L49.1528 31.0039H53.3716V47H50.1306V42.6714L50.4272 36.0027L47.2302 47H45.033L41.8359 36.0027L42.1326 42.6714V47H38.9026V31.0039H43.1213ZM59.3481 47H56.1182V31.0039H59.3481V47ZM72.9053 41.6716C72.8247 43.4954 72.312 44.876 71.3672 45.8135C70.4224 46.751 69.0894 47.2197 67.3682 47.2197C65.5591 47.2197 64.1711 46.6265 63.2043 45.4399C62.2449 44.2461 61.7651 42.5469 61.7651 40.3423V37.6506C61.7651 35.4534 62.2632 33.7615 63.2593 32.575C64.2554 31.3811 65.6396 30.7842 67.4121 30.7842C69.1553 30.7842 70.4773 31.2712 71.3782 32.2454C72.2864 33.2195 72.8027 34.6184 72.9272 36.4421H69.6863C69.657 35.3142 69.4812 34.5378 69.1589 34.113C68.844 33.6809 68.2617 33.4648 67.4121 33.4648C66.5479 33.4648 65.9363 33.7688 65.5774 34.3767C65.2185 34.9773 65.0281 35.9697 65.0061 37.354V40.3752C65.0061 41.9646 65.1819 43.0559 65.5334 43.6492C65.8923 44.2424 66.5039 44.5391 67.3682 44.5391C68.2178 44.5391 68.8037 44.334 69.126 43.9238C69.4482 43.5063 69.6313 42.7556 69.6753 41.6716H72.9053ZM86.8359 42.8032C86.8359 42.1514 86.6675 41.6606 86.3306 41.3311C86.001 40.9941 85.3967 40.6462 84.5178 40.2874C82.9138 39.6794 81.7603 38.969 81.0571 38.156C80.354 37.3357 80.0024 36.3689 80.0024 35.2556C80.0024 33.908 80.4785 32.8276 81.4307 32.0146C82.3901 31.1943 83.606 30.7842 85.0781 30.7842C86.0596 30.7842 86.9348 30.9929 87.7039 31.4104C88.4729 31.8206 89.0625 32.4028 89.4727 33.1572C89.8901 33.9116 90.0989 34.7686 90.0989 35.728H86.8799C86.8799 34.981 86.7188 34.4133 86.3965 34.0251C86.0815 33.6296 85.6238 33.4319 85.0232 33.4319C84.4592 33.4319 84.0198 33.6003 83.7048 33.9373C83.3899 34.2668 83.2324 34.7136 83.2324 35.2776C83.2324 35.717 83.4082 36.1162 83.7598 36.4751C84.1113 36.8267 84.7339 37.1929 85.6274 37.5737C87.1875 38.1377 88.3191 38.8298 89.0222 39.6501C89.7327 40.4705 90.0879 41.5142 90.0879 42.7812C90.0879 44.1729 89.6448 45.2605 88.7585 46.0442C87.8723 46.8279 86.6675 47.2197 85.144 47.2197C84.1113 47.2197 83.1702 47.0073 82.3206 46.5825C81.4709 46.1577 80.8044 45.5498 80.321 44.7588C79.845 43.9678 79.6069 43.0339 79.6069 41.9573H82.8479C82.8479 42.8801 83.0273 43.5503 83.3862 43.9678C83.7451 44.3853 84.3311 44.594 85.144 44.594C86.272 44.594 86.8359 43.9971 86.8359 42.8032ZM102.623 41.0564L104.139 31.0039H107.336L104.491 47H101.25L99.3823 37.5737L97.5366 47H94.2847L91.4282 31.0039H94.6472L96.1523 41.0454L98.031 31.0039H100.745L102.623 41.0564ZM116.235 43.7261H111.83L110.973 47H107.556L112.555 31.0039H115.51L120.542 47H117.092L116.235 43.7261ZM112.533 41.0344H115.521L114.027 35.3325L112.533 41.0344ZM125.277 41.375V47H122.047V31.0039H127.496C129.078 31.0039 130.338 31.4946 131.276 32.4761C132.22 33.4575 132.693 34.7319 132.693 36.2993C132.693 37.8667 132.228 39.1045 131.298 40.0127C130.367 40.9209 129.078 41.375 127.43 41.375H125.277ZM125.277 38.6833H127.496C128.112 38.6833 128.588 38.4819 128.925 38.0791C129.261 37.6763 129.43 37.0903 129.43 36.3213C129.43 35.5229 129.258 34.8894 128.914 34.4207C128.569 33.9446 128.108 33.7029 127.529 33.6956H125.277V38.6833ZM141.614 42.8032C141.614 42.1514 141.445 41.6606 141.108 41.3311C140.779 40.9941 140.175 40.6462 139.296 40.2874C137.692 39.6794 136.538 38.969 135.835 38.156C135.132 37.3357 134.78 36.3689 134.78 35.2556C134.78 33.908 135.256 32.8276 136.208 32.0146C137.168 31.1943 138.384 30.7842 139.856 30.7842C140.837 30.7842 141.713 30.9929 142.482 31.4104C143.251 31.8206 143.84 32.4028 144.25 33.1572C144.668 33.9116 144.877 34.7686 144.877 35.728H141.658C141.658 34.981 141.497 34.4133 141.174 34.0251C140.859 33.6296 140.402 33.4319 139.801 33.4319C139.237 33.4319 138.798 33.6003 138.483 33.9373C138.168 34.2668 138.01 34.7136 138.01 35.2776C138.01 35.717 138.186 36.1162 138.538 36.4751C138.889 36.8267 139.512 37.1929 140.405 37.5737C141.965 38.1377 143.097 38.8298 143.8 39.6501C144.51 40.4705 144.866 41.5142 144.866 42.7812C144.866 44.1729 144.423 45.2605 143.536 46.0442C142.65 46.8279 141.445 47.2197 139.922 47.2197C138.889 47.2197 137.948 47.0073 137.098 46.5825C136.249 46.1577 135.582 45.5498 135.099 44.7588C134.623 43.9678 134.385 43.0339 134.385 41.9573H137.626C137.626 42.8801 137.805 43.5503 138.164 43.9678C138.523 44.3853 139.109 44.594 139.922 44.594C141.05 44.594 141.614 43.9971 141.614 42.8032Z" transform="translate(656 247)" fill="#fff"/><g filter="url(#filter1_d)"><path d="M0.0269712 3.82172H0V26.4539L6.12255 24.9361L6.33832 24.8819L12.0563 23.4995L14.7535 22.7948L17.1809 22.1985V20.4638V17.2655V16.6421L17.2348 -1.03396e-07L0.0269712 3.82172Z" transform="translate(562.755 269.544)" fill="url(#paint3_linear)"/><path d="M0 0L0.0809147 18.9189V22.1985L6.12255 24.7192L11.0853 26.7792L13.7555 27.9176V5.28536L0 0Z" transform="translate(549 268.083)" fill="url(#paint4_linear)"/><path d="M0.0269712 3.82172H0V26.4539L6.12255 24.9361L6.33832 24.8819L12.0563 23.4995L14.7535 22.7948L17.1809 22.1985V20.4638V17.2655V16.6421L17.2348 -1.03396e-07L0.0269712 3.82172Z" transform="translate(562.755 269.545)" fill="url(#paint5_linear)"/><path d="M30.2621 4.85169L25.8657 3.22543L20.1478 1.11128L17.2079 0L12.1642 1.11128L0.593375 3.55068L0 3.6591L13.7555 8.94446H13.7825L30.9903 5.12274L30.2621 4.85169Z" transform="translate(549 264.424)" fill="url(#paint6_linear)"/><path d="M30.2621 4.85169L25.8657 3.22543L20.1478 1.11128L17.2079 0L12.1642 1.11128L0.593375 3.55068L0 3.6591L13.7555 8.94446H13.7825L30.9903 5.12274L30.2621 4.85169Z" transform="translate(549 264.424)" fill="url(#paint7_linear)"/><path d="M0.0269712 3.82172H0V26.4539L6.12255 24.9361L6.33832 24.8819L12.0563 23.4995L14.7535 22.7948L17.1809 22.1985V20.4638V17.2655V16.6421L17.2348 -1.03396e-07L0.0269712 3.82172Z" transform="translate(562.755 243.505)" fill="url(#paint8_linear)"/><path d="M0 0L0.0809147 18.9189V22.1985L6.12255 24.7192L11.0853 26.7792L13.7555 27.9176V5.28536L0 0Z" transform="translate(549 242.042)" fill="url(#paint9_linear)"/><path d="M0.0269712 3.82172H0V26.4539L6.12255 24.9361L6.33832 24.8819L12.0563 23.4995L14.7535 22.7948L17.1809 22.1985V20.4638V17.2655V16.6421L17.2348 -1.03396e-07L0.0269712 3.82172Z" transform="translate(562.755 243.506)" fill="url(#paint10_linear)"/><path d="M30.2621 4.85169L25.8657 3.22543L20.1478 1.11128L17.2079 0L12.1642 1.11128L0.593375 3.55068L0 3.6591L13.7555 8.94446H13.7825L30.9903 5.12274L30.2621 4.85169Z" transform="translate(549 238.384)" fill="url(#paint11_linear)"/><path d="M30.2621 4.85169L25.8657 3.22543L20.1478 1.11128L17.2079 0L12.1642 1.11128L0.593375 3.55068L0 3.6591L13.7555 8.94446H13.7825L30.9903 5.12274L30.2621 4.85169Z" transform="translate(549 238.384)" fill="url(#paint12_linear)"/><path d="M0.0269712 3.82172H0V26.4539L6.12255 24.9361L6.33832 24.8819L12.0563 23.4995L14.7535 22.7948L17.1809 22.1985V20.4638V17.2655V16.6421L17.2348 -1.03396e-07L0.0269712 3.82172Z" transform="translate(562.755 218.045)" fill="url(#paint13_linear)"/><path d="M0 0L0.0809147 18.9189V22.1985L6.12255 24.7192L11.0853 26.7792L13.7555 27.9176V5.28536L0 0Z" transform="translate(549 216.582)" fill="url(#paint14_linear)"/><path d="M0.0269712 3.82172H0V26.4539L6.12255 24.9361L6.33832 24.8819L12.0563 23.4995L14.7535 22.7948L17.1809 22.1985V20.4638V17.2655V16.6421L17.2348 -1.03396e-07L0.0269712 3.82172Z" transform="translate(562.755 218.046)" fill="url(#paint15_linear)"/><path d="M30.2621 4.85169L25.8657 3.22543L20.1478 1.11128L17.2079 0L12.1642 1.11128L0.593375 3.55068L0 3.6591L13.7555 8.94446H13.7825L30.9903 5.12274L30.2621 4.85169Z" transform="translate(549 212.924)" fill="url(#paint16_linear)"/><path d="M30.2621 4.85169L25.8657 3.22543L20.1478 1.11128L17.2079 0L12.1642 1.11128L0.593375 3.55068L0 3.6591L13.7555 8.94446H13.7825L30.9903 5.12274L30.2621 4.85169Z" transform="translate(549 212.924)" fill="url(#paint17_linear)"/><path d="M0.00938094 1.33278H0V9.22549L2.12951 8.69616L2.20456 8.67725L4.19335 8.19518L5.13145 7.94942L5.97575 7.74147V7.13652V6.02114V5.80374L5.99451 -3.6058e-08L0.00938094 1.33278Z" transform="translate(587.297 246.262)" fill="url(#paint18_linear)"/><path d="M0 0L0.0281433 6.59774V7.74147L2.12951 8.62054L3.85563 9.33892L4.78435 9.73592V1.84321L0 0Z" transform="translate(582.512 245.751)" fill="url(#paint19_linear)"/><path d="M0.00938094 1.33278H0V9.22549L2.12951 8.69616L2.20456 8.67725L4.19335 8.19518L5.13145 7.94942L5.97575 7.74147V7.13652V6.02114V5.80374L5.99451 -3.6058e-08L0.00938094 1.33278Z" transform="translate(587.297 246.261)" fill="url(#paint20_linear)"/><path d="M10.5256 1.69197L8.99646 1.12483L7.00767 0.387546L5.98513 0L4.23087 0.387546L0.206384 1.23826L0 1.27607L4.78435 3.11927H4.79374L10.7789 1.78649L10.5256 1.69197Z" transform="translate(582.512 244.476)" fill="url(#paint21_linear)"/><path d="M10.5256 1.69197L8.99646 1.12483L7.00767 0.387546L5.98513 0L4.23087 0.387546L0.206384 1.23826L0 1.27607L4.78435 3.11927H4.79374L10.7789 1.78649L10.5256 1.69197Z" transform="translate(582.512 244.476)" fill="url(#paint22_linear)"/><path d="M0.0269712 3.82172H0V26.4539L6.12255 24.9361L6.33832 24.8819L12.0563 23.4995L14.7535 22.7948L17.1809 22.1985V20.4638V17.2655V16.6421L17.2348 -1.03396e-07L0.0269712 3.82172Z" transform="translate(609.765 258.62)" fill="url(#paint23_linear)"/><path d="M0 0L0.0809147 18.9189V22.1985L6.12255 24.7192L11.0853 26.7792L13.7555 27.9176V5.28536L0 0Z" transform="translate(596.01 257.156)" fill="url(#paint24_linear)"/><path d="M0.0269712 3.82172H0V26.4539L6.12255 24.9361L6.33832 24.8819L12.0563 23.4995L14.7535 22.7948L17.1809 22.1985V20.4638V17.2655V16.6421L17.2348 -1.03396e-07L0.0269712 3.82172Z" transform="translate(609.765 258.618)" fill="url(#paint25_linear)"/><path d="M30.2621 4.85169L25.8657 3.22543L20.1478 1.11128L17.2079 0L12.1642 1.11128L0.593375 3.55068L0 3.6591L13.7555 8.94446H13.7825L30.9903 5.12274L30.2621 4.85169Z" transform="translate(596.01 253.496)" fill="url(#paint26_linear)"/><path d="M30.2621 4.85169L25.8657 3.22543L20.1478 1.11128L17.2079 0L12.1642 1.11128L0.593375 3.55068L0 3.6591L13.7555 8.94446H13.7825L30.9903 5.12274L30.2621 4.85169Z" transform="translate(596.01 253.496)" fill="url(#paint27_linear)"/><path d="M0.0269712 3.82172H0V26.4539L6.12255 24.9361L6.33832 24.8819L12.0563 23.4995L14.7535 22.7948L17.1809 22.1985V20.4638V17.2655V16.6421L17.2348 -1.03396e-07L0.0269712 3.82172Z" transform="translate(609.765 232.871)" fill="url(#paint28_linear)"/><path d="M0 0L0.0809147 18.9189V22.1985L6.12255 24.7192L11.0853 26.7792L13.7555 27.9176V5.28536L0 0Z" transform="translate(596.01 231.409)" fill="url(#paint29_linear)"/><path d="M0.0269712 3.82172H0V26.4539L6.12255 24.9361L6.33832 24.8819L12.0563 23.4995L14.7535 22.7948L17.1809 22.1985V20.4638V17.2655V16.6421L17.2348 -1.03396e-07L0.0269712 3.82172Z" transform="translate(609.765 232.871)" fill="url(#paint30_linear)"/><path d="M30.2621 4.85169L25.8657 3.22543L20.1478 1.11128L17.2079 0L12.1642 1.11128L0.593375 3.55068L0 3.6591L13.7555 8.94446H13.7825L30.9903 5.12274L30.2621 4.85169Z" transform="translate(596.01 227.75)" fill="url(#paint31_linear)"/><path d="M30.2621 4.85169L25.8657 3.22543L20.1478 1.11128L17.2079 0L12.1642 1.11128L0.593375 3.55068L0 3.6591L13.7555 8.94446H13.7825L30.9903 5.12274L30.2621 4.85169Z" transform="translate(596.01 227.75)" fill="url(#paint32_linear)"/><path d="M0.0269712 3.82172H0V26.4539L6.12255 24.9361L6.33832 24.8819L12.0563 23.4995L14.7535 22.7948L17.1809 22.1985V20.4638V17.2655V16.6421L17.2348 -1.03396e-07L0.0269712 3.82172Z" transform="translate(609.765 207.122)" fill="url(#paint33_linear)"/><path d="M0 0L0.0809147 18.9189V22.1985L6.12255 24.7192L11.0853 26.7792L13.7555 27.9176V5.28536L0 0Z" transform="translate(596.009 205.659)" fill="url(#paint34_linear)"/><path d="M0.0269712 3.82172H0V26.4539L6.12255 24.9361L6.33832 24.8819L12.0563 23.4995L14.7535 22.7948L17.1809 22.1985V20.4638V17.2655V16.6421L17.2348 -1.03396e-07L0.0269712 3.82172Z" transform="translate(609.765 207.122)" fill="url(#paint35_linear)"/><path d="M30.2621 4.85169L25.8657 3.22543L20.1478 1.11128L17.2079 0L12.1642 1.11128L0.593375 3.55068L0 3.6591L13.7555 8.94446H13.7825L30.9903 5.12274L30.2621 4.85169Z" transform="translate(596.01 202)" fill="url(#paint36_linear)"/><path d="M30.2621 4.85169L25.8657 3.22543L20.1478 1.11128L17.2079 0L12.1642 1.11128L0.593375 3.55068L0 3.6591L13.7555 8.94446H13.7825L30.9903 5.12274L30.2621 4.85169Z" transform="translate(596.01 202)" fill="url(#paint37_linear)"/></g></g><defs><filter id="filter0_d" x="-60.437" y="-39.511" width="1600.33" height="600" filterUnits="userSpaceOnUse" color-interpolation-filters="sRGB"><feFlood flood-opacity="0" result="BackgroundImageFix"/><feColorMatrix in="SourceAlpha" type="matrix" values="0 0 0 0 0 0 0 0 0 0 0 0 0 0 0 0 0 0 255 0"/><feOffset dx="-10.489" dy="10.489"/><feGaussianBlur stdDeviation="25"/><feColorMatrix type="matrix" values="0 0 0 0 0 0 0 0 0 0 0 0 0 0 0 0 0 0 0.4 0"/><feBlend mode="normal" in2="BackgroundImageFix" result="effect1_dropShadow"/><feBlend mode="normal" in="SourceGraphic" in2="effect1_dropShadow" result="shape"/></filter><filter id="filter1_d" x="538.346" y="197.738" width="92.206" height="108.206" filterUnits="userSpaceOnUse" color-interpolation-filters="sRGB"><feFlood flood-opacity="0" result="BackgroundImageFix"/><feColorMatrix in="SourceAlpha" type="matrix" values="0 0 0 0 0 0 0 0 0 0 0 0 0 0 0 0 0 0 255 0"/><feOffset dx="-3.551" dy="2.841"/><feGaussianBlur stdDeviation="3.551"/><feColorMatrix type="matrix" values="0 0 0 0 0 0 0 0 0 0 0 0 0 0 0 0 0 0 0.1 0"/><feBlend mode="normal" in2="BackgroundImageFix" result="effect1_dropShadow"/><feBlend mode="normal" in="SourceGraphic" in2="effect1_dropShadow" result="shape"/></filter><linearGradient id="paint0_linear" x2="1" gradientUnits="userSpaceOnUse" gradientTransform="matrix(1574.11 927.5 -2263.7 295.352 1237.72 -257.176)"><stop/><stop offset="1" stop-color="#3F00A5"/></linearGradient><radialGradient id="paint1_radial" cx=".5" cy=".5" r=".5" gradientUnits="userSpaceOnUse" gradientTransform="matrix(-0.391687 366 -635.864 -0.759172 1068.26 67.3796)"><stop stop-color="#320073"/><stop offset="1" stop-color="#2B1C61" stop-opacity="0"/></radialGradient><linearGradient id="paint2_linear" x2="1" gradientUnits="userSpaceOnUse" gradientTransform="matrix(655.058 471.5 -863.536 18.1149 1181.68 218.943)"><stop stop-color="#300E75" stop-opacity="0"/><stop offset="1" stop-color="#F2C94C" stop-opacity=".35"/></linearGradient><linearGradient id="paint3_linear" x2="1" gradientUnits="userSpaceOnUse" gradientTransform="matrix(-15.8437 41.8051 26.8284 10.5678 5.62818 -19.8169)"><stop offset=".177" stop-color="#1D2237"/><stop offset=".325" stop-color="#47137A"/><stop offset="1" stop-color="#913BFE"/></linearGradient><linearGradient id="paint4_linear" x2="1" gradientUnits="userSpaceOnUse" gradientTransform="matrix(20.7146 36.9952 18.0253 -10.4668 -15.1147 -4.28787)"><stop stop-color="#1C2334"/><stop offset=".449" stop-color="#6759E0"/><stop offset="1" stop-color="#4BB2F9"/></linearGradient><linearGradient id="paint5_linear" x2="1" gradientUnits="userSpaceOnUse" gradientTransform="matrix(19.3673 20.9951 13.474 -12.911 -5.19725 11.9847)"><stop stop-color="#5C1EA0" stop-opacity="0"/><stop offset="1" stop-color="#F2C94C" stop-opacity=".35"/></linearGradient><linearGradient id="paint6_linear" x2="1" gradientUnits="userSpaceOnUse" gradientTransform="translate(-5.05852 -19.7448) scale(48.1989 48.4364)"><stop stop-color="#231C4C"/><stop offset="1" stop-color="#0143D6"/></linearGradient><linearGradient id="paint7_linear" x2="1" gradientUnits="userSpaceOnUse" gradientTransform="matrix(-1.61829 11.3839 -39.4423 -5.66236 34.1509 -1.77657)"><stop/><stop offset="1" stop-color="#0D35A5"/></linearGradient><linearGradient id="paint8_linear" x2="1" gradientUnits="userSpaceOnUse" gradientTransform="matrix(-15.8437 41.8051 26.8284 10.5678 5.62818 -19.8169)"><stop offset=".177" stop-color="#1D2237"/><stop offset=".325" stop-color="#47137A"/><stop offset="1" stop-color="#913BFE"/></linearGradient><linearGradient id="paint9_linear" x2="1" gradientUnits="userSpaceOnUse" gradientTransform="matrix(20.7146 36.9952 18.0253 -10.4668 -15.1147 -4.28787)"><stop stop-color="#1C2334"/><stop offset=".449" stop-color="#6759E0"/><stop offset="1" stop-color="#4BB2F9"/></linearGradient><linearGradient id="paint10_linear" x2="1" gradientUnits="userSpaceOnUse" gradientTransform="matrix(19.3673 20.9951 13.474 -12.911 -5.19725 11.9847)"><stop stop-color="#5C1EA0" stop-opacity="0"/><stop offset="1" stop-color="#F2C94C" stop-opacity=".35"/></linearGradient><linearGradient id="paint11_linear" x2="1" gradientUnits="userSpaceOnUse" gradientTransform="translate(-5.05852 -19.7448) scale(48.1989 48.4364)"><stop stop-color="#231C4C"/><stop offset="1" stop-color="#0143D6"/></linearGradient><linearGradient id="paint12_linear" x2="1" gradientUnits="userSpaceOnUse" gradientTransform="matrix(-1.61829 11.3839 -39.4423 -5.66236 34.1509 -1.77657)"><stop/><stop offset="1" stop-color="#0D35A5"/></linearGradient><linearGradient id="paint13_linear" x2="1" gradientUnits="userSpaceOnUse" gradientTransform="matrix(-15.8437 41.8051 26.8284 10.5678 5.62818 -19.8169)"><stop offset=".177" stop-color="#1D2237"/><stop offset=".325" stop-color="#47137A"/><stop offset="1" stop-color="#913BFE"/></linearGradient><linearGradient id="paint14_linear" x2="1" gradientUnits="userSpaceOnUse" gradientTransform="matrix(20.7146 36.9952 18.0253 -10.4668 -15.1147 -4.28787)"><stop stop-color="#1C2334"/><stop offset=".449" stop-color="#6759E0"/><stop offset="1" stop-color="#4BB2F9"/></linearGradient><linearGradient id="paint15_linear" x2="1" gradientUnits="userSpaceOnUse" gradientTransform="matrix(19.3673 20.9951 13.474 -12.911 -5.19725 11.9847)"><stop stop-color="#5C1EA0" stop-opacity="0"/><stop offset="1" stop-color="#F2C94C" stop-opacity=".35"/></linearGradient><linearGradient id="paint16_linear" x2="1" gradientUnits="userSpaceOnUse" gradientTransform="translate(-5.05852 -19.7448) scale(48.1989 48.4364)"><stop stop-color="#231C4C"/><stop offset="1" stop-color="#0143D6"/></linearGradient><linearGradient id="paint17_linear" x2="1" gradientUnits="userSpaceOnUse" gradientTransform="matrix(-1.61829 11.3839 -39.4423 -5.66236 34.1509 -1.77657)"><stop/><stop offset="1" stop-color="#0D35A5"/></linearGradient><linearGradient id="paint18_linear" x2="1" gradientUnits="userSpaceOnUse" gradientTransform="matrix(-5.51067 14.579 9.3313 3.68538 1.95756 -6.91091)"><stop offset=".177" stop-color="#1D2237"/><stop offset=".325" stop-color="#47137A"/><stop offset="1" stop-color="#913BFE"/></linearGradient><linearGradient id="paint19_linear" x2="1" gradientUnits="userSpaceOnUse" gradientTransform="matrix(7.20481 12.9016 6.26944 -3.65017 -5.25711 -1.49534)"><stop stop-color="#1C2334"/><stop offset=".449" stop-color="#6759E0"/><stop offset="1" stop-color="#4BB2F9"/></linearGradient><linearGradient id="paint20_linear" x2="1" gradientUnits="userSpaceOnUse" gradientTransform="matrix(6.7362 7.32179 4.68644 -4.50255 -1.80767 4.17951)"><stop stop-color="#5C1EA0" stop-opacity="0"/><stop offset="1" stop-color="#F2C94C" stop-opacity=".35"/></linearGradient><linearGradient id="paint21_linear" x2="1" gradientUnits="userSpaceOnUse" gradientTransform="translate(-1.75942 -6.88576) scale(16.7643 16.8916)"><stop stop-color="#231C4C"/><stop offset="1" stop-color="#0143D6"/></linearGradient><linearGradient id="paint22_linear" x2="1" gradientUnits="userSpaceOnUse" gradientTransform="matrix(-0.562865 3.96999 -13.7186 -1.97468 11.8782 -0.619558)"><stop/><stop offset="1" stop-color="#0D35A5"/></linearGradient><linearGradient id="paint23_linear" x2="1" gradientUnits="userSpaceOnUse" gradientTransform="matrix(-15.8437 41.8051 26.8284 10.5678 5.62818 -19.8169)"><stop offset=".177" stop-color="#1D2237"/><stop offset=".325" stop-color="#47137A"/><stop offset="1" stop-color="#913BFE"/></linearGradient><linearGradient id="paint24_linear" x2="1" gradientUnits="userSpaceOnUse" gradientTransform="matrix(20.7146 36.9952 18.0253 -10.4668 -15.1147 -4.28787)"><stop stop-color="#1C2334"/><stop offset=".449" stop-color="#6759E0"/><stop offset="1" stop-color="#4BB2F9"/></linearGradient><linearGradient id="paint25_linear" x2="1" gradientUnits="userSpaceOnUse" gradientTransform="matrix(19.3673 20.9951 13.474 -12.911 -5.19725 11.9847)"><stop stop-color="#5C1EA0" stop-opacity="0"/><stop offset="1" stop-color="#F2C94C" stop-opacity=".35"/></linearGradient><linearGradient id="paint26_linear" x2="1" gradientUnits="userSpaceOnUse" gradientTransform="translate(-5.05852 -19.7448) scale(48.1989 48.4364)"><stop stop-color="#231C4C"/><stop offset="1" stop-color="#0143D6"/></linearGradient><linearGradient id="paint27_linear" x2="1" gradientUnits="userSpaceOnUse" gradientTransform="matrix(-1.61829 11.3839 -39.4423 -5.66236 34.1509 -1.77657)"><stop/><stop offset="1" stop-color="#0D35A5"/></linearGradient><linearGradient id="paint28_linear" x2="1" gradientUnits="userSpaceOnUse" gradientTransform="matrix(-15.8437 41.8051 26.8284 10.5678 5.62818 -19.8169)"><stop offset=".177" stop-color="#1D2237"/><stop offset=".325" stop-color="#47137A"/><stop offset="1" stop-color="#913BFE"/></linearGradient><linearGradient id="paint29_linear" x2="1" gradientUnits="userSpaceOnUse" gradientTransform="matrix(20.7146 36.9952 18.0253 -10.4668 -15.1147 -4.28787)"><stop stop-color="#1C2334"/><stop offset=".449" stop-color="#6759E0"/><stop offset="1" stop-color="#4BB2F9"/></linearGradient><linearGradient id="paint30_linear" x2="1" gradientUnits="userSpaceOnUse" gradientTransform="matrix(19.3673 20.9951 13.474 -12.911 -5.19725 11.9847)"><stop stop-color="#5C1EA0" stop-opacity="0"/><stop offset="1" stop-color="#F2C94C" stop-opacity=".35"/></linearGradient><linearGradient id="paint31_linear" x2="1" gradientUnits="userSpaceOnUse" gradientTransform="translate(-5.05852 -19.7448) scale(48.1989 48.4364)"><stop stop-color="#231C4C"/><stop offset="1" stop-color="#0143D6"/></linearGradient><linearGradient id="paint32_linear" x2="1" gradientUnits="userSpaceOnUse" gradientTransform="matrix(-1.61829 11.3839 -39.4423 -5.66236 34.1509 -1.77657)"><stop/><stop offset="1" stop-color="#0D35A5"/></linearGradient><linearGradient id="paint33_linear" x2="1" gradientUnits="userSpaceOnUse" gradientTransform="matrix(-15.8437 41.8051 26.8284 10.5678 5.62818 -19.8169)"><stop offset=".177" stop-color="#1D2237"/><stop offset=".325" stop-color="#47137A"/><stop offset="1" stop-color="#913BFE"/></linearGradient><linearGradient id="paint34_linear" x2="1" gradientUnits="userSpaceOnUse" gradientTransform="matrix(20.7146 36.9952 18.0253 -10.4668 -15.1147 -4.28787)"><stop stop-color="#1C2334"/><stop offset=".449" stop-color="#6759E0"/><stop offset="1" stop-color="#4BB2F9"/></linearGradient><linearGradient id="paint35_linear" x2="1" gradientUnits="userSpaceOnUse" gradientTransform="matrix(19.3673 20.9951 13.474 -12.911 -5.19725 11.9847)"><stop stop-color="#5C1EA0" stop-opacity="0"/><stop offset="1" stop-color="#F2C94C" stop-opacity=".35"/></linearGradient><linearGradient id="paint36_linear" x2="1" gradientUnits="userSpaceOnUse" gradientTransform="translate(-5.05852 -19.7448) scale(48.1989 48.4364)"><stop stop-color="#231C4C"/><stop offset="1" stop-color="#0143D6"/></linearGradient><linearGradient id="paint37_linear" x2="1" gradientUnits="userSpaceOnUse" gradientTransform="matrix(-1.61829 11.3839 -39.4423 -5.66236 34.1509 -1.77657)"><stop/><stop offset="1" stop-color="#0D35A5"/></linearGradient><clipPath id="clip0"><rect width="1500" height="500" fill="#fff"/></clipPath></defs></svg>