<svg width="1500" height="500" viewBox="0 0 1500 500" fill="none" xmlns="http://www.w3.org/2000/svg"><g clip-path="url(#clip0)"><rect width="1500" height="500" fill="#1B2431"/><g filter="url(#filter0_d)"><rect width="1500.27" height="500" transform="matrix(1 6.94771e-09 -0.000123745 1 0.114334 0)" fill="url(#paint0_linear)"/><rect width="1500.27" height="500" transform="matrix(1 6.94771e-09 -0.000123745 1 0.114334 0)" fill="url(#paint1_radial)" fill-opacity=".2"/><rect width="1500.27" height="500" transform="matrix(1 6.94771e-09 -0.000123745 1 0.114334 0)" fill="url(#paint2_linear)"/></g><path d="M23.1351 40H17.2454V26.6316H8.51678V40H2.60588V9.15314H8.51678V21.8012H17.2454V9.15314H23.1351V40ZM39.3636 23.369L45.444 9.15314H51.9905L42.2873 29.3222L42.2661 40H36.334L36.3129 29.068L26.758 9.15314H33.2832L39.3636 23.369ZM61.2276 28.6867V40H55.2743V9.15314H65.825C67.5057 9.15314 69.0241 9.40031 70.38 9.89465C71.7359 10.3749 72.887 11.0528 73.8333 11.9285C74.7937 12.7901 75.5282 13.8282 76.0367 15.0429C76.5592 16.2575 76.8205 17.6064 76.8205 19.0894C76.8205 20.4735 76.5592 21.7518 76.0367 22.9241C75.5282 24.0964 74.7937 25.1133 73.8333 25.9748C72.887 26.8223 71.7359 27.4861 70.38 27.9663C69.0241 28.4466 67.5057 28.6867 65.825 28.6867H61.2276ZM61.2276 23.8562H65.825C66.6724 23.8562 67.4069 23.7291 68.0283 23.4749C68.6498 23.2207 69.1653 22.8746 69.5749 22.4368C69.9986 21.9989 70.3094 21.4975 70.5071 20.9326C70.719 20.3535 70.8249 19.7532 70.8249 19.1318C70.8249 18.4114 70.719 17.7405 70.5071 17.1191C70.3094 16.4976 69.9986 15.9539 69.5749 15.4878C69.1653 15.0217 68.6498 14.6544 68.0283 14.3861C67.4069 14.1177 66.6724 13.9836 65.825 13.9836H61.2276V23.8562ZM99.9345 26.4833H87.2652V35.1908H102.074V40H81.2908V9.15314H102.011V14.0047H87.2652V21.78H99.9345V26.4833ZM117.477 28.4748H112.964V40H107.011V9.15314H117.349C119.058 9.15314 120.605 9.35794 121.989 9.76754C123.373 10.163 124.553 10.7492 125.527 11.526C126.516 12.3028 127.272 13.2703 127.794 14.4285C128.331 15.5866 128.599 16.9284 128.599 18.4538C128.599 19.5555 128.465 20.5512 128.197 21.441C127.942 22.3167 127.568 23.1077 127.074 23.8139C126.594 24.506 126.007 25.1133 125.315 25.6359C124.637 26.1585 123.875 26.6104 123.027 26.9918L129.658 39.7246V40H123.281L117.477 28.4748ZM112.964 23.6444H117.371C119.051 23.6444 120.344 23.2207 121.248 22.3732C122.166 21.5117 122.625 20.3394 122.625 18.8563C122.625 17.3168 122.18 16.1233 121.29 15.2759C120.4 14.4143 119.087 13.9836 117.349 13.9836H112.964V23.6444ZM132.942 40V9.15314H140.929C142.977 9.15314 144.828 9.50624 146.48 10.2124C148.147 10.9045 149.566 11.8791 150.739 13.1361C151.925 14.379 152.836 15.8691 153.472 17.6064C154.121 19.3436 154.446 21.2504 154.446 23.3266V25.8689C154.446 27.9452 154.121 29.8519 153.472 31.5891C152.836 33.3123 151.939 34.8024 150.781 36.0594C149.623 37.3023 148.232 38.2698 146.607 38.9619C144.983 39.654 143.189 40 141.226 40H132.942ZM138.938 13.9836V35.212H141.226C142.342 35.212 143.338 35.0001 144.213 34.5764C145.103 34.1527 145.852 33.5383 146.459 32.7332C147.08 31.9281 147.554 30.9536 147.878 29.8095C148.203 28.6514 148.366 27.3378 148.366 25.8689V23.2842C148.366 21.9001 148.203 20.643 147.878 19.5131C147.568 18.3691 147.095 17.3874 146.459 16.5683C145.838 15.7491 145.061 15.1135 144.129 14.6615C143.21 14.2095 142.144 13.9836 140.929 13.9836H138.938ZM178.111 26.4833H165.442V35.1908H180.251V40H159.467V9.15314H180.187V14.0047H165.442V21.78H178.111V26.4833ZM195.632 20.2123L201.119 9.15314H208.11L199.424 24.4495L208.322 40H201.373L195.717 28.7714L190.081 40H183.047L191.945 24.4495L183.28 9.15314H190.229L195.632 20.2123Z" transform="translate(656 226)" fill="#fff"/><g filter="url(#filter1_d)"><path d="M0.0269712 3.82172H0V26.4539L6.12255 24.9361L6.33832 24.8819L12.0563 23.4995L14.7535 22.7948L17.1809 22.1985V20.4638V17.2655V16.6421L17.2348 -1.03396e-07L0.0269712 3.82172Z" transform="translate(562.756 273.544)" fill="url(#paint3_linear)"/><path d="M0 0L0.0809147 18.9189V22.1985L6.12255 24.7192L11.0853 26.7792L13.7555 27.9176V5.28536L0 0Z" transform="translate(549 272.083)" fill="url(#paint4_linear)"/><path d="M0.0269712 3.82172H0V26.4539L6.12255 24.9361L6.33832 24.8819L12.0563 23.4995L14.7535 22.7948L17.1809 22.1985V20.4638V17.2655V16.6421L17.2348 -1.03396e-07L0.0269712 3.82172Z" transform="translate(562.756 273.545)" fill="url(#paint5_linear)"/><path d="M30.2621 4.85169L25.8657 3.22543L20.1478 1.11128L17.2079 0L12.1642 1.11128L0.593375 3.55068L0 3.6591L13.7555 8.94446H13.7825L30.9903 5.12274L30.2621 4.85169Z" transform="translate(549 268.424)" fill="url(#paint6_linear)"/><path d="M30.2621 4.85169L25.8657 3.22543L20.1478 1.11128L17.2079 0L12.1642 1.11128L0.593375 3.55068L0 3.6591L13.7555 8.94446H13.7825L30.9903 5.12274L30.2621 4.85169Z" transform="translate(549 268.424)" fill="url(#paint7_linear)"/><path d="M0.0269712 3.82172H0V26.4539L6.12255 24.9361L6.33832 24.8819L12.0563 23.4995L14.7535 22.7948L17.1809 22.1985V20.4638V17.2655V16.6421L17.2348 -1.03396e-07L0.0269712 3.82172Z" transform="translate(562.756 247.505)" fill="url(#paint8_linear)"/><path d="M0 0L0.0809147 18.9189V22.1985L6.12255 24.7192L11.0853 26.7792L13.7555 27.9176V5.28536L0 0Z" transform="translate(549 246.042)" fill="url(#paint9_linear)"/><path d="M0.0269712 3.82172H0V26.4539L6.12255 24.9361L6.33832 24.8819L12.0563 23.4995L14.7535 22.7948L17.1809 22.1985V20.4638V17.2655V16.6421L17.2348 -1.03396e-07L0.0269712 3.82172Z" transform="translate(562.756 247.506)" fill="url(#paint10_linear)"/><path d="M30.2621 4.85169L25.8657 3.22543L20.1478 1.11128L17.2079 0L12.1642 1.11128L0.593375 3.55068L0 3.6591L13.7555 8.94446H13.7825L30.9903 5.12274L30.2621 4.85169Z" transform="translate(549 242.384)" fill="url(#paint11_linear)"/><path d="M30.2621 4.85169L25.8657 3.22543L20.1478 1.11128L17.2079 0L12.1642 1.11128L0.593375 3.55068L0 3.6591L13.7555 8.94446H13.7825L30.9903 5.12274L30.2621 4.85169Z" transform="translate(549 242.384)" fill="url(#paint12_linear)"/><path d="M0.0269712 3.82172H0V26.4539L6.12255 24.9361L6.33832 24.8819L12.0563 23.4995L14.7535 22.7948L17.1809 22.1985V20.4638V17.2655V16.6421L17.2348 -1.03396e-07L0.0269712 3.82172Z" transform="translate(562.756 222.045)" fill="url(#paint13_linear)"/><path d="M0 0L0.0809147 18.9189V22.1985L6.12255 24.7192L11.0853 26.7792L13.7555 27.9176V5.28536L0 0Z" transform="translate(549 220.582)" fill="url(#paint14_linear)"/><path d="M0.0269712 3.82172H0V26.4539L6.12255 24.9361L6.33832 24.8819L12.0563 23.4995L14.7535 22.7948L17.1809 22.1985V20.4638V17.2655V16.6421L17.2348 -1.03396e-07L0.0269712 3.82172Z" transform="translate(562.756 222.046)" fill="url(#paint15_linear)"/><path d="M30.2621 4.85169L25.8657 3.22543L20.1478 1.11128L17.2079 0L12.1642 1.11128L0.593375 3.55068L0 3.6591L13.7555 8.94446H13.7825L30.9903 5.12274L30.2621 4.85169Z" transform="translate(549 216.924)" fill="url(#paint16_linear)"/><path d="M30.2621 4.85169L25.8657 3.22543L20.1478 1.11128L17.2079 0L12.1642 1.11128L0.593375 3.55068L0 3.6591L13.7555 8.94446H13.7825L30.9903 5.12274L30.2621 4.85169Z" transform="translate(549 216.924)" fill="url(#paint17_linear)"/><path d="M0.00938094 1.33278H0V9.22549L2.12951 8.69616L2.20456 8.67725L4.19335 8.19518L5.13145 7.94942L5.97575 7.74147V7.13652V6.02114V5.80374L5.99451 -3.6058e-08L0.00938094 1.33278Z" transform="translate(587.297 250.262)" fill="url(#paint18_linear)"/><path d="M0 0L0.0281433 6.59774V7.74147L2.12951 8.62054L3.85563 9.33892L4.78435 9.73592V1.84321L0 0Z" transform="translate(582.513 249.751)" fill="url(#paint19_linear)"/><path d="M0.00938094 1.33278H0V9.22549L2.12951 8.69616L2.20456 8.67725L4.19335 8.19518L5.13145 7.94942L5.97575 7.74147V7.13652V6.02114V5.80374L5.99451 -3.6058e-08L0.00938094 1.33278Z" transform="translate(587.297 250.261)" fill="url(#paint20_linear)"/><path d="M10.5256 1.69197L8.99646 1.12483L7.00767 0.387546L5.98513 0L4.23087 0.387546L0.206384 1.23826L0 1.27607L4.78435 3.11927H4.79374L10.7789 1.78649L10.5256 1.69197Z" transform="translate(582.513 248.476)" fill="url(#paint21_linear)"/><path d="M10.5256 1.69197L8.99646 1.12483L7.00767 0.387546L5.98513 0L4.23087 0.387546L0.206384 1.23826L0 1.27607L4.78435 3.11927H4.79374L10.7789 1.78649L10.5256 1.69197Z" transform="translate(582.513 248.476)" fill="url(#paint22_linear)"/><path d="M0.0269712 3.82172H0V26.4539L6.12255 24.9361L6.33832 24.8819L12.0563 23.4995L14.7535 22.7948L17.1809 22.1985V20.4638V17.2655V16.6421L17.2348 -1.03396e-07L0.0269712 3.82172Z" transform="translate(609.765 262.62)" fill="url(#paint23_linear)"/><path d="M0 0L0.0809147 18.9189V22.1985L6.12255 24.7192L11.0853 26.7792L13.7555 27.9176V5.28536L0 0Z" transform="translate(596.01 261.156)" fill="url(#paint24_linear)"/><path d="M0.0269712 3.82172H0V26.4539L6.12255 24.9361L6.33832 24.8819L12.0563 23.4995L14.7535 22.7948L17.1809 22.1985V20.4638V17.2655V16.6421L17.2348 -1.03396e-07L0.0269712 3.82172Z" transform="translate(609.765 262.618)" fill="url(#paint25_linear)"/><path d="M30.2621 4.85169L25.8657 3.22543L20.1478 1.11128L17.2079 0L12.1642 1.11128L0.593375 3.55068L0 3.6591L13.7555 8.94446H13.7825L30.9903 5.12274L30.2621 4.85169Z" transform="translate(596.01 257.496)" fill="url(#paint26_linear)"/><path d="M30.2621 4.85169L25.8657 3.22543L20.1478 1.11128L17.2079 0L12.1642 1.11128L0.593375 3.55068L0 3.6591L13.7555 8.94446H13.7825L30.9903 5.12274L30.2621 4.85169Z" transform="translate(596.01 257.496)" fill="url(#paint27_linear)"/><path d="M0.0269712 3.82172H0V26.4539L6.12255 24.9361L6.33832 24.8819L12.0563 23.4995L14.7535 22.7948L17.1809 22.1985V20.4638V17.2655V16.6421L17.2348 -1.03396e-07L0.0269712 3.82172Z" transform="translate(609.765 236.871)" fill="url(#paint28_linear)"/><path d="M0 0L0.0809147 18.9189V22.1985L6.12255 24.7192L11.0853 26.7792L13.7555 27.9176V5.28536L0 0Z" transform="translate(596.009 235.409)" fill="url(#paint29_linear)"/><path d="M0.0269712 3.82172H0V26.4539L6.12255 24.9361L6.33832 24.8819L12.0563 23.4995L14.7535 22.7948L17.1809 22.1985V20.4638V17.2655V16.6421L17.2348 -1.03396e-07L0.0269712 3.82172Z" transform="translate(609.765 236.871)" fill="url(#paint30_linear)"/><path d="M30.2621 4.85169L25.8657 3.22543L20.1478 1.11128L17.2079 0L12.1642 1.11128L0.593375 3.55068L0 3.6591L13.7555 8.94446H13.7825L30.9903 5.12274L30.2621 4.85169Z" transform="translate(596.01 231.75)" fill="url(#paint31_linear)"/><path d="M30.2621 4.85169L25.8657 3.22543L20.1478 1.11128L17.2079 0L12.1642 1.11128L0.593375 3.55068L0 3.6591L13.7555 8.94446H13.7825L30.9903 5.12274L30.2621 4.85169Z" transform="translate(596.01 231.75)" fill="url(#paint32_linear)"/><path d="M0.0269712 3.82172H0V26.4539L6.12255 24.9361L6.33832 24.8819L12.0563 23.4995L14.7535 22.7948L17.1809 22.1985V20.4638V17.2655V16.6421L17.2348 -1.03396e-07L0.0269712 3.82172Z" transform="translate(609.765 211.122)" fill="url(#paint33_linear)"/><path d="M0 0L0.0809147 18.9189V22.1985L6.12255 24.7192L11.0853 26.7792L13.7555 27.9176V5.28536L0 0Z" transform="translate(596.009 209.659)" fill="url(#paint34_linear)"/><path d="M0.0269712 3.82172H0V26.4539L6.12255 24.9361L6.33832 24.8819L12.0563 23.4995L14.7535 22.7948L17.1809 22.1985V20.4638V17.2655V16.6421L17.2348 -1.03396e-07L0.0269712 3.82172Z" transform="translate(609.765 211.122)" fill="url(#paint35_linear)"/><path d="M30.2621 4.85169L25.8657 3.22543L20.1478 1.11128L17.2079 0L12.1642 1.11128L0.593375 3.55068L0 3.6591L13.7555 8.94446H13.7825L30.9903 5.12274L30.2621 4.85169Z" transform="translate(596.009 206)" fill="url(#paint36_linear)"/><path d="M30.2621 4.85169L25.8657 3.22543L20.1478 1.11128L17.2079 0L12.1642 1.11128L0.593375 3.55068L0 3.6591L13.7555 8.94446H13.7825L30.9903 5.12274L30.2621 4.85169Z" transform="translate(596.009 206)" fill="url(#paint37_linear)"/></g></g><defs><filter id="filter0_d" x="-60.437" y="-39.511" width="1600.33" height="600" filterUnits="userSpaceOnUse" color-interpolation-filters="sRGB"><feFlood flood-opacity="0" result="BackgroundImageFix"/><feColorMatrix in="SourceAlpha" type="matrix" values="0 0 0 0 0 0 0 0 0 0 0 0 0 0 0 0 0 0 255 0"/><feOffset dx="-10.489" dy="10.489"/><feGaussianBlur stdDeviation="25"/><feColorMatrix type="matrix" values="0 0 0 0 0 0 0 0 0 0 0 0 0 0 0 0 0 0 0.4 0"/><feBlend mode="normal" in2="BackgroundImageFix" result="effect1_dropShadow"/><feBlend mode="normal" in="SourceGraphic" in2="effect1_dropShadow" result="shape"/></filter><filter id="filter1_d" x="538.346" y="201.738" width="92.206" height="108.206" filterUnits="userSpaceOnUse" color-interpolation-filters="sRGB"><feFlood flood-opacity="0" result="BackgroundImageFix"/><feColorMatrix in="SourceAlpha" type="matrix" values="0 0 0 0 0 0 0 0 0 0 0 0 0 0 0 0 0 0 255 0"/><feOffset dx="-3.551" dy="2.841"/><feGaussianBlur stdDeviation="3.551"/><feColorMatrix type="matrix" values="0 0 0 0 0 0 0 0 0 0 0 0 0 0 0 0 0 0 0.1 0"/><feBlend mode="normal" in2="BackgroundImageFix" result="effect1_dropShadow"/><feBlend mode="normal" in="SourceGraphic" in2="effect1_dropShadow" result="shape"/></filter><linearGradient id="paint0_linear" x2="1" gradientUnits="userSpaceOnUse" gradientTransform="matrix(1574.11 927.5 -2263.7 295.352 1237.72 -257.176)"><stop/><stop offset="1" stop-color="#3F00A5"/></linearGradient><radialGradient id="paint1_radial" cx=".5" cy=".5" r=".5" gradientUnits="userSpaceOnUse" gradientTransform="matrix(-0.391687 366 -635.864 -0.759172 1068.26 67.3796)"><stop stop-color="#320073"/><stop offset="1" stop-color="#2B1C61" stop-opacity="0"/></radialGradient><linearGradient id="paint2_linear" x2="1" gradientUnits="userSpaceOnUse" gradientTransform="matrix(655.058 471.5 -863.536 18.1149 1181.68 218.943)"><stop stop-color="#300E75" stop-opacity="0"/><stop offset="1" stop-color="#F2C94C" stop-opacity=".35"/></linearGradient><linearGradient id="paint3_linear" x2="1" gradientUnits="userSpaceOnUse" gradientTransform="matrix(-15.8437 41.8051 26.8284 10.5678 5.62818 -19.8169)"><stop offset=".177" stop-color="#1D2237"/><stop offset=".325" stop-color="#47137A"/><stop offset="1" stop-color="#913BFE"/></linearGradient><linearGradient id="paint4_linear" x2="1" gradientUnits="userSpaceOnUse" gradientTransform="matrix(20.7146 36.9952 18.0253 -10.4668 -15.1147 -4.28787)"><stop stop-color="#1C2334"/><stop offset=".449" stop-color="#6759E0"/><stop offset="1" stop-color="#4BB2F9"/></linearGradient><linearGradient id="paint5_linear" x2="1" gradientUnits="userSpaceOnUse" gradientTransform="matrix(19.3673 20.9951 13.474 -12.911 -5.19725 11.9847)"><stop stop-color="#5C1EA0" stop-opacity="0"/><stop offset="1" stop-color="#F2C94C" stop-opacity=".35"/></linearGradient><linearGradient id="paint6_linear" x2="1" gradientUnits="userSpaceOnUse" gradientTransform="translate(-5.05852 -19.7448) scale(48.1989 48.4364)"><stop stop-color="#231C4C"/><stop offset="1" stop-color="#0143D6"/></linearGradient><linearGradient id="paint7_linear" x2="1" gradientUnits="userSpaceOnUse" gradientTransform="matrix(-1.61829 11.3839 -39.4423 -5.66236 34.1509 -1.77657)"><stop/><stop offset="1" stop-color="#0D35A5"/></linearGradient><linearGradient id="paint8_linear" x2="1" gradientUnits="userSpaceOnUse" gradientTransform="matrix(-15.8437 41.8051 26.8284 10.5678 5.62818 -19.8169)"><stop offset=".177" stop-color="#1D2237"/><stop offset=".325" stop-color="#47137A"/><stop offset="1" stop-color="#913BFE"/></linearGradient><linearGradient id="paint9_linear" x2="1" gradientUnits="userSpaceOnUse" gradientTransform="matrix(20.7146 36.9952 18.0253 -10.4668 -15.1147 -4.28787)"><stop stop-color="#1C2334"/><stop offset=".449" stop-color="#6759E0"/><stop offset="1" stop-color="#4BB2F9"/></linearGradient><linearGradient id="paint10_linear" x2="1" gradientUnits="userSpaceOnUse" gradientTransform="matrix(19.3673 20.9951 13.474 -12.911 -5.19725 11.9847)"><stop stop-color="#5C1EA0" stop-opacity="0"/><stop offset="1" stop-color="#F2C94C" stop-opacity=".35"/></linearGradient><linearGradient id="paint11_linear" x2="1" gradientUnits="userSpaceOnUse" gradientTransform="translate(-5.05852 -19.7448) scale(48.1989 48.4364)"><stop stop-color="#231C4C"/><stop offset="1" stop-color="#0143D6"/></linearGradient><linearGradient id="paint12_linear" x2="1" gradientUnits="userSpaceOnUse" gradientTransform="matrix(-1.61829 11.3839 -39.4423 -5.66236 34.1509 -1.77657)"><stop/><stop offset="1" stop-color="#0D35A5"/></linearGradient><linearGradient id="paint13_linear" x2="1" gradientUnits="userSpaceOnUse" gradientTransform="matrix(-15.8437 41.8051 26.8284 10.5678 5.62818 -19.8169)"><stop offset=".177" stop-color="#1D2237"/><stop offset=".325" stop-color="#47137A"/><stop offset="1" stop-color="#913BFE"/></linearGradient><linearGradient id="paint14_linear" x2="1" gradientUnits="userSpaceOnUse" gradientTransform="matrix(20.7146 36.9952 18.0253 -10.4668 -15.1147 -4.28787)"><stop stop-color="#1C2334"/><stop offset=".449" stop-color="#6759E0"/><stop offset="1" stop-color="#4BB2F9"/></linearGradient><linearGradient id="paint15_linear" x2="1" gradientUnits="userSpaceOnUse" gradientTransform="matrix(19.3673 20.9951 13.474 -12.911 -5.19725 11.9847)"><stop stop-color="#5C1EA0" stop-opacity="0"/><stop offset="1" stop-color="#F2C94C" stop-opacity=".35"/></linearGradient><linearGradient id="paint16_linear" x2="1" gradientUnits="userSpaceOnUse" gradientTransform="translate(-5.05852 -19.7448) scale(48.1989 48.4364)"><stop stop-color="#231C4C"/><stop offset="1" stop-color="#0143D6"/></linearGradient><linearGradient id="paint17_linear" x2="1" gradientUnits="userSpaceOnUse" gradientTransform="matrix(-1.61829 11.3839 -39.4423 -5.66236 34.1509 -1.77657)"><stop/><stop offset="1" stop-color="#0D35A5"/></linearGradient><linearGradient id="paint18_linear" x2="1" gradientUnits="userSpaceOnUse" gradientTransform="matrix(-5.51067 14.579 9.3313 3.68538 1.95756 -6.91091)"><stop offset=".177" stop-color="#1D2237"/><stop offset=".325" stop-color="#47137A"/><stop offset="1" stop-color="#913BFE"/></linearGradient><linearGradient id="paint19_linear" x2="1" gradientUnits="userSpaceOnUse" gradientTransform="matrix(7.20481 12.9016 6.26944 -3.65017 -5.25711 -1.49534)"><stop stop-color="#1C2334"/><stop offset=".449" stop-color="#6759E0"/><stop offset="1" stop-color="#4BB2F9"/></linearGradient><linearGradient id="paint20_linear" x2="1" gradientUnits="userSpaceOnUse" gradientTransform="matrix(6.7362 7.32179 4.68644 -4.50255 -1.80767 4.17951)"><stop stop-color="#5C1EA0" stop-opacity="0"/><stop offset="1" stop-color="#F2C94C" stop-opacity=".35"/></linearGradient><linearGradient id="paint21_linear" x2="1" gradientUnits="userSpaceOnUse" gradientTransform="translate(-1.75942 -6.88576) scale(16.7643 16.8916)"><stop stop-color="#231C4C"/><stop offset="1" stop-color="#0143D6"/></linearGradient><linearGradient id="paint22_linear" x2="1" gradientUnits="userSpaceOnUse" gradientTransform="matrix(-0.562865 3.96999 -13.7186 -1.97468 11.8782 -0.619558)"><stop/><stop offset="1" stop-color="#0D35A5"/></linearGradient><linearGradient id="paint23_linear" x2="1" gradientUnits="userSpaceOnUse" gradientTransform="matrix(-15.8437 41.8051 26.8284 10.5678 5.62818 -19.8169)"><stop offset=".177" stop-color="#1D2237"/><stop offset=".325" stop-color="#47137A"/><stop offset="1" stop-color="#913BFE"/></linearGradient><linearGradient id="paint24_linear" x2="1" gradientUnits="userSpaceOnUse" gradientTransform="matrix(20.7146 36.9952 18.0253 -10.4668 -15.1147 -4.28787)"><stop stop-color="#1C2334"/><stop offset=".449" stop-color="#6759E0"/><stop offset="1" stop-color="#4BB2F9"/></linearGradient><linearGradient id="paint25_linear" x2="1" gradientUnits="userSpaceOnUse" gradientTransform="matrix(19.3673 20.9951 13.474 -12.911 -5.19725 11.9847)"><stop stop-color="#5C1EA0" stop-opacity="0"/><stop offset="1" stop-color="#F2C94C" stop-opacity=".35"/></linearGradient><linearGradient id="paint26_linear" x2="1" gradientUnits="userSpaceOnUse" gradientTransform="translate(-5.05852 -19.7448) scale(48.1989 48.4364)"><stop stop-color="#231C4C"/><stop offset="1" stop-color="#0143D6"/></linearGradient><linearGradient id="paint27_linear" x2="1" gradientUnits="userSpaceOnUse" gradientTransform="matrix(-1.61829 11.3839 -39.4423 -5.66236 34.1509 -1.77657)"><stop/><stop offset="1" stop-color="#0D35A5"/></linearGradient><linearGradient id="paint28_linear" x2="1" gradientUnits="userSpaceOnUse" gradientTransform="matrix(-15.8437 41.8051 26.8284 10.5678 5.62818 -19.8169)"><stop offset=".177" stop-color="#1D2237"/><stop offset=".325" stop-color="#47137A"/><stop offset="1" stop-color="#913BFE"/></linearGradient><linearGradient id="paint29_linear" x2="1" gradientUnits="userSpaceOnUse" gradientTransform="matrix(20.7146 36.9952 18.0253 -10.4668 -15.1147 -4.28787)"><stop stop-color="#1C2334"/><stop offset=".449" stop-color="#6759E0"/><stop offset="1" stop-color="#4BB2F9"/></linearGradient><linearGradient id="paint30_linear" x2="1" gradientUnits="userSpaceOnUse" gradientTransform="matrix(19.3673 20.9951 13.474 -12.911 -5.19725 11.9847)"><stop stop-color="#5C1EA0" stop-opacity="0"/><stop offset="1" stop-color="#F2C94C" stop-opacity=".35"/></linearGradient><linearGradient id="paint31_linear" x2="1" gradientUnits="userSpaceOnUse" gradientTransform="translate(-5.05852 -19.7448) scale(48.1989 48.4364)"><stop stop-color="#231C4C"/><stop offset="1" stop-color="#0143D6"/></linearGradient><linearGradient id="paint32_linear" x2="1" gradientUnits="userSpaceOnUse" gradientTransform="matrix(-1.61829 11.3839 -39.4423 -5.66236 34.1509 -1.77657)"><stop/><stop offset="1" stop-color="#0D35A5"/></linearGradient><linearGradient id="paint33_linear" x2="1" gradientUnits="userSpaceOnUse" gradientTransform="matrix(-15.8437 41.8051 26.8284 10.5678 5.62818 -19.8169)"><stop offset=".177" stop-color="#1D2237"/><stop offset=".325" stop-color="#47137A"/><stop offset="1" stop-color="#913BFE"/></linearGradient><linearGradient id="paint34_linear" x2="1" gradientUnits="userSpaceOnUse" gradientTransform="matrix(20.7146 36.9952 18.0253 -10.4668 -15.1147 -4.28787)"><stop stop-color="#1C2334"/><stop offset=".449" stop-color="#6759E0"/><stop offset="1" stop-color="#4BB2F9"/></linearGradient><linearGradient id="paint35_linear" x2="1" gradientUnits="userSpaceOnUse" gradientTransform="matrix(19.3673 20.9951 13.474 -12.911 -5.19725 11.9847)"><stop stop-color="#5C1EA0" stop-opacity="0"/><stop offset="1" stop-color="#F2C94C" stop-opacity=".35"/></linearGradient><linearGradient id="paint36_linear" x2="1" gradientUnits="userSpaceOnUse" gradientTransform="translate(-5.05852 -19.7448) scale(48.1989 48.4364)"><stop stop-color="#231C4C"/><stop offset="1" stop-color="#0143D6"/></linearGradient><linearGradient id="paint37_linear" x2="1" gradientUnits="userSpaceOnUse" gradientTransform="matrix(-1.61829 11.3839 -39.4423 -5.66236 34.1509 -1.77657)"><stop/><stop offset="1" stop-color="#0D35A5"/></linearGradient><clipPath id="clip0"><rect width="1500" height="500" fill="#fff"/></clipPath></defs></svg>