<svg width="1500" height="500" viewBox="0 0 1500 500" fill="none" xmlns="http://www.w3.org/2000/svg"><g clip-path="url(#clip0)"><rect width="1500" height="500" fill="#1B2431"/><g filter="url(#filter0_d)"><rect width="1500.27" height="500" transform="matrix(1 6.94771e-09 -0.000123745 1 0.114334 0)" fill="url(#paint0_linear)"/><rect width="1500.27" height="500" transform="matrix(1 6.94771e-09 -0.000123745 1 0.114334 0)" fill="url(#paint1_radial)" fill-opacity=".2"/><rect width="1500.27" height="500" transform="matrix(1 6.94771e-09 -0.000123745 1 0.114334 0)" fill="url(#paint2_linear)"/></g><path d="M23.1351 40H17.2454V26.6316H8.51678V40H2.60588V9.15314H8.51678V21.8012H17.2454V9.15314H23.1351V40ZM39.3636 23.369L45.444 9.15314H51.9905L42.2873 29.3222L42.2661 40H36.334L36.3129 29.068L26.758 9.15314H33.2832L39.3636 23.369ZM61.2276 28.6867V40H55.2743V9.15314H65.825C67.5057 9.15314 69.0241 9.40031 70.38 9.89465C71.7359 10.3749 72.887 11.0528 73.8333 11.9285C74.7937 12.7901 75.5282 13.8282 76.0367 15.0429C76.5592 16.2575 76.8205 17.6064 76.8205 19.0894C76.8205 20.4735 76.5592 21.7518 76.0367 22.9241C75.5282 24.0964 74.7937 25.1133 73.8333 25.9748C72.887 26.8223 71.7359 27.4861 70.38 27.9663C69.0241 28.4466 67.5057 28.6867 65.825 28.6867H61.2276ZM61.2276 23.8562H65.825C66.6724 23.8562 67.4069 23.7291 68.0283 23.4749C68.6498 23.2207 69.1653 22.8746 69.5749 22.4368C69.9986 21.9989 70.3094 21.4975 70.5071 20.9326C70.719 20.3535 70.8249 19.7532 70.8249 19.1318C70.8249 18.4114 70.719 17.7405 70.5071 17.1191C70.3094 16.4976 69.9986 15.9539 69.5749 15.4878C69.1653 15.0217 68.6498 14.6544 68.0283 14.3861C67.4069 14.1177 66.6724 13.9836 65.825 13.9836H61.2276V23.8562ZM99.9345 26.4833H87.2652V35.1908H102.074V40H81.2908V9.15314H102.011V14.0047H87.2652V21.78H99.9345V26.4833ZM117.477 28.4748H112.964V40H107.011V9.15314H117.349C119.058 9.15314 120.605 9.35794 121.989 9.76754C123.373 10.163 124.553 10.7492 125.527 11.526C126.516 12.3028 127.272 13.2703 127.794 14.4285C128.331 15.5866 128.599 16.9284 128.599 18.4538C128.599 19.5555 128.465 20.5512 128.197 21.441C127.942 22.3167 127.568 23.1077 127.074 23.8139C126.594 24.506 126.007 25.1133 125.315 25.6359C124.637 26.1585 123.875 26.6104 123.027 26.9918L129.658 39.7246V40H123.281L117.477 28.4748ZM112.964 23.6444H117.371C119.051 23.6444 120.344 23.2207 121.248 22.3732C122.166 21.5117 122.625 20.3394 122.625 18.8563C122.625 17.3168 122.18 16.1233 121.29 15.2759C120.4 14.4143 119.087 13.9836 117.349 13.9836H112.964V23.6444ZM132.942 40V9.15314H140.929C142.977 9.15314 144.828 9.50624 146.48 10.2124C148.147 10.9045 149.566 11.8791 150.739 13.1361C151.925 14.379 152.836 15.8691 153.472 17.6064C154.121 19.3436 154.446 21.2504 154.446 23.3266V25.8689C154.446 27.9452 154.121 29.8519 153.472 31.5891C152.836 33.3123 151.939 34.8024 150.781 36.0594C149.623 37.3023 148.232 38.2698 146.607 38.9619C144.983 39.654 143.189 40 141.226 40H132.942ZM138.938 13.9836V35.212H141.226C142.342 35.212 143.338 35.0001 144.213 34.5764C145.103 34.1527 145.852 33.5383 146.459 32.7332C147.08 31.9281 147.554 30.9536 147.878 29.8095C148.203 28.6514 148.366 27.3378 148.366 25.8689V23.2842C148.366 21.9001 148.203 20.643 147.878 19.5131C147.568 18.3691 147.095 17.3874 146.459 16.5683C145.838 15.7491 145.061 15.1135 144.129 14.6615C143.21 14.2095 142.144 13.9836 140.929 13.9836H138.938ZM178.111 26.4833H165.442V35.1908H180.251V40H159.467V9.15314H180.187V14.0047H165.442V21.78H178.111V26.4833ZM195.632 20.2123L201.119 9.15314H208.11L199.424 24.4495L208.322 40H201.373L195.717 28.7714L190.081 40H183.047L191.945 24.4495L183.28 9.15314H190.229L195.632 20.2123Z" transform="translate(656 195)" fill="#fff"/><path d="M11.0413 6.19043H6.49292V21H5.22949V6.19043H0.692139V5.00391H11.0413V6.19043ZM23.6536 21H22.3901V13.3425H14.8755V21H13.623V5.00391H14.8755V12.178H22.3901V5.00391H23.6536V21ZM34.9255 13.3425H28.7183V19.8354H35.8594V21H27.4658V5.00391H35.8044V6.19043H28.7183V12.178H34.9255V13.3425ZM43.7036 21V5.00391H47.4719C49.2078 5.00391 50.5811 5.56055 51.5918 6.67383C52.6025 7.77979 53.1226 9.30688 53.1519 11.2551V14.606C53.1519 16.6128 52.6392 18.1802 51.6138 19.3081C50.5957 20.436 49.1638 21 47.3181 21H43.7036ZM44.9561 6.19043V19.8354H47.384C48.8123 19.8354 49.9182 19.396 50.7019 18.5171C51.4856 17.6309 51.8884 16.3674 51.9104 14.7268V11.376C51.9104 9.73535 51.5259 8.46094 50.7568 7.55273C49.9951 6.64453 48.8892 6.19043 47.439 6.19043H44.9561ZM63.9954 13.3425H57.7881V19.8354H64.9292V21H56.5356V5.00391H64.8743V6.19043H57.7881V12.178H63.9954V13.3425ZM75.2344 17.0669C75.2344 16.1733 74.978 15.4702 74.4653 14.9575C73.96 14.4448 73.0115 13.9541 71.6199 13.4854C70.2283 13.0166 69.2065 12.4929 68.5547 11.9143C67.6978 11.1599 67.2693 10.1638 67.2693 8.92603C67.2693 7.70288 67.6904 6.70679 68.5327 5.93774C69.375 5.1687 70.4626 4.78418 71.7957 4.78418C73.158 4.78418 74.2712 5.23096 75.1355 6.12451C75.9998 7.01807 76.4319 8.16797 76.4319 9.57422H75.1685C75.1685 8.49756 74.8645 7.62964 74.2566 6.97046C73.656 6.30396 72.8357 5.9707 71.7957 5.9707C70.7849 5.9707 69.9866 6.24536 69.4006 6.79468C68.822 7.33667 68.5327 8.03979 68.5327 8.90405C68.5327 9.70972 68.8074 10.3689 69.3567 10.8816C69.906 11.3943 70.7812 11.8521 71.9824 12.2549C73.1836 12.6504 74.0918 13.0642 74.707 13.4963C75.3223 13.9211 75.7764 14.4229 76.0693 15.0015C76.3623 15.5801 76.5088 16.2612 76.5088 17.0449C76.5088 18.2974 76.084 19.3081 75.2344 20.0771C74.3921 20.8389 73.2751 21.2197 71.8835 21.2197C70.946 21.2197 70.0891 21.0293 69.3127 20.6484C68.5437 20.2603 67.9395 19.7073 67.5 18.9895C67.0679 18.2644 66.8518 17.4111 66.8518 16.4297H68.1042C68.1042 17.5576 68.4448 18.4438 69.126 19.0884C69.8071 19.7329 70.7263 20.0552 71.8835 20.0552C72.8943 20.0552 73.7036 19.7842 74.3115 19.2422C74.9268 18.7002 75.2344 17.9751 75.2344 17.0669ZM82.4744 13.1118L80.6177 15.2651V21H79.3652V5.00391H80.6177V13.5293L82.3755 11.332L87.3303 5.00391H88.9014L83.3203 12.123L89.3298 21H87.8027L82.4744 13.1118ZM100.865 6.19043H96.3171V21H95.0537V6.19043H90.5164V5.00391H100.865V6.19043ZM113.06 14.7378C113.06 16.8032 112.606 18.3999 111.698 19.5278C110.797 20.6558 109.53 21.2197 107.897 21.2197C106.278 21.2197 105.007 20.6558 104.084 19.5278C103.169 18.3999 102.708 16.8142 102.7 14.7708V11.2881C102.7 9.22998 103.158 7.6333 104.073 6.49805C104.989 5.35547 106.256 4.78418 107.875 4.78418C109.515 4.78418 110.79 5.35547 111.698 6.49805C112.606 7.64062 113.06 9.24829 113.06 11.321V14.7378ZM111.797 11.2661C111.797 9.51562 111.46 8.20093 110.786 7.32202C110.112 6.44312 109.142 6.00366 107.875 6.00366C106.652 6.00366 105.696 6.43579 105.007 7.30005C104.319 8.15698 103.967 9.44238 103.953 11.1562V14.7378C103.953 16.4956 104.301 17.8176 104.996 18.7039C105.692 19.5828 106.659 20.0222 107.897 20.0222C109.171 20.0222 110.138 19.5828 110.797 18.7039C111.464 17.825 111.797 16.5029 111.797 14.7378V11.2661ZM117.664 14.4961V21H116.411V5.00391H121.058C122.472 5.00391 123.585 5.42871 124.398 6.27832C125.211 7.12793 125.618 8.29614 125.618 9.78296C125.618 11.2991 125.222 12.4636 124.431 13.2766C123.647 14.0896 122.516 14.4961 121.036 14.4961H117.664ZM117.664 13.3206H121.058C122.113 13.3206 122.926 13.0166 123.497 12.4087C124.076 11.7935 124.365 10.9255 124.365 9.80493C124.365 8.68433 124.072 7.80176 123.486 7.15723C122.908 6.5127 122.102 6.19043 121.069 6.19043H117.664V13.3206ZM140.867 16.5286H134.868L133.506 21H132.198L137.296 5.00391H138.461L143.558 21H142.251L140.867 16.5286ZM135.231 15.353H140.504L137.867 6.77271L135.231 15.353ZM147.195 14.4961V21H145.942V5.00391H150.59C152.003 5.00391 153.116 5.42871 153.929 6.27832C154.742 7.12793 155.149 8.29614 155.149 9.78296C155.149 11.2991 154.753 12.4636 153.962 13.2766C153.179 14.0896 152.047 14.4961 150.568 14.4961H147.195ZM147.195 13.3206H150.59C151.644 13.3206 152.457 13.0166 153.029 12.4087C153.607 11.7935 153.896 10.9255 153.896 9.80493C153.896 8.68433 153.604 7.80176 153.018 7.15723C152.439 6.5127 151.633 6.19043 150.601 6.19043H147.195V13.3206ZM159.324 14.4961V21H158.071V5.00391H162.719C164.132 5.00391 165.245 5.42871 166.058 6.27832C166.871 7.12793 167.278 8.29614 167.278 9.78296C167.278 11.2991 166.882 12.4636 166.091 13.2766C165.308 14.0896 164.176 14.4961 162.697 14.4961H159.324ZM159.324 13.3206H162.719C163.773 13.3206 164.586 13.0166 165.157 12.4087C165.736 11.7935 166.025 10.9255 166.025 9.80493C166.025 8.68433 165.732 7.80176 165.146 7.15723C164.568 6.5127 163.762 6.19043 162.729 6.19043H159.324V13.3206ZM182.659 13.5513H176.506V21H175.254V5.00391H183.582V6.19043H176.506V12.3647H182.659V13.5513ZM196.205 14.7378C196.205 16.8032 195.751 18.3999 194.843 19.5278C193.942 20.6558 192.675 21.2197 191.041 21.2197C189.423 21.2197 188.152 20.6558 187.229 19.5278C186.313 18.3999 185.852 16.8142 185.845 14.7708V11.2881C185.845 9.22998 186.302 7.6333 187.218 6.49805C188.134 5.35547 189.401 4.78418 191.019 4.78418C192.66 4.78418 193.934 5.35547 194.843 6.49805C195.751 7.64062 196.205 9.24829 196.205 11.321V14.7378ZM194.941 11.2661C194.941 9.51562 194.604 8.20093 193.931 7.32202C193.257 6.44312 192.286 6.00366 191.019 6.00366C189.796 6.00366 188.84 6.43579 188.152 7.30005C187.463 8.15698 187.112 9.44238 187.097 11.1562V14.7378C187.097 16.4956 187.445 17.8176 188.141 18.7039C188.837 19.5828 189.803 20.0222 191.041 20.0222C192.316 20.0222 193.282 19.5828 193.942 18.7039C194.608 17.825 194.941 16.5029 194.941 14.7378V11.2661ZM204.532 14.3423H200.797V21H199.534V5.00391H203.917C205.375 5.00391 206.503 5.42139 207.301 6.25635C208.107 7.08398 208.51 8.23755 208.51 9.71704C208.51 10.7498 208.26 11.658 207.762 12.4417C207.264 13.218 206.594 13.7563 205.752 14.0566L209.081 20.8572V21H207.74L204.532 14.3423ZM200.797 13.1777H204.137C205.082 13.1777 205.836 12.8555 206.4 12.2109C206.964 11.5591 207.246 10.7278 207.246 9.71704C207.246 8.59644 206.953 7.72852 206.367 7.11328C205.781 6.49805 204.961 6.19043 203.906 6.19043H200.797V13.1777ZM1.2854 47V31.0039H6.22925C7.89917 31.0039 9.16626 31.3774 10.0305 32.1245C10.9021 32.8643 11.3379 33.9519 11.3379 35.3875C11.3379 36.2004 11.1584 36.8999 10.7996 37.4858C10.4407 38.0718 9.94995 38.5002 9.32739 38.7712C10.0452 38.9763 10.5981 39.3901 10.9863 40.0127C11.3745 40.6279 11.5686 41.3896 11.5686 42.2979C11.5686 43.8506 11.1401 45.0225 10.2832 45.8135C9.43359 46.6045 8.19946 47 6.58081 47H1.2854ZM4.51538 40.0457V44.3193H6.58081C7.15942 44.3193 7.59888 44.1399 7.89917 43.781C8.19946 43.4221 8.34961 42.9131 8.34961 42.2539C8.34961 40.8184 7.82959 40.0823 6.78955 40.0457H4.51538ZM4.51538 37.6946H6.19629C7.46338 37.6946 8.09692 37.0391 8.09692 35.728C8.09692 35.0029 7.95044 34.4829 7.65747 34.168C7.3645 33.853 6.88843 33.6956 6.22925 33.6956H4.51538V37.6946ZM21.5552 43.7261H17.1497L16.2927 47H12.876L17.8748 31.0039H20.8301L25.8618 47H22.4121L21.5552 43.7261ZM17.8528 41.0344H20.8411L19.3469 35.3325L17.8528 41.0344ZM32.2119 41.1553H30.6079V47H27.3779V31.0039H32.5305C34.1492 31.0039 35.3979 31.425 36.2769 32.2673C37.1631 33.1023 37.6062 34.2925 37.6062 35.8379C37.6062 37.9619 36.8335 39.4487 35.2881 40.2983L38.0896 46.8462V47H34.6179L32.2119 41.1553ZM30.6079 38.4636H32.4426C33.0872 38.4636 33.5706 38.2512 33.8928 37.8264C34.2151 37.3943 34.3762 36.8193 34.3762 36.1016C34.3762 34.4976 33.75 33.6956 32.4976 33.6956H30.6079V38.4636ZM49.6362 33.6956H45.6812V47H42.4402V33.6956H38.551V31.0039H49.6362V33.6956ZM59.7546 40.0786H54.7229V44.3193H60.6775V47H51.4929V31.0039H60.6555V33.6956H54.7229V37.4749H59.7546V40.0786ZM67.3901 41.1553H65.7861V47H62.5562V31.0039H67.7087C69.3274 31.0039 70.5762 31.425 71.4551 32.2673C72.3413 33.1023 72.7844 34.2925 72.7844 35.8379C72.7844 37.9619 72.0117 39.4487 70.4663 40.2983L73.2678 46.8462V47H69.7961L67.3901 41.1553ZM65.7861 38.4636H67.6208C68.2654 38.4636 68.7488 38.2512 69.071 37.8264C69.3933 37.3943 69.5544 36.8193 69.5544 36.1016C69.5544 34.4976 68.9282 33.6956 67.6758 33.6956H65.7861V38.4636ZM75.0037 47V31.0039H79.2334C81.1011 31.0039 82.5879 31.5972 83.6938 32.7837C84.8071 33.9702 85.3748 35.5962 85.3967 37.6616V40.2544C85.3967 42.3564 84.8401 44.0081 83.7268 45.2092C82.6208 46.4031 81.0938 47 79.1455 47H75.0037ZM78.2336 33.6956V44.3193H79.2004C80.2771 44.3193 81.0352 44.0374 81.4746 43.4734C81.9141 42.9021 82.1448 41.9207 82.1667 40.5291V37.7495C82.1667 36.2554 81.958 35.2153 81.5405 34.6294C81.123 34.0361 80.4126 33.7249 79.4092 33.6956H78.2336ZM95.9875 40.0786H90.9558V44.3193H96.9104V47H87.7258V31.0039H96.8884V33.6956H90.9558V37.4749H95.9875V40.0786ZM103.788 36.4971L105.941 31.0039H109.644L105.886 38.936L109.731 47H105.985L103.788 41.408L101.602 47H97.8552L101.7 38.936L97.9321 31.0039H101.635L103.788 36.4971Z" transform="translate(656 247)" fill="#fff"/><g filter="url(#filter1_d)"><path d="M0.0269712 3.82172H0V26.4539L6.12255 24.9361L6.33832 24.8819L12.0563 23.4995L14.7535 22.7948L17.1809 22.1985V20.4638V17.2655V16.6421L17.2348 -1.03396e-07L0.0269712 3.82172Z" transform="translate(562.756 269.544)" fill="url(#paint3_linear)"/><path d="M0 0L0.0809147 18.9189V22.1985L6.12255 24.7192L11.0853 26.7792L13.7555 27.9176V5.28536L0 0Z" transform="translate(549 268.083)" fill="url(#paint4_linear)"/><path d="M0.0269712 3.82172H0V26.4539L6.12255 24.9361L6.33832 24.8819L12.0563 23.4995L14.7535 22.7948L17.1809 22.1985V20.4638V17.2655V16.6421L17.2348 -1.03396e-07L0.0269712 3.82172Z" transform="translate(562.756 269.545)" fill="url(#paint5_linear)"/><path d="M30.2621 4.85169L25.8657 3.22543L20.1478 1.11128L17.2079 0L12.1642 1.11128L0.593375 3.55068L0 3.6591L13.7555 8.94446H13.7825L30.9903 5.12274L30.2621 4.85169Z" transform="translate(549 264.424)" fill="url(#paint6_linear)"/><path d="M30.2621 4.85169L25.8657 3.22543L20.1478 1.11128L17.2079 0L12.1642 1.11128L0.593375 3.55068L0 3.6591L13.7555 8.94446H13.7825L30.9903 5.12274L30.2621 4.85169Z" transform="translate(549 264.424)" fill="url(#paint7_linear)"/><path d="M0.0269712 3.82172H0V26.4539L6.12255 24.9361L6.33832 24.8819L12.0563 23.4995L14.7535 22.7948L17.1809 22.1985V20.4638V17.2655V16.6421L17.2348 -1.03396e-07L0.0269712 3.82172Z" transform="translate(562.756 243.505)" fill="url(#paint8_linear)"/><path d="M0 0L0.0809147 18.9189V22.1985L6.12255 24.7192L11.0853 26.7792L13.7555 27.9176V5.28536L0 0Z" transform="translate(549 242.042)" fill="url(#paint9_linear)"/><path d="M0.0269712 3.82172H0V26.4539L6.12255 24.9361L6.33832 24.8819L12.0563 23.4995L14.7535 22.7948L17.1809 22.1985V20.4638V17.2655V16.6421L17.2348 -1.03396e-07L0.0269712 3.82172Z" transform="translate(562.756 243.506)" fill="url(#paint10_linear)"/><path d="M30.2621 4.85169L25.8657 3.22543L20.1478 1.11128L17.2079 0L12.1642 1.11128L0.593375 3.55068L0 3.6591L13.7555 8.94446H13.7825L30.9903 5.12274L30.2621 4.85169Z" transform="translate(549 238.384)" fill="url(#paint11_linear)"/><path d="M30.2621 4.85169L25.8657 3.22543L20.1478 1.11128L17.2079 0L12.1642 1.11128L0.593375 3.55068L0 3.6591L13.7555 8.94446H13.7825L30.9903 5.12274L30.2621 4.85169Z" transform="translate(549 238.384)" fill="url(#paint12_linear)"/><path d="M0.0269712 3.82172H0V26.4539L6.12255 24.9361L6.33832 24.8819L12.0563 23.4995L14.7535 22.7948L17.1809 22.1985V20.4638V17.2655V16.6421L17.2348 -1.03396e-07L0.0269712 3.82172Z" transform="translate(562.756 218.045)" fill="url(#paint13_linear)"/><path d="M0 0L0.0809147 18.9189V22.1985L6.12255 24.7192L11.0853 26.7792L13.7555 27.9176V5.28536L0 0Z" transform="translate(549 216.582)" fill="url(#paint14_linear)"/><path d="M0.0269712 3.82172H0V26.4539L6.12255 24.9361L6.33832 24.8819L12.0563 23.4995L14.7535 22.7948L17.1809 22.1985V20.4638V17.2655V16.6421L17.2348 -1.03396e-07L0.0269712 3.82172Z" transform="translate(562.756 218.046)" fill="url(#paint15_linear)"/><path d="M30.2621 4.85169L25.8657 3.22543L20.1478 1.11128L17.2079 0L12.1642 1.11128L0.593375 3.55068L0 3.6591L13.7555 8.94446H13.7825L30.9903 5.12274L30.2621 4.85169Z" transform="translate(549 212.924)" fill="url(#paint16_linear)"/><path d="M30.2621 4.85169L25.8657 3.22543L20.1478 1.11128L17.2079 0L12.1642 1.11128L0.593375 3.55068L0 3.6591L13.7555 8.94446H13.7825L30.9903 5.12274L30.2621 4.85169Z" transform="translate(549 212.924)" fill="url(#paint17_linear)"/><path d="M0.00938094 1.33278H0V9.22549L2.12951 8.69616L2.20456 8.67725L4.19335 8.19518L5.13145 7.94942L5.97575 7.74147V7.13652V6.02114V5.80374L5.99451 -3.6058e-08L0.00938094 1.33278Z" transform="translate(587.297 246.262)" fill="url(#paint18_linear)"/><path d="M0 0L0.0281433 6.59774V7.74147L2.12951 8.62054L3.85563 9.33892L4.78435 9.73592V1.84321L0 0Z" transform="translate(582.513 245.751)" fill="url(#paint19_linear)"/><path d="M0.00938094 1.33278H0V9.22549L2.12951 8.69616L2.20456 8.67725L4.19335 8.19518L5.13145 7.94942L5.97575 7.74147V7.13652V6.02114V5.80374L5.99451 -3.6058e-08L0.00938094 1.33278Z" transform="translate(587.297 246.261)" fill="url(#paint20_linear)"/><path d="M10.5256 1.69197L8.99646 1.12483L7.00767 0.387546L5.98513 0L4.23087 0.387546L0.206384 1.23826L0 1.27607L4.78435 3.11927H4.79374L10.7789 1.78649L10.5256 1.69197Z" transform="translate(582.513 244.476)" fill="url(#paint21_linear)"/><path d="M10.5256 1.69197L8.99646 1.12483L7.00767 0.387546L5.98513 0L4.23087 0.387546L0.206384 1.23826L0 1.27607L4.78435 3.11927H4.79374L10.7789 1.78649L10.5256 1.69197Z" transform="translate(582.513 244.476)" fill="url(#paint22_linear)"/><path d="M0.0269712 3.82172H0V26.4539L6.12255 24.9361L6.33832 24.8819L12.0563 23.4995L14.7535 22.7948L17.1809 22.1985V20.4638V17.2655V16.6421L17.2348 -1.03396e-07L0.0269712 3.82172Z" transform="translate(609.765 258.62)" fill="url(#paint23_linear)"/><path d="M0 0L0.0809147 18.9189V22.1985L6.12255 24.7192L11.0853 26.7792L13.7555 27.9176V5.28536L0 0Z" transform="translate(596.01 257.156)" fill="url(#paint24_linear)"/><path d="M0.0269712 3.82172H0V26.4539L6.12255 24.9361L6.33832 24.8819L12.0563 23.4995L14.7535 22.7948L17.1809 22.1985V20.4638V17.2655V16.6421L17.2348 -1.03396e-07L0.0269712 3.82172Z" transform="translate(609.765 258.618)" fill="url(#paint25_linear)"/><path d="M30.2621 4.85169L25.8657 3.22543L20.1478 1.11128L17.2079 0L12.1642 1.11128L0.593375 3.55068L0 3.6591L13.7555 8.94446H13.7825L30.9903 5.12274L30.2621 4.85169Z" transform="translate(596.01 253.496)" fill="url(#paint26_linear)"/><path d="M30.2621 4.85169L25.8657 3.22543L20.1478 1.11128L17.2079 0L12.1642 1.11128L0.593375 3.55068L0 3.6591L13.7555 8.94446H13.7825L30.9903 5.12274L30.2621 4.85169Z" transform="translate(596.01 253.496)" fill="url(#paint27_linear)"/><path d="M0.0269712 3.82172H0V26.4539L6.12255 24.9361L6.33832 24.8819L12.0563 23.4995L14.7535 22.7948L17.1809 22.1985V20.4638V17.2655V16.6421L17.2348 -1.03396e-07L0.0269712 3.82172Z" transform="translate(609.765 232.871)" fill="url(#paint28_linear)"/><path d="M0 0L0.0809147 18.9189V22.1985L6.12255 24.7192L11.0853 26.7792L13.7555 27.9176V5.28536L0 0Z" transform="translate(596.009 231.409)" fill="url(#paint29_linear)"/><path d="M0.0269712 3.82172H0V26.4539L6.12255 24.9361L6.33832 24.8819L12.0563 23.4995L14.7535 22.7948L17.1809 22.1985V20.4638V17.2655V16.6421L17.2348 -1.03396e-07L0.0269712 3.82172Z" transform="translate(609.765 232.871)" fill="url(#paint30_linear)"/><path d="M30.2621 4.85169L25.8657 3.22543L20.1478 1.11128L17.2079 0L12.1642 1.11128L0.593375 3.55068L0 3.6591L13.7555 8.94446H13.7825L30.9903 5.12274L30.2621 4.85169Z" transform="translate(596.01 227.75)" fill="url(#paint31_linear)"/><path d="M30.2621 4.85169L25.8657 3.22543L20.1478 1.11128L17.2079 0L12.1642 1.11128L0.593375 3.55068L0 3.6591L13.7555 8.94446H13.7825L30.9903 5.12274L30.2621 4.85169Z" transform="translate(596.01 227.75)" fill="url(#paint32_linear)"/><path d="M0.0269712 3.82172H0V26.4539L6.12255 24.9361L6.33832 24.8819L12.0563 23.4995L14.7535 22.7948L17.1809 22.1985V20.4638V17.2655V16.6421L17.2348 -1.03396e-07L0.0269712 3.82172Z" transform="translate(609.765 207.122)" fill="url(#paint33_linear)"/><path d="M0 0L0.0809147 18.9189V22.1985L6.12255 24.7192L11.0853 26.7792L13.7555 27.9176V5.28536L0 0Z" transform="translate(596.009 205.659)" fill="url(#paint34_linear)"/><path d="M0.0269712 3.82172H0V26.4539L6.12255 24.9361L6.33832 24.8819L12.0563 23.4995L14.7535 22.7948L17.1809 22.1985V20.4638V17.2655V16.6421L17.2348 -1.03396e-07L0.0269712 3.82172Z" transform="translate(609.765 207.122)" fill="url(#paint35_linear)"/><path d="M30.2621 4.85169L25.8657 3.22543L20.1478 1.11128L17.2079 0L12.1642 1.11128L0.593375 3.55068L0 3.6591L13.7555 8.94446H13.7825L30.9903 5.12274L30.2621 4.85169Z" transform="translate(596.009 202)" fill="url(#paint36_linear)"/><path d="M30.2621 4.85169L25.8657 3.22543L20.1478 1.11128L17.2079 0L12.1642 1.11128L0.593375 3.55068L0 3.6591L13.7555 8.94446H13.7825L30.9903 5.12274L30.2621 4.85169Z" transform="translate(596.009 202)" fill="url(#paint37_linear)"/></g></g><defs><filter id="filter0_d" x="-60.437" y="-39.511" width="1600.33" height="600" filterUnits="userSpaceOnUse" color-interpolation-filters="sRGB"><feFlood flood-opacity="0" result="BackgroundImageFix"/><feColorMatrix in="SourceAlpha" type="matrix" values="0 0 0 0 0 0 0 0 0 0 0 0 0 0 0 0 0 0 255 0"/><feOffset dx="-10.489" dy="10.489"/><feGaussianBlur stdDeviation="25"/><feColorMatrix type="matrix" values="0 0 0 0 0 0 0 0 0 0 0 0 0 0 0 0 0 0 0.4 0"/><feBlend mode="normal" in2="BackgroundImageFix" result="effect1_dropShadow"/><feBlend mode="normal" in="SourceGraphic" in2="effect1_dropShadow" result="shape"/></filter><filter id="filter1_d" x="538.346" y="197.738" width="92.206" height="108.206" filterUnits="userSpaceOnUse" color-interpolation-filters="sRGB"><feFlood flood-opacity="0" result="BackgroundImageFix"/><feColorMatrix in="SourceAlpha" type="matrix" values="0 0 0 0 0 0 0 0 0 0 0 0 0 0 0 0 0 0 255 0"/><feOffset dx="-3.551" dy="2.841"/><feGaussianBlur stdDeviation="3.551"/><feColorMatrix type="matrix" values="0 0 0 0 0 0 0 0 0 0 0 0 0 0 0 0 0 0 0.1 0"/><feBlend mode="normal" in2="BackgroundImageFix" result="effect1_dropShadow"/><feBlend mode="normal" in="SourceGraphic" in2="effect1_dropShadow" result="shape"/></filter><linearGradient id="paint0_linear" x2="1" gradientUnits="userSpaceOnUse" gradientTransform="matrix(1574.11 927.5 -2263.7 295.352 1237.72 -257.176)"><stop/><stop offset="1" stop-color="#3F00A5"/></linearGradient><radialGradient id="paint1_radial" cx=".5" cy=".5" r=".5" gradientUnits="userSpaceOnUse" gradientTransform="matrix(-0.391687 366 -635.864 -0.759172 1068.26 67.3796)"><stop stop-color="#320073"/><stop offset="1" stop-color="#2B1C61" stop-opacity="0"/></radialGradient><linearGradient id="paint2_linear" x2="1" gradientUnits="userSpaceOnUse" gradientTransform="matrix(655.058 471.5 -863.536 18.1149 1181.68 218.943)"><stop stop-color="#300E75" stop-opacity="0"/><stop offset="1" stop-color="#F2C94C" stop-opacity=".35"/></linearGradient><linearGradient id="paint3_linear" x2="1" gradientUnits="userSpaceOnUse" gradientTransform="matrix(-15.8437 41.8051 26.8284 10.5678 5.62818 -19.8169)"><stop offset=".177" stop-color="#1D2237"/><stop offset=".325" stop-color="#47137A"/><stop offset="1" stop-color="#913BFE"/></linearGradient><linearGradient id="paint4_linear" x2="1" gradientUnits="userSpaceOnUse" gradientTransform="matrix(20.7146 36.9952 18.0253 -10.4668 -15.1147 -4.28787)"><stop stop-color="#1C2334"/><stop offset=".449" stop-color="#6759E0"/><stop offset="1" stop-color="#4BB2F9"/></linearGradient><linearGradient id="paint5_linear" x2="1" gradientUnits="userSpaceOnUse" gradientTransform="matrix(19.3673 20.9951 13.474 -12.911 -5.19725 11.9847)"><stop stop-color="#5C1EA0" stop-opacity="0"/><stop offset="1" stop-color="#F2C94C" stop-opacity=".35"/></linearGradient><linearGradient id="paint6_linear" x2="1" gradientUnits="userSpaceOnUse" gradientTransform="translate(-5.05852 -19.7448) scale(48.1989 48.4364)"><stop stop-color="#231C4C"/><stop offset="1" stop-color="#0143D6"/></linearGradient><linearGradient id="paint7_linear" x2="1" gradientUnits="userSpaceOnUse" gradientTransform="matrix(-1.61829 11.3839 -39.4423 -5.66236 34.1509 -1.77657)"><stop/><stop offset="1" stop-color="#0D35A5"/></linearGradient><linearGradient id="paint8_linear" x2="1" gradientUnits="userSpaceOnUse" gradientTransform="matrix(-15.8437 41.8051 26.8284 10.5678 5.62818 -19.8169)"><stop offset=".177" stop-color="#1D2237"/><stop offset=".325" stop-color="#47137A"/><stop offset="1" stop-color="#913BFE"/></linearGradient><linearGradient id="paint9_linear" x2="1" gradientUnits="userSpaceOnUse" gradientTransform="matrix(20.7146 36.9952 18.0253 -10.4668 -15.1147 -4.28787)"><stop stop-color="#1C2334"/><stop offset=".449" stop-color="#6759E0"/><stop offset="1" stop-color="#4BB2F9"/></linearGradient><linearGradient id="paint10_linear" x2="1" gradientUnits="userSpaceOnUse" gradientTransform="matrix(19.3673 20.9951 13.474 -12.911 -5.19725 11.9847)"><stop stop-color="#5C1EA0" stop-opacity="0"/><stop offset="1" stop-color="#F2C94C" stop-opacity=".35"/></linearGradient><linearGradient id="paint11_linear" x2="1" gradientUnits="userSpaceOnUse" gradientTransform="translate(-5.05852 -19.7448) scale(48.1989 48.4364)"><stop stop-color="#231C4C"/><stop offset="1" stop-color="#0143D6"/></linearGradient><linearGradient id="paint12_linear" x2="1" gradientUnits="userSpaceOnUse" gradientTransform="matrix(-1.61829 11.3839 -39.4423 -5.66236 34.1509 -1.77657)"><stop/><stop offset="1" stop-color="#0D35A5"/></linearGradient><linearGradient id="paint13_linear" x2="1" gradientUnits="userSpaceOnUse" gradientTransform="matrix(-15.8437 41.8051 26.8284 10.5678 5.62818 -19.8169)"><stop offset=".177" stop-color="#1D2237"/><stop offset=".325" stop-color="#47137A"/><stop offset="1" stop-color="#913BFE"/></linearGradient><linearGradient id="paint14_linear" x2="1" gradientUnits="userSpaceOnUse" gradientTransform="matrix(20.7146 36.9952 18.0253 -10.4668 -15.1147 -4.28787)"><stop stop-color="#1C2334"/><stop offset=".449" stop-color="#6759E0"/><stop offset="1" stop-color="#4BB2F9"/></linearGradient><linearGradient id="paint15_linear" x2="1" gradientUnits="userSpaceOnUse" gradientTransform="matrix(19.3673 20.9951 13.474 -12.911 -5.19725 11.9847)"><stop stop-color="#5C1EA0" stop-opacity="0"/><stop offset="1" stop-color="#F2C94C" stop-opacity=".35"/></linearGradient><linearGradient id="paint16_linear" x2="1" gradientUnits="userSpaceOnUse" gradientTransform="translate(-5.05852 -19.7448) scale(48.1989 48.4364)"><stop stop-color="#231C4C"/><stop offset="1" stop-color="#0143D6"/></linearGradient><linearGradient id="paint17_linear" x2="1" gradientUnits="userSpaceOnUse" gradientTransform="matrix(-1.61829 11.3839 -39.4423 -5.66236 34.1509 -1.77657)"><stop/><stop offset="1" stop-color="#0D35A5"/></linearGradient><linearGradient id="paint18_linear" x2="1" gradientUnits="userSpaceOnUse" gradientTransform="matrix(-5.51067 14.579 9.3313 3.68538 1.95756 -6.91091)"><stop offset=".177" stop-color="#1D2237"/><stop offset=".325" stop-color="#47137A"/><stop offset="1" stop-color="#913BFE"/></linearGradient><linearGradient id="paint19_linear" x2="1" gradientUnits="userSpaceOnUse" gradientTransform="matrix(7.20481 12.9016 6.26944 -3.65017 -5.25711 -1.49534)"><stop stop-color="#1C2334"/><stop offset=".449" stop-color="#6759E0"/><stop offset="1" stop-color="#4BB2F9"/></linearGradient><linearGradient id="paint20_linear" x2="1" gradientUnits="userSpaceOnUse" gradientTransform="matrix(6.7362 7.32179 4.68644 -4.50255 -1.80767 4.17951)"><stop stop-color="#5C1EA0" stop-opacity="0"/><stop offset="1" stop-color="#F2C94C" stop-opacity=".35"/></linearGradient><linearGradient id="paint21_linear" x2="1" gradientUnits="userSpaceOnUse" gradientTransform="translate(-1.75942 -6.88576) scale(16.7643 16.8916)"><stop stop-color="#231C4C"/><stop offset="1" stop-color="#0143D6"/></linearGradient><linearGradient id="paint22_linear" x2="1" gradientUnits="userSpaceOnUse" gradientTransform="matrix(-0.562865 3.96999 -13.7186 -1.97468 11.8782 -0.619558)"><stop/><stop offset="1" stop-color="#0D35A5"/></linearGradient><linearGradient id="paint23_linear" x2="1" gradientUnits="userSpaceOnUse" gradientTransform="matrix(-15.8437 41.8051 26.8284 10.5678 5.62818 -19.8169)"><stop offset=".177" stop-color="#1D2237"/><stop offset=".325" stop-color="#47137A"/><stop offset="1" stop-color="#913BFE"/></linearGradient><linearGradient id="paint24_linear" x2="1" gradientUnits="userSpaceOnUse" gradientTransform="matrix(20.7146 36.9952 18.0253 -10.4668 -15.1147 -4.28787)"><stop stop-color="#1C2334"/><stop offset=".449" stop-color="#6759E0"/><stop offset="1" stop-color="#4BB2F9"/></linearGradient><linearGradient id="paint25_linear" x2="1" gradientUnits="userSpaceOnUse" gradientTransform="matrix(19.3673 20.9951 13.474 -12.911 -5.19725 11.9847)"><stop stop-color="#5C1EA0" stop-opacity="0"/><stop offset="1" stop-color="#F2C94C" stop-opacity=".35"/></linearGradient><linearGradient id="paint26_linear" x2="1" gradientUnits="userSpaceOnUse" gradientTransform="translate(-5.05852 -19.7448) scale(48.1989 48.4364)"><stop stop-color="#231C4C"/><stop offset="1" stop-color="#0143D6"/></linearGradient><linearGradient id="paint27_linear" x2="1" gradientUnits="userSpaceOnUse" gradientTransform="matrix(-1.61829 11.3839 -39.4423 -5.66236 34.1509 -1.77657)"><stop/><stop offset="1" stop-color="#0D35A5"/></linearGradient><linearGradient id="paint28_linear" x2="1" gradientUnits="userSpaceOnUse" gradientTransform="matrix(-15.8437 41.8051 26.8284 10.5678 5.62818 -19.8169)"><stop offset=".177" stop-color="#1D2237"/><stop offset=".325" stop-color="#47137A"/><stop offset="1" stop-color="#913BFE"/></linearGradient><linearGradient id="paint29_linear" x2="1" gradientUnits="userSpaceOnUse" gradientTransform="matrix(20.7146 36.9952 18.0253 -10.4668 -15.1147 -4.28787)"><stop stop-color="#1C2334"/><stop offset=".449" stop-color="#6759E0"/><stop offset="1" stop-color="#4BB2F9"/></linearGradient><linearGradient id="paint30_linear" x2="1" gradientUnits="userSpaceOnUse" gradientTransform="matrix(19.3673 20.9951 13.474 -12.911 -5.19725 11.9847)"><stop stop-color="#5C1EA0" stop-opacity="0"/><stop offset="1" stop-color="#F2C94C" stop-opacity=".35"/></linearGradient><linearGradient id="paint31_linear" x2="1" gradientUnits="userSpaceOnUse" gradientTransform="translate(-5.05852 -19.7448) scale(48.1989 48.4364)"><stop stop-color="#231C4C"/><stop offset="1" stop-color="#0143D6"/></linearGradient><linearGradient id="paint32_linear" x2="1" gradientUnits="userSpaceOnUse" gradientTransform="matrix(-1.61829 11.3839 -39.4423 -5.66236 34.1509 -1.77657)"><stop/><stop offset="1" stop-color="#0D35A5"/></linearGradient><linearGradient id="paint33_linear" x2="1" gradientUnits="userSpaceOnUse" gradientTransform="matrix(-15.8437 41.8051 26.8284 10.5678 5.62818 -19.8169)"><stop offset=".177" stop-color="#1D2237"/><stop offset=".325" stop-color="#47137A"/><stop offset="1" stop-color="#913BFE"/></linearGradient><linearGradient id="paint34_linear" x2="1" gradientUnits="userSpaceOnUse" gradientTransform="matrix(20.7146 36.9952 18.0253 -10.4668 -15.1147 -4.28787)"><stop stop-color="#1C2334"/><stop offset=".449" stop-color="#6759E0"/><stop offset="1" stop-color="#4BB2F9"/></linearGradient><linearGradient id="paint35_linear" x2="1" gradientUnits="userSpaceOnUse" gradientTransform="matrix(19.3673 20.9951 13.474 -12.911 -5.19725 11.9847)"><stop stop-color="#5C1EA0" stop-opacity="0"/><stop offset="1" stop-color="#F2C94C" stop-opacity=".35"/></linearGradient><linearGradient id="paint36_linear" x2="1" gradientUnits="userSpaceOnUse" gradientTransform="translate(-5.05852 -19.7448) scale(48.1989 48.4364)"><stop stop-color="#231C4C"/><stop offset="1" stop-color="#0143D6"/></linearGradient><linearGradient id="paint37_linear" x2="1" gradientUnits="userSpaceOnUse" gradientTransform="matrix(-1.61829 11.3839 -39.4423 -5.66236 34.1509 -1.77657)"><stop/><stop offset="1" stop-color="#0D35A5"/></linearGradient><clipPath id="clip0"><rect width="1500" height="500" fill="#fff"/></clipPath></defs></svg>