<svg width="400" height="400" viewBox="0 0 400 400" fill="none" xmlns="http://www.w3.org/2000/svg"><g clip-path="url(#clip0)"><rect width="400" height="400" fill="#fff"/><g filter="url(#filter0_d)"><rect width="400.407" height="400" transform="matrix(1 6.94771e-09 -0.000123745 1 -0.357468 0)" fill="url(#paint0_linear)"/><rect width="400.407" height="400" transform="matrix(1 6.94771e-09 -0.000123745 1 -0.357468 0)" fill="url(#paint1_radial)"/><rect width="400.407" height="400" transform="matrix(1 6.94771e-09 -0.000123745 1 -0.357468 0)" fill="url(#paint2_linear)"/></g><g filter="url(#filter1_d)"><path d="M0.0639702 9.06682H0V62.7604L14.5215 59.1594L15.0332 59.0308L28.5951 55.7513L34.9922 54.0794L40.7496 52.6647V48.5493V40.9615V39.4825L40.8776 -2.453e-07L0.0639702 9.06682Z" transform="translate(139.625 248.239)" fill="url(#paint3_linear)"/><path d="M0 0L0.191914 44.884V52.6647L14.5215 58.645L26.2922 63.5321L32.6253 66.2328V12.5392L0 0Z" transform="translate(107 244.767)" fill="url(#paint4_linear)"/><path d="M0.0639702 9.06682H0V62.7604L14.5215 59.1594L15.0332 59.0308L28.5951 55.7513L34.9922 54.0794L40.7496 52.6647V48.5493V40.9615V39.4825L40.8776 -2.453e-07L0.0639702 9.06682Z" transform="translate(139.625 248.237)" fill="url(#paint5_linear)"/><path d="M71.7757 11.5104L61.3484 7.65214L47.7865 2.63645L40.8136 0L28.851 2.63645L1.40737 8.42379L0 8.681L32.6253 21.2202H32.6893L73.5029 12.1534L71.7757 11.5104Z" transform="translate(107 236.086)" fill="url(#paint6_linear)"/><path d="M71.7757 11.5104L61.3484 7.65214L47.7865 2.63645L40.8136 0L28.851 2.63645L1.40737 8.42379L0 8.681L32.6253 21.2202H32.6893L73.5029 12.1534L71.7757 11.5104Z" transform="translate(107 236.086)" fill="url(#paint7_linear)"/><path d="M0.0639702 9.06682H0V62.7604L14.5215 59.1594L15.0332 59.0308L28.5951 55.7513L34.9922 54.0794L40.7496 52.6647V48.5493V40.9615V39.4825L40.8776 -2.453e-07L0.0639702 9.06682Z" transform="translate(139.625 186.46)" fill="url(#paint8_linear)"/><path d="M0 0L0.191914 44.884V52.6647L14.5215 58.645L26.2922 63.5321L32.6253 66.2328V12.5392L0 0Z" transform="translate(107 182.985)" fill="url(#paint9_linear)"/><path d="M0.0639702 9.06682H0V62.7604L14.5215 59.1594L15.0332 59.0308L28.5951 55.7513L34.9922 54.0794L40.7496 52.6647V48.5493V40.9615V39.4825L40.8776 -2.453e-07L0.0639702 9.06682Z" transform="translate(139.625 186.458)" fill="url(#paint10_linear)"/><path d="M71.7757 11.5104L61.3484 7.65214L47.7865 2.63645L40.8136 0L28.851 2.63645L1.40737 8.42379L0 8.681L32.6253 21.2202H32.6893L73.5029 12.1534L71.7757 11.5104Z" transform="translate(107 174.307)" fill="url(#paint11_linear)"/><path d="M71.7757 11.5104L61.3484 7.65214L47.7865 2.63645L40.8136 0L28.851 2.63645L1.40737 8.42379L0 8.681L32.6253 21.2202H32.6893L73.5029 12.1534L71.7757 11.5104Z" transform="translate(107 174.307)" fill="url(#paint12_linear)"/><path d="M0.0639702 9.06682H0V62.7604L14.5215 59.1594L15.0332 59.0308L28.5951 55.7513L34.9922 54.0794L40.7496 52.6647V48.5493V40.9615V39.4825L40.8776 -2.453e-07L0.0639702 9.06682Z" transform="translate(139.625 126.059)" fill="url(#paint13_linear)"/><path d="M0 0L0.191914 44.884V52.6647L14.5215 58.645L26.2922 63.5321L32.6253 66.2328V12.5392L0 0Z" transform="translate(107 122.584)" fill="url(#paint14_linear)"/><path d="M0.0639702 9.06682H0V62.7604L14.5215 59.1594L15.0332 59.0308L28.5951 55.7513L34.9922 54.0794L40.7496 52.6647V48.5493V40.9615V39.4825L40.8776 -2.453e-07L0.0639702 9.06682Z" transform="translate(139.625 126.057)" fill="url(#paint15_linear)"/><path d="M71.7757 11.5104L61.3484 7.65214L47.7865 2.63645L40.8136 0L28.851 2.63645L1.40737 8.42379L0 8.681L32.6253 21.2202H32.6893L73.5029 12.1534L71.7757 11.5104Z" transform="translate(107 113.905)" fill="url(#paint16_linear)"/><path d="M71.7757 11.5104L61.3484 7.65214L47.7865 2.63645L40.8136 0L28.851 2.63645L1.40737 8.42379L0 8.681L32.6253 21.2202H32.6893L73.5029 12.1534L71.7757 11.5104Z" transform="translate(107 113.905)" fill="url(#paint17_linear)"/><path d="M0.0222497 3.16195H0V21.8869L5.05076 20.6311L5.22876 20.5863L9.94578 19.4426L12.1708 18.8595L14.1733 18.3662V16.931V14.2848V13.769L14.2178 -8.55455e-08L0.0222497 3.16195Z" transform="translate(197.832 193.01)" fill="url(#paint18_linear)"/><path d="M0 0L0.0667502 15.6528V18.3662L5.05076 20.4517L9.14477 22.156L11.3475 23.0979V4.3729L0 0Z" transform="translate(186.485 191.798)" fill="url(#paint19_linear)"/><path d="M0.0222497 3.16195H0V21.8869L5.05076 20.6311L5.22876 20.5863L9.94578 19.4426L12.1708 18.8595L14.1733 18.3662V16.931V14.2848V13.769L14.2178 -8.55455e-08L0.0222497 3.16195Z" transform="translate(197.832 193.008)" fill="url(#paint20_linear)"/><path d="M24.9646 4.0141L21.3378 2.66859L16.6208 0.919431L14.1955 0L10.0348 0.919431L0.489501 2.93769L0 3.02739L11.3475 7.4003H11.3698L25.5653 4.23835L24.9646 4.0141Z" transform="translate(186.485 188.771)" fill="url(#paint21_linear)"/><path d="M24.9646 4.0141L21.3378 2.66859L16.6208 0.919431L14.1955 0L10.0348 0.919431L0.489501 2.93769L0 3.02739L11.3475 7.4003H11.3698L25.5653 4.23835L24.9646 4.0141Z" transform="translate(186.485 188.771)" fill="url(#paint22_linear)"/><path d="M0.0639702 9.06682H0V62.7604L14.5215 59.1594L15.0332 59.0308L28.5951 55.7513L34.9922 54.0794L40.7496 52.6647V48.5493V40.9615V39.4825L40.8776 -2.453e-07L0.0639702 9.06682Z" transform="translate(251.122 222.331)" fill="url(#paint23_linear)"/><path d="M0 0L0.191914 44.884V52.6647L14.5215 58.645L26.2922 63.5321L32.6253 66.2328V12.5392L0 0Z" transform="translate(218.497 218.857)" fill="url(#paint24_linear)"/><path d="M0.0639702 9.06682H0V62.7604L14.5215 59.1594L15.0332 59.0308L28.5951 55.7513L34.9922 54.0794L40.7496 52.6647V48.5493V40.9615V39.4825L40.8776 -2.453e-07L0.0639702 9.06682Z" transform="translate(251.122 222.327)" fill="url(#paint25_linear)"/><path d="M71.7757 11.5104L61.3484 7.65214L47.7865 2.63645L40.8136 0L28.851 2.63645L1.40737 8.42379L0 8.681L32.6253 21.2202H32.6893L73.5029 12.1534L71.7757 11.5104Z" transform="translate(218.497 210.175)" fill="url(#paint26_linear)"/><path d="M71.7757 11.5104L61.3484 7.65214L47.7865 2.63645L40.8136 0L28.851 2.63645L1.40737 8.42379L0 8.681L32.6253 21.2202H32.6893L73.5029 12.1534L71.7757 11.5104Z" transform="translate(218.497 210.175)" fill="url(#paint27_linear)"/><path d="M0.0639702 9.06682H0V62.7604L14.5215 59.1594L15.0332 59.0308L28.5951 55.7513L34.9922 54.0794L40.7496 52.6647V48.5493V40.9615V39.4825L40.8776 -2.453e-07L0.0639702 9.06682Z" transform="translate(251.122 161.241)" fill="url(#paint28_linear)"/><path d="M0 0L0.191914 44.884V52.6647L14.5215 58.645L26.2922 63.5321L32.6253 66.2328V12.5392L0 0Z" transform="translate(218.497 157.771)" fill="url(#paint29_linear)"/><path d="M0.0639702 9.06682H0V62.7604L14.5215 59.1594L15.0332 59.0308L28.5951 55.7513L34.9922 54.0794L40.7496 52.6647V48.5493V40.9615V39.4825L40.8776 -2.453e-07L0.0639702 9.06682Z" transform="translate(251.122 161.241)" fill="url(#paint30_linear)"/><path d="M71.7757 11.5104L61.3484 7.65214L47.7865 2.63645L40.8136 0L28.851 2.63645L1.40737 8.42379L0 8.681L32.6253 21.2202H32.6893L73.5029 12.1534L71.7757 11.5104Z" transform="translate(218.497 149.09)" fill="url(#paint31_linear)"/><path d="M71.7757 11.5104L61.3484 7.65214L47.7865 2.63645L40.8136 0L28.851 2.63645L1.40737 8.42379L0 8.681L32.6253 21.2202H32.6893L73.5029 12.1534L71.7757 11.5104Z" transform="translate(218.497 149.09)" fill="url(#paint32_linear)"/><path d="M0.0639702 9.06682H0V62.7604L14.5215 59.1594L15.0332 59.0308L28.5951 55.7513L34.9922 54.0794L40.7496 52.6647V48.5493V40.9615V39.4825L40.8776 -2.453e-07L0.0639702 9.06682Z" transform="translate(251.122 100.152)" fill="url(#paint33_linear)"/><path d="M0 0L0.191914 44.884V52.6647L14.5215 58.645L26.2922 63.5321L32.6253 66.2328V12.5392L0 0Z" transform="translate(218.496 96.6813)" fill="url(#paint34_linear)"/><path d="M0.0639702 9.06682H0V62.7604L14.5215 59.1594L15.0332 59.0308L28.5951 55.7513L34.9922 54.0794L40.7496 52.6647V48.5493V40.9615V39.4825L40.8776 -2.453e-07L0.0639702 9.06682Z" transform="translate(251.122 100.152)" fill="url(#paint35_linear)"/><path d="M71.7757 11.5104L61.3484 7.65214L47.7865 2.63645L40.8136 0L28.851 2.63645L1.40737 8.42379L0 8.681L32.6253 21.2202H32.6893L73.5029 12.1534L71.7757 11.5104Z" transform="translate(218.497 88)" fill="url(#paint36_linear)"/><path d="M71.7757 11.5104L61.3484 7.65214L47.7865 2.63645L40.8136 0L28.851 2.63645L1.40737 8.42379L0 8.681L32.6253 21.2202H32.6893L73.5029 12.1534L71.7757 11.5104Z" transform="translate(218.497 88)" fill="url(#paint37_linear)"/></g></g><defs><filter id="filter0_d" x="-60.896" y="-39.511" width="500.456" height="500" filterUnits="userSpaceOnUse" color-interpolation-filters="sRGB"><feFlood flood-opacity="0" result="BackgroundImageFix"/><feColorMatrix in="SourceAlpha" type="matrix" values="0 0 0 0 0 0 0 0 0 0 0 0 0 0 0 0 0 0 255 0"/><feOffset dx="-10.489" dy="10.489"/><feGaussianBlur stdDeviation="25"/><feColorMatrix type="matrix" values="0 0 0 0 0 0 0 0 0 0 0 0 0 0 0 0 0 0 0.4 0"/><feBlend mode="normal" in2="BackgroundImageFix" result="effect1_dropShadow"/><feBlend mode="normal" in="SourceGraphic" in2="effect1_dropShadow" result="shape"/></filter><filter id="filter1_d" x="100.983" y="85.593" width="193.023" height="231.022" filterUnits="userSpaceOnUse" color-interpolation-filters="sRGB"><feFlood flood-opacity="0" result="BackgroundImageFix"/><feColorMatrix in="SourceAlpha" type="matrix" values="0 0 0 0 0 0 0 0 0 0 0 0 0 0 0 0 0 0 255 0"/><feOffset dx="-2.006" dy="1.604"/><feGaussianBlur stdDeviation="2.006"/><feColorMatrix type="matrix" values="0 0 0 0 0 0 0 0 0 0 0 0 0 0 0 0 0 0 0.1 0"/><feBlend mode="normal" in2="BackgroundImageFix" result="effect1_dropShadow"/><feBlend mode="normal" in="SourceGraphic" in2="effect1_dropShadow" result="shape"/></filter><linearGradient id="paint0_linear" x2="1" gradientUnits="userSpaceOnUse" gradientTransform="translate(307.77 -60.7668) scale(456.925 456.467) rotate(52.9479)"><stop stop-color="#1B2431"/><stop offset="1" stop-color="#3F00A5"/></linearGradient><radialGradient id="paint1_radial" cx=".5" cy=".5" r=".5" gradientUnits="userSpaceOnUse" gradientTransform="translate(370.348 29.6956) scale(340.622 340.276) rotate(89.9439)"><stop stop-color="#250054"/><stop offset="1" stop-color="#2B1C61" stop-opacity="0"/></radialGradient><linearGradient id="paint2_linear" x2="1" gradientUnits="userSpaceOnUse" gradientTransform="matrix(184.535 285 -285.124 184.017 331.438 57.4916)"><stop stop-color="#300E75" stop-opacity="0"/><stop offset="1" stop-color="#F2C94C" stop-opacity=".35"/></linearGradient><linearGradient id="paint3_linear" x2="1" gradientUnits="userSpaceOnUse" gradientTransform="matrix(-37.5782 99.1801 63.6317 25.0714 13.3489 -47.0145)"><stop offset=".177" stop-color="#1D2237"/><stop offset=".325" stop-color="#47137A"/><stop offset="1" stop-color="#913BFE"/></linearGradient><linearGradient id="paint4_linear" x2="1" gradientUnits="userSpaceOnUse" gradientTransform="matrix(49.1308 87.769 42.7523 -24.8319 -35.8491 -10.1727)"><stop stop-color="#1C2334"/><stop offset=".449" stop-color="#6759E0"/><stop offset="1" stop-color="#4BB2F9"/></linearGradient><linearGradient id="paint5_linear" x2="1" gradientUnits="userSpaceOnUse" gradientTransform="matrix(45.9353 49.8097 31.9576 -30.6306 -12.3268 28.4329)"><stop stop-color="#5C1EA0" stop-opacity="0"/><stop offset="1" stop-color="#F2C94C" stop-opacity=".35"/></linearGradient><linearGradient id="paint6_linear" x2="1" gradientUnits="userSpaceOnUse" gradientTransform="translate(-11.9978 -46.8434) scale(114.318 114.912)"><stop stop-color="#231C4C"/><stop offset="1" stop-color="#0143D6"/></linearGradient><linearGradient id="paint7_linear" x2="1" gradientUnits="userSpaceOnUse" gradientTransform="matrix(-3.83827 27.0076 -93.5491 -13.4336 80.9991 -4.21482)"><stop/><stop offset="1" stop-color="#0D35A5"/></linearGradient><linearGradient id="paint8_linear" x2="1" gradientUnits="userSpaceOnUse" gradientTransform="matrix(-37.5782 99.1801 63.6317 25.0714 13.3489 -47.0145)"><stop offset=".177" stop-color="#1D2237"/><stop offset=".325" stop-color="#47137A"/><stop offset="1" stop-color="#913BFE"/></linearGradient><linearGradient id="paint9_linear" x2="1" gradientUnits="userSpaceOnUse" gradientTransform="matrix(49.1308 87.769 42.7523 -24.8319 -35.8491 -10.1727)"><stop stop-color="#1C2334"/><stop offset=".449" stop-color="#6759E0"/><stop offset="1" stop-color="#4BB2F9"/></linearGradient><linearGradient id="paint10_linear" x2="1" gradientUnits="userSpaceOnUse" gradientTransform="matrix(45.9353 49.8097 31.9576 -30.6306 -12.3268 28.4329)"><stop stop-color="#5C1EA0" stop-opacity="0"/><stop offset="1" stop-color="#F2C94C" stop-opacity=".35"/></linearGradient><linearGradient id="paint11_linear" x2="1" gradientUnits="userSpaceOnUse" gradientTransform="translate(-11.9978 -46.8434) scale(114.318 114.912)"><stop stop-color="#231C4C"/><stop offset="1" stop-color="#0143D6"/></linearGradient><linearGradient id="paint12_linear" x2="1" gradientUnits="userSpaceOnUse" gradientTransform="matrix(-3.83827 27.0076 -93.5491 -13.4336 80.9991 -4.21482)"><stop/><stop offset="1" stop-color="#0D35A5"/></linearGradient><linearGradient id="paint13_linear" x2="1" gradientUnits="userSpaceOnUse" gradientTransform="matrix(-37.5782 99.1801 63.6317 25.0714 13.3489 -47.0145)"><stop offset=".177" stop-color="#1D2237"/><stop offset=".325" stop-color="#47137A"/><stop offset="1" stop-color="#913BFE"/></linearGradient><linearGradient id="paint14_linear" x2="1" gradientUnits="userSpaceOnUse" gradientTransform="matrix(49.1308 87.769 42.7523 -24.8319 -35.8491 -10.1727)"><stop stop-color="#1C2334"/><stop offset=".449" stop-color="#6759E0"/><stop offset="1" stop-color="#4BB2F9"/></linearGradient><linearGradient id="paint15_linear" x2="1" gradientUnits="userSpaceOnUse" gradientTransform="matrix(45.9353 49.8097 31.9576 -30.6306 -12.3268 28.4329)"><stop stop-color="#5C1EA0" stop-opacity="0"/><stop offset="1" stop-color="#F2C94C" stop-opacity=".35"/></linearGradient><linearGradient id="paint16_linear" x2="1" gradientUnits="userSpaceOnUse" gradientTransform="translate(-11.9978 -46.8434) scale(114.318 114.912)"><stop stop-color="#231C4C"/><stop offset="1" stop-color="#0143D6"/></linearGradient><linearGradient id="paint17_linear" x2="1" gradientUnits="userSpaceOnUse" gradientTransform="matrix(-3.83827 27.0076 -93.5491 -13.4336 80.9991 -4.21482)"><stop/><stop offset="1" stop-color="#0D35A5"/></linearGradient><linearGradient id="paint18_linear" x2="1" gradientUnits="userSpaceOnUse" gradientTransform="matrix(-13.0702 34.5879 22.132 8.74336 4.64294 -16.3957)"><stop offset=".177" stop-color="#1D2237"/><stop offset=".325" stop-color="#47137A"/><stop offset="1" stop-color="#913BFE"/></linearGradient><linearGradient id="paint19_linear" x2="1" gradientUnits="userSpaceOnUse" gradientTransform="matrix(17.0884 30.6084 14.8698 -8.65982 -12.4688 -3.54761)"><stop stop-color="#1C2334"/><stop offset=".449" stop-color="#6759E0"/><stop offset="1" stop-color="#4BB2F9"/></linearGradient><linearGradient id="paint20_linear" x2="1" gradientUnits="userSpaceOnUse" gradientTransform="matrix(15.9769 17.3705 11.1153 -10.6821 -4.28744 9.91565)"><stop stop-color="#5C1EA0" stop-opacity="0"/><stop offset="1" stop-color="#F2C94C" stop-opacity=".35"/></linearGradient><linearGradient id="paint21_linear" x2="1" gradientUnits="userSpaceOnUse" gradientTransform="translate(-4.173 -16.3361) scale(39.7615 40.0743)"><stop stop-color="#231C4C"/><stop offset="1" stop-color="#0143D6"/></linearGradient><linearGradient id="paint22_linear" x2="1" gradientUnits="userSpaceOnUse" gradientTransform="matrix(-1.335 9.41856 -32.5377 -4.68482 28.1726 -1.46987)"><stop/><stop offset="1" stop-color="#0D35A5"/></linearGradient><linearGradient id="paint23_linear" x2="1" gradientUnits="userSpaceOnUse" gradientTransform="matrix(-37.5782 99.1801 63.6317 25.0714 13.3489 -47.0145)"><stop offset=".177" stop-color="#1D2237"/><stop offset=".325" stop-color="#47137A"/><stop offset="1" stop-color="#913BFE"/></linearGradient><linearGradient id="paint24_linear" x2="1" gradientUnits="userSpaceOnUse" gradientTransform="matrix(49.1308 87.769 42.7523 -24.8319 -35.8491 -10.1727)"><stop stop-color="#1C2334"/><stop offset=".449" stop-color="#6759E0"/><stop offset="1" stop-color="#4BB2F9"/></linearGradient><linearGradient id="paint25_linear" x2="1" gradientUnits="userSpaceOnUse" gradientTransform="matrix(45.9353 49.8097 31.9576 -30.6306 -12.3268 28.4329)"><stop stop-color="#5C1EA0" stop-opacity="0"/><stop offset="1" stop-color="#F2C94C" stop-opacity=".35"/></linearGradient><linearGradient id="paint26_linear" x2="1" gradientUnits="userSpaceOnUse" gradientTransform="translate(-11.9978 -46.8434) scale(114.318 114.912)"><stop stop-color="#231C4C"/><stop offset="1" stop-color="#0143D6"/></linearGradient><linearGradient id="paint27_linear" x2="1" gradientUnits="userSpaceOnUse" gradientTransform="matrix(-3.83827 27.0076 -93.5491 -13.4336 80.9991 -4.21482)"><stop/><stop offset="1" stop-color="#0D35A5"/></linearGradient><linearGradient id="paint28_linear" x2="1" gradientUnits="userSpaceOnUse" gradientTransform="matrix(-37.5782 99.1801 63.6317 25.0714 13.3489 -47.0145)"><stop offset=".177" stop-color="#1D2237"/><stop offset=".325" stop-color="#47137A"/><stop offset="1" stop-color="#913BFE"/></linearGradient><linearGradient id="paint29_linear" x2="1" gradientUnits="userSpaceOnUse" gradientTransform="matrix(49.1308 87.769 42.7523 -24.8319 -35.8491 -10.1727)"><stop stop-color="#1C2334"/><stop offset=".449" stop-color="#6759E0"/><stop offset="1" stop-color="#4BB2F9"/></linearGradient><linearGradient id="paint30_linear" x2="1" gradientUnits="userSpaceOnUse" gradientTransform="matrix(45.9353 49.8097 31.9576 -30.6306 -12.3268 28.4329)"><stop stop-color="#5C1EA0" stop-opacity="0"/><stop offset="1" stop-color="#F2C94C" stop-opacity=".35"/></linearGradient><linearGradient id="paint31_linear" x2="1" gradientUnits="userSpaceOnUse" gradientTransform="translate(-11.9978 -46.8434) scale(114.318 114.912)"><stop stop-color="#231C4C"/><stop offset="1" stop-color="#0143D6"/></linearGradient><linearGradient id="paint32_linear" x2="1" gradientUnits="userSpaceOnUse" gradientTransform="matrix(-3.83827 27.0076 -93.5491 -13.4336 80.9991 -4.21482)"><stop/><stop offset="1" stop-color="#0D35A5"/></linearGradient><linearGradient id="paint33_linear" x2="1" gradientUnits="userSpaceOnUse" gradientTransform="matrix(-37.5782 99.1801 63.6317 25.0714 13.3489 -47.0145)"><stop offset=".177" stop-color="#1D2237"/><stop offset=".325" stop-color="#47137A"/><stop offset="1" stop-color="#913BFE"/></linearGradient><linearGradient id="paint34_linear" x2="1" gradientUnits="userSpaceOnUse" gradientTransform="matrix(49.1308 87.769 42.7523 -24.8319 -35.8491 -10.1727)"><stop stop-color="#1C2334"/><stop offset=".449" stop-color="#6759E0"/><stop offset="1" stop-color="#4BB2F9"/></linearGradient><linearGradient id="paint35_linear" x2="1" gradientUnits="userSpaceOnUse" gradientTransform="matrix(45.9353 49.8097 31.9576 -30.6306 -12.3268 28.4329)"><stop stop-color="#5C1EA0" stop-opacity="0"/><stop offset="1" stop-color="#F2C94C" stop-opacity=".35"/></linearGradient><linearGradient id="paint36_linear" x2="1" gradientUnits="userSpaceOnUse" gradientTransform="translate(-11.9978 -46.8434) scale(114.318 114.912)"><stop stop-color="#231C4C"/><stop offset="1" stop-color="#0143D6"/></linearGradient><linearGradient id="paint37_linear" x2="1" gradientUnits="userSpaceOnUse" gradientTransform="matrix(-3.83827 27.0076 -93.5491 -13.4336 80.9991 -4.21482)"><stop/><stop offset="1" stop-color="#0D35A5"/></linearGradient><clipPath id="clip0"><rect width="400" height="400" fill="#fff"/></clipPath></defs></svg>