<svg width="512" height="512" viewBox="0 0 512 512" fill="none" xmlns="http://www.w3.org/2000/svg">
<g filter="url(#filter0_d)">
<path d="M0.137622 19.4349H0V134.528L31.2408 126.809L32.3418 126.534L61.5182 119.504L75.2806 115.92L87.6668 112.888V104.066V87.8017V84.6315L87.9421 -5.25806e-07L0.137622 19.4349Z" transform="translate(127.188 360.469)" fill="url(#paint0_linear)"/>
<path d="M0 0L0.412874 96.2098V112.888L31.2408 125.707L56.5637 136.182L70.1885 141.971V26.8781L0 0Z" transform="translate(57 353.027)" fill="url(#paint1_linear)"/>
<path d="M0.137622 19.4349H0V134.528L31.2408 126.809L32.3418 126.534L61.5182 119.504L75.2806 115.92L87.6668 112.888V104.066V87.8017V84.6315L87.9421 -5.25806e-07L0.137622 19.4349Z" transform="translate(127.188 360.465)" fill="url(#paint2_linear)"/>
<path d="M154.415 24.6727L131.982 16.4025L102.806 5.65129L87.8045 0L62.0687 5.65129L3.02774 18.0566L0 18.6079L70.1885 45.486H70.3261L158.131 26.0511L154.415 24.6727Z" transform="translate(57 334.418)" fill="url(#paint3_linear)"/>
<path d="M154.415 24.6727L131.982 16.4025L102.806 5.65129L87.8045 0L62.0687 5.65129L3.02774 18.0566L0 18.6079L70.1885 45.486H70.3261L158.131 26.0511L154.415 24.6727Z" transform="translate(57 334.418)" fill="url(#paint4_linear)"/>
<path d="M0.137622 19.4349H0V134.528L31.2408 126.809L32.3418 126.534L61.5182 119.504L75.2806 115.92L87.6668 112.888V104.066V87.8017V84.6315L87.9421 -5.25806e-07L0.137622 19.4349Z" transform="translate(127.188 228.051)" fill="url(#paint5_linear)"/>
<path d="M0 0L0.412874 96.2098V112.888L31.2408 125.707L56.5637 136.182L70.1885 141.971V26.8781L0 0Z" transform="translate(57 220.602)" fill="url(#paint6_linear)"/>
<path d="M0.137622 19.4349H0V134.528L31.2408 126.809L32.3418 126.534L61.5182 119.504L75.2806 115.92L87.6668 112.888V104.066V87.8017V84.6315L87.9421 -5.25806e-07L0.137622 19.4349Z" transform="translate(127.188 228.047)" fill="url(#paint7_linear)"/>
<path d="M154.415 24.6727L131.982 16.4025L102.806 5.65129L87.8045 0L62.0687 5.65129L3.02774 18.0566L0 18.6079L70.1885 45.486H70.3261L158.131 26.0511L154.415 24.6727Z" transform="translate(57 202)" fill="url(#paint8_linear)"/>
<path d="M154.415 24.6727L131.982 16.4025L102.806 5.65129L87.8045 0L62.0687 5.65129L3.02774 18.0566L0 18.6079L70.1885 45.486H70.3261L158.131 26.0511L154.415 24.6727Z" transform="translate(57 202)" fill="url(#paint9_linear)"/>
<path d="M0.137622 19.4349H0V134.528L31.2408 126.809L32.3418 126.534L61.5182 119.504L75.2806 115.92L87.6668 112.888V104.066V87.8017V84.6315L87.9421 -5.25806e-07L0.137622 19.4349Z" transform="translate(127.188 98.5742)" fill="url(#paint10_linear)"/>
<path d="M0 0L0.412874 96.2098V112.888L31.2408 125.707L56.5637 136.182L70.1885 141.971V26.8781L0 0Z" transform="translate(57 91.125)" fill="url(#paint11_linear)"/>
<path d="M0.137622 19.4349H0V134.528L31.2408 126.809L32.3418 126.534L61.5182 119.504L75.2806 115.92L87.6668 112.888V104.066V87.8017V84.6315L87.9421 -5.25806e-07L0.137622 19.4349Z" transform="translate(127.188 98.5703)" fill="url(#paint12_linear)"/>
<path d="M154.415 24.6727L131.982 16.4025L102.806 5.65129L87.8045 0L62.0687 5.65129L3.02774 18.0566L0 18.6079L70.1885 45.486H70.3261L158.131 26.0511L154.415 24.6727Z" transform="translate(57 72.5234)" fill="url(#paint13_linear)"/>
<path d="M154.415 24.6727L131.982 16.4025L102.806 5.65129L87.8045 0L62.0687 5.65129L3.02774 18.0566L0 18.6079L70.1885 45.486H70.3261L158.131 26.0511L154.415 24.6727Z" transform="translate(57 72.5234)" fill="url(#paint14_linear)"/>
<path d="M0.047867 6.77769H0V46.9151L10.866 44.2233L11.2489 44.1271L21.3969 41.6756L26.1836 40.4258L30.4917 39.3683V36.2919V30.6198V29.5142L30.5875 -1.83368e-07L0.047867 6.77769Z" transform="translate(252.412 242.086)" fill="url(#paint15_linear)"/>
<path d="M0 0L0.143603 33.552V39.3683L10.866 43.8387L19.6736 47.4919L24.4125 49.5108V9.37341L0 0Z" transform="translate(228 239.488)" fill="url(#paint16_linear)"/>
<path d="M0.047867 6.77769H0V46.9151L10.866 44.2233L11.2489 44.1271L21.3969 41.6756L26.1836 40.4258L30.4917 39.3683V36.2919V30.6198V29.5142L30.5875 -1.83368e-07L0.047867 6.77769Z" transform="translate(252.412 242.082)" fill="url(#paint17_linear)"/>
<path d="M53.7076 8.60431L45.9051 5.72018L35.7572 1.97082L30.5396 0L21.5883 1.97082L1.05309 6.29701L0 6.48928L24.4125 15.8627H24.4604L55 9.08499L53.7076 8.60431Z" transform="translate(228 233)" fill="url(#paint18_linear)"/>
<path d="M53.7076 8.60431L45.9051 5.72018L35.7572 1.97082L30.5396 0L21.5883 1.97082L1.05309 6.29701L0 6.48928L24.4125 15.8627H24.4604L55 9.08499L53.7076 8.60431Z" transform="translate(228 233)" fill="url(#paint19_linear)"/>
<path d="M0.137622 19.4349H0V134.528L31.2408 126.809L32.3418 126.534L61.5182 119.504L75.2806 115.92L87.6668 112.888V104.066V87.8017V84.6315L87.9421 -5.25806e-07L0.137622 19.4349Z" transform="translate(367.059 304.941)" fill="url(#paint20_linear)"/>
<path d="M0 0L0.412874 96.2098V112.888L31.2408 125.707L56.5637 136.182L70.1885 141.971V26.8781L0 0Z" transform="translate(296.87 297.5)" fill="url(#paint21_linear)"/>
<path d="M0.137622 19.4349H0V134.528L31.2408 126.809L32.3418 126.534L61.5182 119.504L75.2806 115.92L87.6668 112.888V104.066V87.8017V84.6315L87.9421 -5.25806e-07L0.137622 19.4349Z" transform="translate(367.059 304.938)" fill="url(#paint22_linear)"/>
<path d="M154.415 24.6727L131.982 16.4025L102.806 5.65129L87.8045 0L62.0687 5.65129L3.02774 18.0566L0 18.6079L70.1885 45.486H70.3261L158.131 26.0511L154.415 24.6727Z" transform="translate(296.87 278.891)" fill="url(#paint23_linear)"/>
<path d="M154.415 24.6727L131.982 16.4025L102.806 5.65129L87.8045 0L62.0687 5.65129L3.02774 18.0566L0 18.6079L70.1885 45.486H70.3261L158.131 26.0511L154.415 24.6727Z" transform="translate(296.87 278.891)" fill="url(#paint24_linear)"/>
<path d="M0.137622 19.4349H0V134.528L31.2408 126.809L32.3418 126.534L61.5182 119.504L75.2806 115.92L87.6668 112.888V104.066V87.8017V84.6315L87.9421 -5.25806e-07L0.137622 19.4349Z" transform="translate(367.059 173.992)" fill="url(#paint25_linear)"/>
<path d="M0 0L0.412874 96.2098V112.888L31.2408 125.707L56.5637 136.182L70.1885 141.971V26.8781L0 0Z" transform="translate(296.87 166.555)" fill="url(#paint26_linear)"/>
<path d="M0.137622 19.4349H0V134.528L31.2408 126.809L32.3418 126.534L61.5182 119.504L75.2806 115.92L87.6668 112.888V104.066V87.8017V84.6315L87.9421 -5.25806e-07L0.137622 19.4349Z" transform="translate(367.059 173.992)" fill="url(#paint27_linear)"/>
<path d="M154.415 24.6727L131.982 16.4025L102.806 5.65129L87.8045 0L62.0687 5.65129L3.02774 18.0566L0 18.6079L70.1885 45.486H70.3261L158.131 26.0511L154.415 24.6727Z" transform="translate(296.87 147.945)" fill="url(#paint28_linear)"/>
<path d="M154.415 24.6727L131.982 16.4025L102.806 5.65129L87.8045 0L62.0687 5.65129L3.02774 18.0566L0 18.6079L70.1885 45.486H70.3261L158.131 26.0511L154.415 24.6727Z" transform="translate(296.87 147.945)" fill="url(#paint29_linear)"/>
<path d="M0.137622 19.4349H0V134.528L31.2408 126.809L32.3418 126.534L61.5182 119.504L75.2806 115.92L87.6668 112.888V104.066V87.8017V84.6315L87.9421 -5.25806e-07L0.137622 19.4349Z" transform="translate(367.058 43.0469)" fill="url(#paint30_linear)"/>
<path d="M0 0L0.412874 96.2098V112.888L31.2408 125.707L56.5637 136.182L70.1885 141.971V26.8781L0 0Z" transform="translate(296.869 35.6094)" fill="url(#paint31_linear)"/>
<path d="M0.137622 19.4349H0V134.528L31.2408 126.809L32.3418 126.534L61.5182 119.504L75.2806 115.92L87.6668 112.888V104.066V87.8017V84.6315L87.9421 -5.25806e-07L0.137622 19.4349Z" transform="translate(367.058 43.0469)" fill="url(#paint32_linear)"/>
<path d="M154.415 24.6727L131.982 16.4025L102.806 5.65129L87.8045 0L62.0687 5.65129L3.02774 18.0566L0 18.6079L70.1885 45.486H70.3261L158.131 26.0511L154.415 24.6727Z" transform="translate(296.869 17)" fill="url(#paint33_linear)"/>
<path d="M154.415 24.6727L131.982 16.4025L102.806 5.65129L87.8045 0L62.0687 5.65129L3.02774 18.0566L0 18.6079L70.1885 45.486H70.3261L158.131 26.0511L154.415 24.6727Z" transform="translate(296.869 17)" fill="url(#paint34_linear)"/>
</g>
<defs>
<filter id="filter0_d" x="42" y="11" width="418.001" height="497.999" filterUnits="userSpaceOnUse" color-interpolation-filters="sRGB">
<feFlood flood-opacity="0" result="BackgroundImageFix"/>
<feColorMatrix in="SourceAlpha" type="matrix" values="0 0 0 0 0 0 0 0 0 0 0 0 0 0 0 0 0 0 255 0"/>
<feOffset dx="-5" dy="4"/>
<feGaussianBlur stdDeviation="5"/>
<feColorMatrix type="matrix" values="0 0 0 0 0 0 0 0 0 0 0 0 0 0 0 0 0 0 0.1 0"/>
<feBlend mode="normal" in2="BackgroundImageFix" result="effect1_dropShadow"/>
<feBlend mode="normal" in="SourceGraphic" in2="effect1_dropShadow" result="shape"/>
</filter>
<linearGradient id="paint0_linear" x2="1" gradientUnits="userSpaceOnUse" gradientTransform="matrix(-80.8439 212.595 136.894 53.7411 28.7182 -100.776)">
<stop offset="0.1768" stop-color="#1D2237"/>
<stop offset="0.3246" stop-color="#47137A"/>
<stop offset="1" stop-color="#913BFE"/>
</linearGradient>
<linearGradient id="paint1_linear" x2="1" gradientUnits="userSpaceOnUse" gradientTransform="matrix(105.698 188.135 91.9753 -53.2276 -77.1241 -21.8054)">
<stop stop-color="#1C2334"/>
<stop offset="0.4491" stop-color="#6759E0"/>
<stop offset="1" stop-color="#4BB2F9"/>
</linearGradient>
<linearGradient id="paint2_linear" x2="1" gradientUnits="userSpaceOnUse" gradientTransform="matrix(98.823 106.768 68.752 -65.6573 -26.5193 60.9466)">
<stop stop-color="#5C1EA0" stop-opacity="0"/>
<stop offset="1" stop-color="#F2C94C" stop-opacity="0.35"/>
</linearGradient>
<linearGradient id="paint3_linear" x2="1" gradientUnits="userSpaceOnUse" gradientTransform="translate(-25.8115 -100.41) scale(245.939 246.317)">
<stop stop-color="#231C4C"/>
<stop offset="1" stop-color="#0143D6"/>
</linearGradient>
<linearGradient id="paint4_linear" x2="1" gradientUnits="userSpaceOnUse" gradientTransform="matrix(-8.25747 57.8913 -201.257 -28.7953 174.258 -9.03454)">
<stop/>
<stop offset="1" stop-color="#0D35A5"/>
</linearGradient>
<linearGradient id="paint5_linear" x2="1" gradientUnits="userSpaceOnUse" gradientTransform="matrix(-80.8439 212.595 136.894 53.7411 28.7182 -100.776)">
<stop offset="0.1768" stop-color="#1D2237"/>
<stop offset="0.3246" stop-color="#47137A"/>
<stop offset="1" stop-color="#913BFE"/>
</linearGradient>
<linearGradient id="paint6_linear" x2="1" gradientUnits="userSpaceOnUse" gradientTransform="matrix(105.698 188.135 91.9753 -53.2276 -77.1241 -21.8054)">
<stop stop-color="#1C2334"/>
<stop offset="0.4491" stop-color="#6759E0"/>
<stop offset="1" stop-color="#4BB2F9"/>
</linearGradient>
<linearGradient id="paint7_linear" x2="1" gradientUnits="userSpaceOnUse" gradientTransform="matrix(98.823 106.768 68.752 -65.6573 -26.5193 60.9466)">
<stop stop-color="#5C1EA0" stop-opacity="0"/>
<stop offset="1" stop-color="#F2C94C" stop-opacity="0.35"/>
</linearGradient>
<linearGradient id="paint8_linear" x2="1" gradientUnits="userSpaceOnUse" gradientTransform="translate(-25.8115 -100.41) scale(245.939 246.317)">
<stop stop-color="#231C4C"/>
<stop offset="1" stop-color="#0143D6"/>
</linearGradient>
<linearGradient id="paint9_linear" x2="1" gradientUnits="userSpaceOnUse" gradientTransform="matrix(-8.25747 57.8913 -201.257 -28.7953 174.258 -9.03454)">
<stop/>
<stop offset="1" stop-color="#0D35A5"/>
</linearGradient>
<linearGradient id="paint10_linear" x2="1" gradientUnits="userSpaceOnUse" gradientTransform="matrix(-80.8439 212.595 136.894 53.7411 28.7182 -100.776)">
<stop offset="0.1768" stop-color="#1D2237"/>
<stop offset="0.3246" stop-color="#47137A"/>
<stop offset="1" stop-color="#913BFE"/>
</linearGradient>
<linearGradient id="paint11_linear" x2="1" gradientUnits="userSpaceOnUse" gradientTransform="matrix(105.698 188.135 91.9753 -53.2276 -77.1241 -21.8054)">
<stop stop-color="#1C2334"/>
<stop offset="0.4491" stop-color="#6759E0"/>
<stop offset="1" stop-color="#4BB2F9"/>
</linearGradient>
<linearGradient id="paint12_linear" x2="1" gradientUnits="userSpaceOnUse" gradientTransform="matrix(98.823 106.768 68.752 -65.6573 -26.5193 60.9466)">
<stop stop-color="#5C1EA0" stop-opacity="0"/>
<stop offset="1" stop-color="#F2C94C" stop-opacity="0.35"/>
</linearGradient>
<linearGradient id="paint13_linear" x2="1" gradientUnits="userSpaceOnUse" gradientTransform="translate(-25.8115 -100.41) scale(245.939 246.317)">
<stop stop-color="#231C4C"/>
<stop offset="1" stop-color="#0143D6"/>
</linearGradient>
<linearGradient id="paint14_linear" x2="1" gradientUnits="userSpaceOnUse" gradientTransform="matrix(-8.25747 57.8913 -201.257 -28.7953 174.258 -9.03454)">
<stop/>
<stop offset="1" stop-color="#0D35A5"/>
</linearGradient>
<linearGradient id="paint15_linear" x2="1" gradientUnits="userSpaceOnUse" gradientTransform="matrix(-28.1186 74.1398 47.6137 18.7416 9.98859 -35.1446)">
<stop offset="0.1768" stop-color="#1D2237"/>
<stop offset="0.3246" stop-color="#47137A"/>
<stop offset="1" stop-color="#913BFE"/>
</linearGradient>
<linearGradient id="paint16_linear" x2="1" gradientUnits="userSpaceOnUse" gradientTransform="matrix(36.7631 65.6097 31.9903 -18.5625 -26.8248 -7.60438)">
<stop stop-color="#1C2334"/>
<stop offset="0.4491" stop-color="#6759E0"/>
<stop offset="1" stop-color="#4BB2F9"/>
</linearGradient>
<linearGradient id="paint17_linear" x2="1" gradientUnits="userSpaceOnUse" gradientTransform="matrix(34.372 37.2341 23.9129 -22.8972 -9.22379 21.2544)">
<stop stop-color="#5C1EA0" stop-opacity="0"/>
<stop offset="1" stop-color="#F2C94C" stop-opacity="0.35"/>
</linearGradient>
<linearGradient id="paint18_linear" x2="1" gradientUnits="userSpaceOnUse" gradientTransform="translate(-8.97759 -35.0167) scale(85.5409 85.9002)">
<stop stop-color="#231C4C"/>
<stop offset="1" stop-color="#0143D6"/>
</linearGradient>
<linearGradient id="paint19_linear" x2="1" gradientUnits="userSpaceOnUse" gradientTransform="matrix(-2.87206 20.1889 -70 -10.042 60.6092 -3.15069)">
<stop/>
<stop offset="1" stop-color="#0D35A5"/>
</linearGradient>
<linearGradient id="paint20_linear" x2="1" gradientUnits="userSpaceOnUse" gradientTransform="matrix(-80.8439 212.595 136.894 53.7411 28.7182 -100.776)">
<stop offset="0.1768" stop-color="#1D2237"/>
<stop offset="0.3246" stop-color="#47137A"/>
<stop offset="1" stop-color="#913BFE"/>
</linearGradient>
<linearGradient id="paint21_linear" x2="1" gradientUnits="userSpaceOnUse" gradientTransform="matrix(105.698 188.135 91.9753 -53.2276 -77.1241 -21.8054)">
<stop stop-color="#1C2334"/>
<stop offset="0.4491" stop-color="#6759E0"/>
<stop offset="1" stop-color="#4BB2F9"/>
</linearGradient>
<linearGradient id="paint22_linear" x2="1" gradientUnits="userSpaceOnUse" gradientTransform="matrix(98.823 106.768 68.752 -65.6573 -26.5193 60.9466)">
<stop stop-color="#5C1EA0" stop-opacity="0"/>
<stop offset="1" stop-color="#F2C94C" stop-opacity="0.35"/>
</linearGradient>
<linearGradient id="paint23_linear" x2="1" gradientUnits="userSpaceOnUse" gradientTransform="translate(-25.8115 -100.41) scale(245.939 246.317)">
<stop stop-color="#231C4C"/>
<stop offset="1" stop-color="#0143D6"/>
</linearGradient>
<linearGradient id="paint24_linear" x2="1" gradientUnits="userSpaceOnUse" gradientTransform="matrix(-8.25747 57.8913 -201.257 -28.7953 174.258 -9.03454)">
<stop/>
<stop offset="1" stop-color="#0D35A5"/>
</linearGradient>
<linearGradient id="paint25_linear" x2="1" gradientUnits="userSpaceOnUse" gradientTransform="matrix(-80.8439 212.595 136.894 53.7411 28.7182 -100.776)">
<stop offset="0.1768" stop-color="#1D2237"/>
<stop offset="0.3246" stop-color="#47137A"/>
<stop offset="1" stop-color="#913BFE"/>
</linearGradient>
<linearGradient id="paint26_linear" x2="1" gradientUnits="userSpaceOnUse" gradientTransform="matrix(105.698 188.135 91.9753 -53.2276 -77.1241 -21.8054)">
<stop stop-color="#1C2334"/>
<stop offset="0.4491" stop-color="#6759E0"/>
<stop offset="1" stop-color="#4BB2F9"/>
</linearGradient>
<linearGradient id="paint27_linear" x2="1" gradientUnits="userSpaceOnUse" gradientTransform="matrix(98.823 106.768 68.752 -65.6573 -26.5193 60.9466)">
<stop stop-color="#5C1EA0" stop-opacity="0"/>
<stop offset="1" stop-color="#F2C94C" stop-opacity="0.35"/>
</linearGradient>
<linearGradient id="paint28_linear" x2="1" gradientUnits="userSpaceOnUse" gradientTransform="translate(-25.8115 -100.41) scale(245.939 246.317)">
<stop stop-color="#231C4C"/>
<stop offset="1" stop-color="#0143D6"/>
</linearGradient>
<linearGradient id="paint29_linear" x2="1" gradientUnits="userSpaceOnUse" gradientTransform="matrix(-8.25747 57.8913 -201.257 -28.7953 174.258 -9.03454)">
<stop/>
<stop offset="1" stop-color="#0D35A5"/>
</linearGradient>
<linearGradient id="paint30_linear" x2="1" gradientUnits="userSpaceOnUse" gradientTransform="matrix(-80.8439 212.595 136.894 53.7411 28.7182 -100.776)">
<stop offset="0.1768" stop-color="#1D2237"/>
<stop offset="0.3246" stop-color="#47137A"/>
<stop offset="1" stop-color="#913BFE"/>
</linearGradient>
<linearGradient id="paint31_linear" x2="1" gradientUnits="userSpaceOnUse" gradientTransform="matrix(105.698 188.135 91.9753 -53.2276 -77.1241 -21.8054)">
<stop stop-color="#1C2334"/>
<stop offset="0.4491" stop-color="#6759E0"/>
<stop offset="1" stop-color="#4BB2F9"/>
</linearGradient>
<linearGradient id="paint32_linear" x2="1" gradientUnits="userSpaceOnUse" gradientTransform="matrix(98.823 106.768 68.752 -65.6573 -26.5193 60.9466)">
<stop stop-color="#5C1EA0" stop-opacity="0"/>
<stop offset="1" stop-color="#F2C94C" stop-opacity="0.35"/>
</linearGradient>
<linearGradient id="paint33_linear" x2="1" gradientUnits="userSpaceOnUse" gradientTransform="translate(-25.8115 -100.41) scale(245.939 246.317)">
<stop stop-color="#231C4C"/>
<stop offset="1" stop-color="#0143D6"/>
</linearGradient>
<linearGradient id="paint34_linear" x2="1" gradientUnits="userSpaceOnUse" gradientTransform="matrix(-8.25747 57.8913 -201.257 -28.7953 174.258 -9.03454)">
<stop/>
<stop offset="1" stop-color="#0D35A5"/>
</linearGradient>
</defs>
</svg>
