<svg width="2048" height="2048" viewBox="0 0 2048 2048" version="1.1" xmlns="http://www.w3.org/2000/svg" xmlns:xlink="http://www.w3.org/1999/xlink">
<g id="Canvas" fill="none">
<g id="Logo_512px" clip-path="url(#clip0)">
<g id="Group 3.2" filter="url(#filter0_d)">
<g id="Group 2.1">
<g id="Group">
<path id="Vector" fill-rule="evenodd" clip-rule="evenodd" d="M 31.6098 126.786L 0.433004 114.107L 0.433004 97.4939L 0 0L 71.0137 27.1059L 71.0137 142.962L 57.1574 137.278L 31.6098 126.786Z" transform="translate(228.004 1392.14) scale(4)" fill="url(#paint0_linear)"/>
<path id="Vector_2" fill-rule="evenodd" clip-rule="evenodd" d="M 88.7671 0L 103.922 5.68351L 133.367 16.6133L 159.781 26.2315L 71.0137 45.9052L 0 18.7993L 62.7865 5.68351L 88.7671 0Z" transform="translate(228.006 1316.88) scale(4)" fill="url(#paint1_linear)"/>
<g id="Vector_3" transform="translate(512.078 1421.88) scale(4)">
<path fill-rule="evenodd" clip-rule="evenodd" d="M 88.3342 114.107L 75.7768 117.168L 61.9205 120.665L 32.4758 127.66L 31.1768 127.66L 0 135.53L 0 19.6737L 88.7672 0L 88.3342 86.1269L 88.3342 89.1873L 88.3342 105.363L 88.3342 114.107Z" fill="url(#paint2_linear)"/>
<path fill-rule="evenodd" clip-rule="evenodd" d="M 88.3342 114.107L 75.7768 117.168L 61.9205 120.665L 32.4758 127.66L 31.1768 127.66L 0 135.53L 0 19.6737L 88.7672 0L 88.3342 86.1269L 88.3342 89.1873L 88.3342 105.363L 88.3342 114.107Z" fill="url(#paint3_linear)"/>
</g>
</g>
<g id="Group_2">
<path id="Vector_4" fill-rule="evenodd" clip-rule="evenodd" d="M 31.6098 126.786L 0.433004 114.107L 0.433004 97.4939L 0 0L 71.0137 27.1059L 71.0137 142.962L 57.1574 137.278L 31.6098 126.786Z" transform="translate(228.002 871.344) scale(4)" fill="url(#paint4_linear)"/>
<path id="Vector_5" fill-rule="evenodd" clip-rule="evenodd" d="M 88.7671 0L 103.922 5.68351L 133.367 16.6133L 159.781 26.2315L 71.0137 45.9052L 0 18.7993L 62.7865 5.68351L 88.7671 0Z" transform="translate(228.002 796.078) scale(4)" fill="url(#paint5_linear)"/>
<g id="Vector_6" transform="translate(512.076 901.078) scale(4)">
<path fill-rule="evenodd" clip-rule="evenodd" d="M 88.3342 114.107L 75.7768 117.168L 61.9205 120.665L 32.4758 127.66L 31.1768 127.66L 0 135.53L 0 19.6737L 88.7672 0L 88.3342 86.1269L 88.3342 89.1873L 88.3342 105.363L 88.3342 114.107Z" fill="url(#paint6_linear)"/>
<path fill-rule="evenodd" clip-rule="evenodd" d="M 88.3342 114.107L 75.7768 117.168L 61.9205 120.665L 32.4758 127.66L 31.1768 127.66L 0 135.53L 0 19.6737L 88.7672 0L 88.3342 86.1269L 88.3342 89.1873L 88.3342 105.363L 88.3342 114.107Z" fill="url(#paint7_linear)"/>
</g>
</g>
<g id="Group_3">
<path id="Vector_7" fill-rule="evenodd" clip-rule="evenodd" d="M 31.6098 126.786L 0.433004 114.107L 0.433004 97.4939L 0 0L 71.0137 27.1059L 71.0137 142.962L 57.1574 137.278L 31.6098 126.786Z" transform="translate(228 352.578) scale(4)" fill="url(#paint8_linear)"/>
<path id="Vector_8" fill-rule="evenodd" clip-rule="evenodd" d="M 88.7671 0L 103.922 5.68351L 133.367 16.6133L 159.781 26.2315L 71.0137 45.9052L 0 18.7993L 62.7865 5.68351L 88.7671 0Z" transform="translate(228 277.328) scale(4)" fill="url(#paint9_linear)"/>
<g id="Vector_9" transform="translate(512.07 382.328) scale(4)">
<path fill-rule="evenodd" clip-rule="evenodd" d="M 88.3342 114.107L 75.7768 117.168L 61.9205 120.665L 32.4758 127.66L 31.1768 127.66L 0 135.53L 0 19.6737L 88.7672 0L 88.3342 86.1269L 88.3342 89.1873L 88.3342 105.363L 88.3342 114.107Z" fill="url(#paint10_linear)"/>
<path fill-rule="evenodd" clip-rule="evenodd" d="M 88.3342 114.107L 75.7768 117.168L 61.9205 120.665L 32.4758 127.66L 31.1768 127.66L 0 135.53L 0 19.6737L 88.7672 0L 88.3342 86.1269L 88.3342 89.1873L 88.3342 105.363L 88.3342 114.107Z" fill="url(#paint11_linear)"/>
</g>
</g>
</g>
<g id="Group 2.2">
<g id="Group_4">
<path id="Vector_10" fill-rule="evenodd" clip-rule="evenodd" d="M 31.6098 126.786L 0.433004 114.107L 0.433004 97.4939L 0 0L 71.0137 27.1059L 71.0137 142.962L 57.1574 137.278L 31.6098 126.786Z" transform="translate(1176.86 1194.83) scale(4)" fill="url(#paint12_linear)"/>
<path id="Vector_11" fill-rule="evenodd" clip-rule="evenodd" d="M 88.7671 0L 103.922 5.68351L 133.367 16.6133L 159.781 26.2315L 71.0137 45.9052L 0 18.7993L 62.7865 5.68351L 88.7671 0Z" transform="translate(1176.86 1119.61) scale(4)" fill="url(#paint13_linear)"/>
<g id="Vector_12" transform="translate(1460.93 1224.61) scale(4)">
<path fill-rule="evenodd" clip-rule="evenodd" d="M 88.3342 114.107L 75.7768 117.168L 61.9205 120.665L 32.4758 127.66L 31.1768 127.66L 0 135.53L 0 19.6737L 88.7672 0L 88.3342 86.1269L 88.3342 89.1873L 88.3342 105.363L 88.3342 114.107Z" fill="url(#paint14_linear)"/>
<path fill-rule="evenodd" clip-rule="evenodd" d="M 88.3342 114.107L 75.7768 117.168L 61.9205 120.665L 32.4758 127.66L 31.1768 127.66L 0 135.53L 0 19.6737L 88.7672 0L 88.3342 86.1269L 88.3342 89.1873L 88.3342 105.363L 88.3342 114.107Z" fill="url(#paint15_linear)"/>
</g>
</g>
<g id="Group_5">
<path id="Vector_13" fill-rule="evenodd" clip-rule="evenodd" d="M 31.6098 126.786L 0.433004 114.107L 0.433004 97.4939L 0 0L 71.0137 27.1059L 71.0137 142.962L 57.1574 137.278L 31.6098 126.786Z" transform="translate(1176.86 674.031) scale(4)" fill="url(#paint16_linear)"/>
<path id="Vector_14" fill-rule="evenodd" clip-rule="evenodd" d="M 88.7671 0L 103.922 5.68351L 133.367 16.6133L 159.781 26.2315L 71.0137 45.9052L 0 18.7993L 62.7865 5.68351L 88.7671 0Z" transform="translate(1176.86 598.812) scale(4)" fill="url(#paint17_linear)"/>
<g id="Vector_15" transform="translate(1460.93 703.812) scale(4)">
<path fill-rule="evenodd" clip-rule="evenodd" d="M 88.3342 114.107L 75.7768 117.168L 61.9205 120.665L 32.4758 127.66L 31.1768 127.66L 0 135.53L 0 19.6737L 88.7672 0L 88.3342 86.1269L 88.3342 89.1873L 88.3342 105.363L 88.3342 114.107Z" fill="url(#paint18_linear)"/>
<path fill-rule="evenodd" clip-rule="evenodd" d="M 88.3342 114.107L 75.7768 117.168L 61.9205 120.665L 32.4758 127.66L 31.1768 127.66L 0 135.53L 0 19.6737L 88.7672 0L 88.3342 86.1269L 88.3342 89.1873L 88.3342 105.363L 88.3342 114.107Z" fill="url(#paint19_linear)"/>
</g>
</g>
<g id="Group_6">
<path id="Vector_16" fill-rule="evenodd" clip-rule="evenodd" d="M 31.6098 126.786L 0.433004 114.107L 0.433004 97.4939L 0 0L 71.0137 27.1059L 71.0137 142.962L 57.1574 137.278L 31.6098 126.786Z" transform="translate(1176.86 155.25) scale(4)" fill="url(#paint20_linear)"/>
<path id="Vector_17" fill-rule="evenodd" clip-rule="evenodd" d="M 88.7671 0L 103.922 5.68351L 133.367 16.6133L 159.781 26.2315L 71.0137 45.9052L 0 18.7993L 62.7865 5.68351L 88.7671 0Z" transform="translate(1176.86 80) scale(4)" fill="url(#paint21_linear)"/>
<g id="Vector_18" transform="translate(1460.93 185) scale(4)">
<path fill-rule="evenodd" clip-rule="evenodd" d="M 88.3342 114.107L 75.7768 117.168L 61.9205 120.665L 32.4758 127.66L 31.1768 127.66L 0 135.53L 0 19.6737L 88.7672 0L 88.3342 86.1269L 88.3342 89.1873L 88.3342 105.363L 88.3342 114.107Z" fill="url(#paint22_linear)"/>
<path fill-rule="evenodd" clip-rule="evenodd" d="M 88.3342 114.107L 75.7768 117.168L 61.9205 120.665L 32.4758 127.66L 31.1768 127.66L 0 135.53L 0 19.6737L 88.7672 0L 88.3342 86.1269L 88.3342 89.1873L 88.3342 105.363L 88.3342 114.107Z" fill="url(#paint23_linear)"/>
</g>
</g>
<g id="Group_7">
<path id="Vector_19" fill-rule="evenodd" clip-rule="evenodd" d="M 10.747 42.5152L 0.147216 38.2637L 0.147216 32.6927L 0 0L 24.1438 9.08945L 24.1438 47.9395L 19.4329 46.0337L 10.747 42.5152Z" transform="translate(916.102 980.594) scale(4)" fill="url(#paint24_linear)"/>
<path id="Vector_20" fill-rule="evenodd" clip-rule="evenodd" d="M 30.1798 0L 35.3325 1.90586L 45.3433 5.57096L 54.3236 8.79625L 24.1438 15.3934L 0 6.30398L 21.3467 1.90586L 30.1798 0Z" transform="translate(916.105 955.312) scale(4)" fill="url(#paint25_linear)"/>
<g id="Vector_21" transform="translate(1012.68 990.516) scale(4)">
<path fill-rule="evenodd" clip-rule="evenodd" d="M 30.0326 38.2637L 25.7633 39.2899L 21.0523 40.4627L 11.0414 42.8084L 10.5997 42.8084L 0 45.4473L 0 6.59719L 30.1798 0L 30.0326 28.881L 30.0326 29.9072L 30.0326 35.3316L 30.0326 38.2637Z" fill="url(#paint26_linear)"/>
<path fill-rule="evenodd" clip-rule="evenodd" d="M 30.0326 38.2637L 25.7633 39.2899L 21.0523 40.4627L 11.0414 42.8084L 10.5997 42.8084L 0 45.4473L 0 6.59719L 30.1798 0L 30.0326 28.881L 30.0326 29.9072L 30.0326 35.3316L 30.0326 38.2637Z" fill="url(#paint27_linear)"/>
</g>
</g>
</g>
</g>
</g>
</g>
<defs>
<filter id="filter0_d" x="48" y="-64" width="1908" height="2203.99" filterUnits="userSpaceOnUse" color-interpolation-filters="sRGB">
<feFlood flood-opacity="0" result="BackgroundImageFix"/>
<feColorMatrix in="SourceAlpha" type="matrix" values="0 0 0 0 0 0 0 0 0 0 0 0 0 0 0 0 0 0 255 0"/>
<feOffset dx="-5" dy="4"/>
<feGaussianBlur stdDeviation="20"/>
<feColorMatrix type="matrix" values="0 0 0 0 0.105882 0 0 0 0 0.141176 0 0 0 0 0.192157 0 0 0 0.1 0"/>
<feBlend mode="normal" in2="BackgroundImageFix" result="effect1_dropShadow"/>
<feBlend mode="normal" in="SourceGraphic" in2="effect1_dropShadow" result="shape"/>
</filter>
<linearGradient id="paint0_linear" x2="1" gradientUnits="userSpaceOnUse" gradientTransform="matrix(106.838 187.167 -92.9673 52.9538 -2.40817 -62.9694)">
<stop stop-color="#1C2334"/>
<stop offset="0.449069" stop-color="#6759E0"/>
<stop offset="1" stop-color="#4BB2F9"/>
</linearGradient>
<linearGradient id="paint1_linear" x2="1" gradientUnits="userSpaceOnUse" gradientTransform="matrix(-13.5811 59.6764 -207.726 -47.2064 177.201 23.1016)">
<stop stop-color="#231C4C"/>
<stop offset="1" stop-color="#0143D6"/>
</linearGradient>
<linearGradient id="paint2_linear" x2="1" gradientUnits="userSpaceOnUse" gradientTransform="matrix(-69.7161 209.369 -137.128 -45.5671 156.898 -51.8897)">
<stop offset="0.176754" stop-color="#1D2237"/>
<stop offset="0.323267" stop-color="#47137A"/>
<stop offset="1" stop-color="#913BFE"/>
</linearGradient>
<linearGradient id="paint3_linear" x2="1" gradientUnits="userSpaceOnUse" gradientTransform="matrix(103.216 123.874 -81.1329 67.4214 40.1712 -14.751)">
<stop stop-color="#5F20A5" stop-opacity="0"/>
<stop offset="1" stop-color="#F2C94C" stop-opacity="0.35"/>
</linearGradient>
<linearGradient id="paint4_linear" x2="1" gradientUnits="userSpaceOnUse" gradientTransform="matrix(106.838 187.167 -92.9673 52.9538 -2.40817 -62.9694)">
<stop stop-color="#1C2334"/>
<stop offset="0.449069" stop-color="#6759E0"/>
<stop offset="1" stop-color="#4BB2F9"/>
</linearGradient>
<linearGradient id="paint5_linear" x2="1" gradientUnits="userSpaceOnUse" gradientTransform="matrix(-13.5811 59.6764 -207.726 -47.2064 177.201 23.1016)">
<stop stop-color="#231C4C"/>
<stop offset="1" stop-color="#0143D6"/>
</linearGradient>
<linearGradient id="paint6_linear" x2="1" gradientUnits="userSpaceOnUse" gradientTransform="matrix(-75.1486 209.369 -137.127 -49.1158 156.898 -50.1153)">
<stop offset="0.176754" stop-color="#1D2237"/>
<stop offset="0.319251" stop-color="#47137A"/>
<stop offset="1" stop-color="#913BFE"/>
</linearGradient>
<linearGradient id="paint7_linear" x2="1" gradientUnits="userSpaceOnUse" gradientTransform="matrix(109.554 116.64 -76.3953 71.5613 37.8024 -10.4916)">
<stop stop-color="#5D1FA2" stop-opacity="0"/>
<stop offset="1" stop-color="#F2C94C" stop-opacity="0.35"/>
</linearGradient>
<linearGradient id="paint8_linear" x2="1" gradientUnits="userSpaceOnUse" gradientTransform="matrix(106.838 187.167 -92.9673 52.9538 -2.40817 -62.9694)">
<stop stop-color="#1C2334"/>
<stop offset="0.449069" stop-color="#6759E0"/>
<stop offset="1" stop-color="#4BB2F9"/>
</linearGradient>
<linearGradient id="paint9_linear" x2="1" gradientUnits="userSpaceOnUse" gradientTransform="matrix(-13.5811 59.6764 -207.726 -47.2064 177.201 23.1016)">
<stop stop-color="#231C4C"/>
<stop offset="1" stop-color="#0143D6"/>
</linearGradient>
<linearGradient id="paint10_linear" x2="1" gradientUnits="userSpaceOnUse" gradientTransform="matrix(-81.4864 210.676 -137.982 -53.2561 157.326 -48.0452)">
<stop offset="0.176754" stop-color="#1D2237"/>
<stop offset="0.324583" stop-color="#47137A"/>
<stop offset="1" stop-color="#913BFE"/>
</linearGradient>
<linearGradient id="paint11_linear" x2="1" gradientUnits="userSpaceOnUse" gradientTransform="matrix(99.5945 105.79 -69.2887 65.0557 42.3978 -2.31527)">
<stop stop-color="#5C1EA0" stop-opacity="0"/>
<stop offset="1" stop-color="#F2C94C" stop-opacity="0.35"/>
</linearGradient>
<linearGradient id="paint12_linear" x2="1" gradientUnits="userSpaceOnUse" gradientTransform="matrix(106.838 187.167 -92.9673 52.9538 -2.40817 -62.9694)">
<stop stop-color="#1C2334"/>
<stop offset="0.449069" stop-color="#6759E0"/>
<stop offset="1" stop-color="#4BB2F9"/>
</linearGradient>
<linearGradient id="paint13_linear" x2="1" gradientUnits="userSpaceOnUse" gradientTransform="matrix(-13.5811 59.6764 -207.726 -47.2064 177.201 23.1016)">
<stop stop-color="#231C4C"/>
<stop offset="1" stop-color="#0143D6"/>
</linearGradient>
<linearGradient id="paint14_linear" x2="1" gradientUnits="userSpaceOnUse" gradientTransform="matrix(-69.7161 209.369 -137.128 -45.5671 156.898 -51.8897)">
<stop offset="0.176754" stop-color="#1D2237"/>
<stop offset="0.323267" stop-color="#47137A"/>
<stop offset="1" stop-color="#913BFE"/>
</linearGradient>
<linearGradient id="paint15_linear" x2="1" gradientUnits="userSpaceOnUse" gradientTransform="matrix(104.121 113.024 -74.0264 68.0128 41.145 -18.1619)">
<stop stop-color="#5D1FA3" stop-opacity="0"/>
<stop offset="1" stop-color="#F2C94C" stop-opacity="0.35"/>
</linearGradient>
<linearGradient id="paint16_linear" x2="1" gradientUnits="userSpaceOnUse" gradientTransform="matrix(106.838 187.167 -92.9673 52.9538 -2.40817 -62.9694)">
<stop stop-color="#1C2334"/>
<stop offset="0.449069" stop-color="#6759E0"/>
<stop offset="1" stop-color="#4BB2F9"/>
</linearGradient>
<linearGradient id="paint17_linear" x2="1" gradientUnits="userSpaceOnUse" gradientTransform="matrix(-13.5811 59.6764 -207.726 -47.2064 177.201 23.1016)">
<stop stop-color="#231C4C"/>
<stop offset="1" stop-color="#0143D6"/>
</linearGradient>
<linearGradient id="paint18_linear" x2="1" gradientUnits="userSpaceOnUse" gradientTransform="matrix(-75.1486 209.369 -137.127 -49.1158 156.898 -50.1153)">
<stop offset="0.176754" stop-color="#1D2237"/>
<stop offset="0.319251" stop-color="#47137A"/>
<stop offset="1" stop-color="#913BFE"/>
</linearGradient>
<linearGradient id="paint19_linear" x2="1" gradientUnits="userSpaceOnUse" gradientTransform="matrix(100.5 115.736 -75.803 65.6472 37.5063 -13.3623)">
<stop stop-color="#5D1FA3" stop-opacity="0"/>
<stop offset="1" stop-color="#F2C94C" stop-opacity="0.35"/>
</linearGradient>
<linearGradient id="paint20_linear" x2="1" gradientUnits="userSpaceOnUse" gradientTransform="matrix(106.838 187.167 -92.9673 52.9538 -2.40817 -62.9694)">
<stop stop-color="#1C2334"/>
<stop offset="0.449069" stop-color="#6759E0"/>
<stop offset="1" stop-color="#4BB2F9"/>
</linearGradient>
<linearGradient id="paint21_linear" x2="1" gradientUnits="userSpaceOnUse" gradientTransform="matrix(-13.5811 59.6764 -207.726 -47.2064 177.201 23.1016)">
<stop stop-color="#231C4C"/>
<stop offset="1" stop-color="#0143D6"/>
</linearGradient>
<linearGradient id="paint22_linear" x2="1" gradientUnits="userSpaceOnUse" gradientTransform="matrix(-81.4864 210.676 -137.982 -53.2561 157.326 -48.0452)">
<stop offset="0.176754" stop-color="#1D2237"/>
<stop offset="0.324583" stop-color="#47137A"/>
<stop offset="1" stop-color="#913BFE"/>
</linearGradient>
<linearGradient id="paint23_linear" x2="1" gradientUnits="userSpaceOnUse" gradientTransform="matrix(109.554 116.64 -76.3953 71.5613 37.8024 -17.7251)">
<stop stop-color="#5F20A6" stop-opacity="0"/>
<stop offset="1" stop-color="#F2C94C" stop-opacity="0.35"/>
</linearGradient>
<linearGradient id="paint24_linear" x2="1" gradientUnits="userSpaceOnUse" gradientTransform="matrix(36.3236 62.7628 -31.6078 17.7571 -0.81875 -21.1156)">
<stop stop-color="#1C2334"/>
<stop offset="0.449069" stop-color="#6759E0"/>
<stop offset="1" stop-color="#4BB2F9"/>
</linearGradient>
<linearGradient id="paint25_linear" x2="1" gradientUnits="userSpaceOnUse" gradientTransform="matrix(-4.61741 20.0113 -70.6246 -15.8297 60.2463 7.74669)">
<stop stop-color="#231C4C"/>
<stop offset="1" stop-color="#0143D6"/>
</linearGradient>
<linearGradient id="paint26_linear" x2="1" gradientUnits="userSpaceOnUse" gradientTransform="matrix(-27.7044 70.6461 -46.9124 -17.8584 53.4889 -16.111)">
<stop offset="0.176754" stop-color="#1D2237"/>
<stop offset="0.324583" stop-color="#47137A"/>
<stop offset="1" stop-color="#913BFE"/>
</linearGradient>
<linearGradient id="paint27_linear" x2="1" gradientUnits="userSpaceOnUse" gradientTransform="matrix(37.1216 40.6885 -27.0197 24.5848 12.9068 -7.53131)">
<stop stop-color="#5E20A4" stop-opacity="0"/>
<stop offset="1" stop-color="#F2C94C" stop-opacity="0.35"/>
</linearGradient>
<clipPath id="clip0">
<rect width="512" height="512" fill="white" transform="scale(4)"/>
</clipPath>
</defs>
</svg>
