<svg fill="none" height="104" viewBox="0 0 104 104" width="104" xmlns="http://www.w3.org/2000/svg"><ellipse cx="52.143161" cy="52.118667" fill="#eb5757" rx="51.6561" ry="51.7173"/><path d="m0 0h39.8304" stroke="#fff" stroke-linecap="round" stroke-linejoin="round" stroke-width="5.8384" transform="matrix(0 -1 1 0 34.6772 74.59)"/><g fill="#fff"><path d="m10.308 2.5065c.8069-1.387 2.5821-1.862646 3.9745-1.06494l14.6341 8.38404c1.4276.8179 1.1286 2.9589-.4685 3.3543l-24.26569 6.0077c-1.56448.3873-2.82609-1.2956-2.01557-2.6887z" transform="matrix(.869335 -.494223 .5058 .862651 31 37.2418)"/><path d="m10.308 2.5065c.8069-1.387 2.5821-1.862646 3.9745-1.06494l14.6341 8.38404c1.4276.8179 1.1286 2.9589-.4685 3.3543l-24.26569 6.0077c-1.56448.3873-2.82609-1.2956-2.01557-2.6887z" transform="matrix(.869335 .494223 .5058 -.862651 31 71.7582)"/><path d="m17.278 1.44161c.8459-.80694 2.1765-.80694 3.0224 0l13.9815 13.33739c1.1912 1.1363.3869 3.1447-1.2593 3.1447h-28.46673c-1.64627 0-2.45055-2.0084-1.25935-3.1447z" transform="matrix(-1 0 0 -1 86.965 73.8658)"/><path d="m17.278 1.44161c.8459-.80694 2.1765-.80694 3.0224 0l13.9815 13.33739c1.1912 1.1363.3869 3.1447-1.2593 3.1447h-28.46673c-1.64627 0-2.45055-2.0084-1.25935-3.1447z" transform="matrix(-1 0 0 1 87 34.7595)"/></g></svg>