<svg fill="none" height="104" viewBox="0 0 104 104" width="104" xmlns="http://www.w3.org/2000/svg"><ellipse cx="51.6561" cy="51.7173" fill="#4a4a4a" rx="51.6561" ry="51.7173"/><path d="m23.2372 1.66859c.6043-.826062 1.8414-.810657 2.4253.02998 8.7363 12.57833 14.413 23.60193 21.7794 43.86123.7414 2.0389-.7753 4.1869-2.9448 4.1869h-40.11426c-2.1518 0-3.667094-2.1161-2.96107-4.1488 7.01779-20.2046 12.19563-30.7796 21.81543-43.92931z" fill="#fff" transform="matrix(1 0 -.00136768 .999999 27.3738 22.421)"/><ellipse cx="45.52029" cy="31.23158" fill="#4a4a4a" rx="3.76859" ry="3.77598"/><ellipse cx="58.08229" cy="31.23158" fill="#4a4a4a" rx="3.76859" ry="3.77598"/><g stroke="#4a4a4a" stroke-linecap="round" stroke-linejoin="round" stroke-width="5.60321"><path d="m0 0h11.2105" transform="matrix(0 -1 1 0 43.4089 76.3716)"/><path d="m0 0h16.1151" transform="matrix(0 -1 1 0 51.1105 77.7729)"/><path d="m0 0h16.1151" transform="matrix(0 -1 1 0 66.5138 81.2761)"/><path d="m0 0h11.2105" transform="matrix(0 -1 1 0 35.7073 80.5754)"/><path d="m0 0h18.9177" transform="matrix(0 -1 1 0 58.8121 77.0721)"/></g><path d="m-2.80161 36.4341c0 1.5473 1.25433 2.8016 2.80161 2.8016s2.80161-1.2543 2.80161-2.8016zm58.81231 0c0 1.5473 1.2544 2.8016 2.8017 2.8016 1.5472 0 2.8016-1.2543 2.8016-2.8016zm-53.20909 0v-7.0279h-5.60322v7.0279zm53.20909-7.0279v7.0279h5.6033v-7.0279zm-26.6045-26.60459c14.6933 0 26.6045 11.91129 26.6045 26.60459h5.6033c0-17.7879-14.42-32.20781-32.2078-32.20781zm0-5.60322c-17.7879 0-32.20781 14.41991-32.20781 32.20781h5.60322c0-14.6933 11.91129-26.60459 26.60459-26.60459z" fill="#4a4a4a" transform="translate(22.4047 46.2433)"/></svg>