<svg height="104" viewBox="0 0 104 104" width="104" xmlns="http://www.w3.org/2000/svg"><g fill="none" fill-rule="nonzero"><ellipse cx="51.914401" cy="51.7173" fill="#f65cc9" rx="51.6561" ry="51.7173"/><g fill="#fff" transform="translate(17 15)"><path d="m23.5254877 22.0012869c-.571318-.0190462-1.199077.1724609-1.9063344.632108-4.5264228 2.9417437 1.6340009 7.9898453 1.6340009 7.9898453-4.5303871 12.0253549 1.474954 25.574876-14.29588312 17.5597463-15.77083713-8.0151297-6.63621742 24.7209992-3.13367784 16.4729494s12.67631686 1.8713258 17.70189446 0c5.0255776-1.8713257 1.5002047-7.2219399 4.2583056-10.9228265 2.758101-3.7008867 7.4059247 1.2484386 8.6403991 1.6687652 1.2344951.4202456 4.9471307 7.9932435 12.3540377 9.2540613 7.4068857 1.2607369 8.2735178-4.1262215 8.2195201-8.8242279-.0358466-3.1187866-6.2562479-7.0715819-9.4573996-11.8583464-3.4595671-3.7893195-2.122288-8.5604676-8.6403991-13.7799548-2.7855974-2.2306135-11.1161582-2.0985986-11.1161582-2.0985986s-1.1731865-5.9906752-4.2583056-6.0935213zm10.0515818 13.8558077c1.251903 0 2.2529407 1.0223353 2.2529407 2.3008732s-1.0010377 2.3261575-2.2529407 2.3261575-2.2776983-1.0476196-2.2776983-2.3261575 1.0257953-2.3008732 2.2776983-2.3008732z"/><path d="m8.68232125 31.156109-.41727133-2.2560338-2.26504992-.4156102 2.26504992-.4156104.41727133-2.2560337.41727133 2.2560337 2.26505022.4156102-2.26505022.4156104zm18.88032165-19.2830406-.4172714-2.25603378-2.2650499-.41561021 2.2650499-.41561037.4172714-2.2560337.4172713 2.2560337 2.2650502.41561023-2.2650502.41561035zm-14.5906226 8.4890267-.6148334-3.3241797-3.33746463-.6123858 3.33746463-.612386.6148334-3.3241796.6148333 3.3241796 3.337465.6123858-3.337465.612386zm5.0234642-10.0069244-.7245901-3.91759407-3.9332505-.72170555 3.9332505-.72170582.7245901-3.91759392.7245901 3.91759392 3.933251.72170559-3.933251.72170578zm28.4016203-10.3490163c.0448324-.00856952.0859296-.00783397.12347 0 .340427.07104052.2864882.82463958-.024694 2.04144268-.6404152.03262861-1.335467.05071703-2.0989895.0245957.8985493-1.21716932 1.5934683-1.98829086 2.0002135-2.06603838zm-3.630017 4.40262939c1.0626153.08239424 2.0473746.13647526 2.9632792.12297848-.3226355.92848607-.7007389 1.95820723-1.1359237 3.07446186-1.074455.12295408-2.3619074.15946039-3.876957.07378709.729802-1.19766025 1.4066876-2.28669631 2.0496015-3.27122743zm-3.4571591 5.60781841c1.585062.1378949 2.9955276.1650218 4.2720609.0983828-.4694506 1.1480869-.9350561 2.2931546-1.4569457 3.5171844-1.296614.1857884-2.9644961.1947806-4.9634926.0491914.7294068-1.2751589 1.441241-2.468642 2.1483774-3.6647586zm-3.4324651 5.9767539c1.935377.197832 3.6424383.288256 5.1363507.1967656-.492147 1.1296688-.9577919 2.2482086-1.4569457 3.3696102-1.4409352.2234855-3.3612207.2294097-5.7043124.0245957.6568737-1.1858935 1.346921-2.3884144 2.0249074-3.5909715zm-3.3089951 5.9029668c2.2345283.2522841 4.1778476.3349477 5.8524765.2213612-2.9649379 6.5707569-5.5808425 12.1010819-5.5808425 12.1010819l-6.3216623-1.0822105s2.673171-5.0831297 6.0500283-11.2402326zm20.5661835 5.0676704-1.2370837-6.7703984-6.71519-1.2472538 6.71519-1.2472542 1.2370837-6.7703981 1.2370837 6.7703981 6.7151908 1.2472538-6.7151908 1.2472542zm9.4871261-15.2911062-.5965531-3.26485786-3.238235-.60145742 3.238235-.60145764.5965531-3.26485771.5965531 3.26485771 3.2382354.60145745-3.2382354.60145761zm-1.8115217 21.9932373-.5965531-3.2648579-3.238235-.6014574 3.238235-.6014577.5965531-3.2648577.5965531 3.2648577 3.2382354.6014575-3.2382354.6014576zm7.1897245-14.8645292-.419855-2.2978122-2.279075-.4233067 2.279075-.4233069.419855-2.2978121.4198551 2.2978121 2.2790753.4233068-2.2790753.4233068zm.3010888 27.1984048-.4198551-2.2978122-2.279075-.4233067 2.279075-.4233069.4198551-2.2978121.419855 2.2978121 2.2790753.4233068-2.2790753.4233068z"/></g></g></svg>