<svg fill="none" height="104" viewBox="0 0 104 104" width="104" xmlns="http://www.w3.org/2000/svg"><ellipse cx="52.28525" cy="51.7173" fill="#eb5757" rx="51.6561" ry="51.7173"/><rect fill="#fff" height="53.0159" rx="3.34666" transform="matrix(.965849 -.259105 .258533 .966002 27.0125 31.2513)" width="38.4668"/><g fill="#eb5757"><path d="m13.9372 3.65339c0-2.01775-1.6851-3.65339001-3.7637-3.65339001-1.35734 0-2.54271.69972701-3.20492 1.74545001-.66213-1.045723-1.84801-1.74545001-3.2053-1.74545001-2.07866 0-3.76328 1.63564001-3.76328 3.65339001 0 1.09854.50149 2.08136 1.29187 2.75064l5.33326 5.17717c.09108.0884.21461.1381.34345.1381s.25237-.0497.34345-.1381l5.33327-5.17717c.7904-.66928 1.2919-1.6521 1.2919-2.75064z" transform="matrix(.965849 -.259105 .258533 .966002 32.1329 34.2112)"/><path d="m13.9372 3.65339c0-2.01775-1.6851-3.65339001-3.7637-3.65339001-1.35734 0-2.54271.69972701-3.20492 1.74545001-.66213-1.045723-1.84801-1.74545001-3.2053-1.74545001-2.07866 0-3.76328 1.63564001-3.76328 3.65339001 0 1.09854.50149 2.08136 1.29187 2.75064l5.33326 5.17717c.09108.0884.21461.1381.34345.1381s.25237-.0497.34345-.1381l5.33327-5.17717c.7904-.66928 1.2919-1.6521 1.2919-2.75064z" transform="matrix(-.965849 .259105 -.258533 -.966002 72.7515 69.538)"/></g></svg>