<svg fill="none" height="104" viewBox="0 0 104 104" width="104" xmlns="http://www.w3.org/2000/svg"><ellipse cx="51.6561" cy="51.7173" fill="#4a4a4a" rx="51.6561" ry="51.7173"/><g stroke="#fff" stroke-linecap="round" stroke-linejoin="round" stroke-width="7.31156"><path d="m24.7451 0h-15.26213c-5.2373 0-9.48297 4.24567-9.48297 9.48297 0 5.23733 4.24567 9.48293 9.48297 9.48293h6.23893" transform="matrix(-1 0 0 -1 53.8593 71)"/><path d="m15.5294 18.649h-6.04643c-5.2373 0-9.48297 4.2457-9.48297 9.483 0 5.2373 4.24567 9.483 9.48297 9.483h10.41053c7.6869 0 14.5413-4.8391 17.1145-12.0824l9.0704-25.5326.9216 37.615" transform="matrix(1 0 0 -1 28 70.615)"/></g></svg>