<?xml version="1.0" standalone="no"?>
<!DOCTYPE svg PUBLIC "-//W3C//DTD SVG 20010904//EN"
 "http://www.w3.org/TR/2001/REC-SVG-20010904/DTD/svg10.dtd">
<svg version="1.0" xmlns="http://www.w3.org/2000/svg"
 width="927.000000pt" height="927.000000pt" viewBox="0 0 927.000000 927.000000"
 preserveAspectRatio="xMidYMid meet">
<metadata>
Created by potrace 1.15, written by Peter Selinger 2001-2017
</metadata>
<g transform="translate(0.000000,927.000000) scale(0.100000,-0.100000)"
fill="#000000" stroke="none">
<path d="M4402 9259 c-1062 -57 -2036 -454 -2827 -1150 -459 -404 -824 -882
-1095 -1434 -289 -589 -434 -1157 -471 -1845 -32 -610 86 -1321 315 -1890 396
-983 1059 -1760 1966 -2303 144 -86 476 -250 635 -312 909 -359 1900 -423
2857 -185 496 124 993 346 1433 639 756 505 1351 1229 1701 2068 168 405 276
823 331 1288 25 212 25 766 0 983 -74 647 -274 1271 -577 1797 -85 149 -269
431 -349 535 -308 403 -734 797 -1161 1072 -695 449 -1449 691 -2295 738 -199
11 -254 11 -463 -1z m688 -614 c747 -87 1428 -362 2013 -813 822 -632 1369
-1551 1526 -2562 38 -241 46 -360 46 -655 -1 -378 -28 -610 -111 -951 -280
-1153 -1070 -2136 -2139 -2661 -421 -206 -846 -331 -1335 -390 -203 -25 -695
-25 -900 0 -803 97 -1510 398 -2130 905 -162 133 -438 415 -573 584 -445 560
-718 1178 -831 1879 -90 556 -70 1080 60 1615 237 979 840 1836 1689 2401 560
373 1184 592 1873 658 185 18 621 12 812 -10z"/>
<path d="M4385 8494 c-1122 -90 -2102 -608 -2787 -1474 -589 -745 -887 -1709
-818 -2652 7 -96 29 -271 50 -393 139 -805 502 -1505 1080 -2084 550 -549
1257 -922 2020 -1065 265 -50 392 -61 720 -60 330 0 478 13 752 69 1458 295
2623 1402 2988 2839 74 292 108 538 117 847 11 401 -43 809 -162 1210 -55 186
-164 477 -224 598 -117 238 -329 560 -505 771 -652 777 -1530 1252 -2541 1375
-124 16 -579 28 -690 19z m1240 -1185 c203 -17 352 -62 567 -170 174 -87 289
-173 365 -274 84 -111 83 -106 83 -451 l0 -304 -264 0 -264 0 -4 238 c-3 220
-5 240 -25 278 -44 83 -220 207 -353 248 -64 20 -86 21 -990 21 l-925 0 -105
-23 c-282 -62 -442 -155 -506 -294 l-29 -63 -3 -832 -3 -833 -264 0 -265 0 0
923 c0 1041 -5 973 79 1099 78 117 161 200 238 241 88 46 368 140 503 168 91
20 147 24 430 29 567 11 1608 10 1735 -1z m1015 -3663 l0 -1103 -37 -74 c-89
-178 -341 -358 -642 -459 -191 -64 -164 -63 -1196 -67 -978 -5 -1090 -2 -1320
37 -60 11 -150 31 -200 45 -104 30 -333 139 -387 184 -39 33 -111 130 -159
216 -61 108 -59 73 -59 978 l0 827 265 0 264 0 3 -742 3 -743 26 -56 c80 -171
279 -271 631 -316 116 -15 234 -18 948 -18 920 0 902 -1 1053 76 172 87 246
158 267 254 7 33 9 299 8 795 l-3 745 -512 3 -513 2 0 260 0 260 780 0 780 0
0 -1104z"/>
</g>
</svg>
