<svg width="518" height="518" viewBox="0 0 518 518" version="1.1" xmlns="http://www.w3.org/2000/svg" xmlns:xlink="http://www.w3.org/1999/xlink">
<g id="Canvas" fill="none">
<g id="MacOS Icon 512px.1">
<g id="Rectangle 3.5" filter="url(#filter0_d)">
<path d="M 1.80716e-06 231C 0.015787 103.438 103.438 -8.86264e-07 231 0C 358.562 8.86264e-07 461.959 103.438 461.943 231C 461.927 358.562 358.505 462 230.943 462C 103.381 462 -0.0157834 358.562 1.80716e-06 231Z" transform="translate(31.0283 25)" fill="url(#paint0_linear)"/>
<path d="M 1.80716e-06 231C 0.015787 103.438 103.438 -8.86264e-07 231 0C 358.562 8.86264e-07 461.959 103.438 461.943 231C 461.927 358.562 358.505 462 230.943 462C 103.381 462 -0.0157834 358.562 1.80716e-06 231Z" transform="translate(31.0283 25)" fill="url(#paint1_radial)"/>
<path d="M 1.80716e-06 231C 0.015787 103.438 103.438 -8.86264e-07 231 0C 358.562 8.86264e-07 461.959 103.438 461.943 231C 461.927 358.562 358.505 462 230.943 462C 103.381 462 -0.0157834 358.562 1.80716e-06 231Z" transform="translate(31.0283 25)" fill="url(#paint2_linear)"/>
</g>
<g id="Group 3.2" filter="url(#filter1_d)">
<g id="Group 2.1">
<g id="Group">
<path id="Vector" fill-rule="evenodd" clip-rule="evenodd" d="M 18.428 73.9828L 0.252435 66.5845L 0.252435 56.8902L 0 0L 41.4 15.817L 41.4 83.4219L 33.3219 80.1055L 18.428 73.9828Z" transform="translate(146.009 309.801)" fill="url(#paint3_linear)"/>
<path id="Vector_2" fill-rule="evenodd" clip-rule="evenodd" d="M 51.75 0L 60.5854 3.31647L 77.7512 9.69429L 93.15 15.3068L 41.4 26.7869L 0 10.9699L 36.6037 3.31647L 51.75 0Z" transform="translate(146.009 298.82)" fill="url(#paint4_linear)"/>
<g id="Vector_3" transform="translate(187.412 314.137)">
<path fill-rule="evenodd" clip-rule="evenodd" d="M 51.4976 66.5845L 44.1768 68.3703L 36.0988 70.4112L 18.9329 74.493L 18.1756 74.493L 0 79.085L 0 11.4801L 51.75 0L 51.4976 50.2573L 51.4976 52.0431L 51.4976 61.4822L 51.4976 66.5845Z" fill="url(#paint5_linear)"/>
<path fill-rule="evenodd" clip-rule="evenodd" d="M 51.4976 66.5845L 44.1768 68.3703L 36.0988 70.4112L 18.9329 74.493L 18.1756 74.493L 0 79.085L 0 11.4801L 51.75 0L 51.4976 50.2573L 51.4976 52.0431L 51.4976 61.4822L 51.4976 66.5845Z" fill="url(#paint6_linear)"/>
</g>
</g>
<g id="Group_2">
<path id="Vector_4" fill-rule="evenodd" clip-rule="evenodd" d="M 18.428 73.9828L 0.252435 66.5845L 0.252435 56.8902L 0 0L 41.4 15.817L 41.4 83.4219L 33.3219 80.1055L 18.428 73.9828Z" transform="translate(146.009 233.824)" fill="url(#paint7_linear)"/>
<path id="Vector_5" fill-rule="evenodd" clip-rule="evenodd" d="M 51.75 0L 60.5854 3.31647L 77.7512 9.69429L 93.15 15.3068L 41.4 26.7869L 0 10.9699L 36.6037 3.31647L 51.75 0Z" transform="translate(146.009 222.844)" fill="url(#paint8_linear)"/>
<g id="Vector_6" transform="translate(187.412 238.16)">
<path fill-rule="evenodd" clip-rule="evenodd" d="M 51.4976 66.5845L 44.1768 68.3703L 36.0988 70.4112L 18.9329 74.493L 18.1756 74.493L 0 79.085L 0 11.4801L 51.75 0L 51.4976 50.2573L 51.4976 52.0431L 51.4976 61.4822L 51.4976 66.5845Z" fill="url(#paint9_linear)"/>
<path fill-rule="evenodd" clip-rule="evenodd" d="M 51.4976 66.5845L 44.1768 68.3703L 36.0988 70.4112L 18.9329 74.493L 18.1756 74.493L 0 79.085L 0 11.4801L 51.75 0L 51.4976 50.2573L 51.4976 52.0431L 51.4976 61.4822L 51.4976 66.5845Z" fill="url(#paint10_linear)"/>
</g>
</g>
<g id="Group_3">
<path id="Vector_7" fill-rule="evenodd" clip-rule="evenodd" d="M 18.428 73.9828L 0.252435 66.5845L 0.252435 56.8902L 0 0L 41.4 15.817L 41.4 83.4219L 33.3219 80.1055L 18.428 73.9828Z" transform="translate(146.008 158.145)" fill="url(#paint11_linear)"/>
<path id="Vector_8" fill-rule="evenodd" clip-rule="evenodd" d="M 51.75 0L 60.5854 3.31647L 77.7512 9.69429L 93.15 15.3068L 41.4 26.7869L 0 10.9699L 36.6037 3.31647L 51.75 0Z" transform="translate(146.008 147.168)" fill="url(#paint12_linear)"/>
<g id="Vector_9" transform="translate(187.411 162.484)">
<path fill-rule="evenodd" clip-rule="evenodd" d="M 51.4976 66.5845L 44.1768 68.3703L 36.0988 70.4112L 18.9329 74.493L 18.1756 74.493L 0 79.085L 0 11.4801L 51.75 0L 51.4976 50.2573L 51.4976 52.0431L 51.4976 61.4822L 51.4976 66.5845Z" fill="url(#paint13_linear)"/>
<path fill-rule="evenodd" clip-rule="evenodd" d="M 51.4976 66.5845L 44.1768 68.3703L 36.0988 70.4112L 18.9329 74.493L 18.1756 74.493L 0 79.085L 0 11.4801L 51.75 0L 51.4976 50.2573L 51.4976 52.0431L 51.4976 61.4822L 51.4976 66.5845Z" fill="url(#paint14_linear)"/>
</g>
</g>
</g>
<g id="Group 2.2">
<g id="Group_4">
<path id="Vector_10" fill-rule="evenodd" clip-rule="evenodd" d="M 18.428 73.9828L 0.252435 66.5845L 0.252435 56.8902L 0 0L 41.4 15.817L 41.4 83.4219L 33.3219 80.1055L 18.428 73.9828Z" transform="translate(284.301 281.016)" fill="url(#paint15_linear)"/>
<path id="Vector_11" fill-rule="evenodd" clip-rule="evenodd" d="M 51.75 0L 60.5854 3.31647L 77.7512 9.69429L 93.15 15.3068L 41.4 26.7869L 0 10.9699L 36.6037 3.31647L 51.75 0Z" transform="translate(284.301 270.043)" fill="url(#paint16_linear)"/>
<g id="Vector_12" transform="translate(325.704 285.359)">
<path fill-rule="evenodd" clip-rule="evenodd" d="M 51.4976 66.5845L 44.1768 68.3703L 36.0988 70.4112L 18.9329 74.493L 18.1756 74.493L 0 79.085L 0 11.4801L 51.75 0L 51.4976 50.2573L 51.4976 52.0431L 51.4976 61.4822L 51.4976 66.5845Z" fill="url(#paint17_linear)"/>
<path fill-rule="evenodd" clip-rule="evenodd" d="M 51.4976 66.5845L 44.1768 68.3703L 36.0988 70.4112L 18.9329 74.493L 18.1756 74.493L 0 79.085L 0 11.4801L 51.75 0L 51.4976 50.2573L 51.4976 52.0431L 51.4976 61.4822L 51.4976 66.5845Z" fill="url(#paint18_linear)"/>
</g>
</g>
<g id="Group_5">
<path id="Vector_13" fill-rule="evenodd" clip-rule="evenodd" d="M 18.428 73.9828L 0.252435 66.5845L 0.252435 56.8902L 0 0L 41.4 15.817L 41.4 83.4219L 33.3219 80.1055L 18.428 73.9828Z" transform="translate(284.301 205.039)" fill="url(#paint19_linear)"/>
<path id="Vector_14" fill-rule="evenodd" clip-rule="evenodd" d="M 51.75 0L 60.5854 3.31647L 77.7512 9.69429L 93.15 15.3068L 41.4 26.7869L 0 10.9699L 36.6037 3.31647L 51.75 0Z" transform="translate(284.301 194.066)" fill="url(#paint20_linear)"/>
<g id="Vector_15" transform="translate(325.704 209.383)">
<path fill-rule="evenodd" clip-rule="evenodd" d="M 51.4976 66.5845L 44.1768 68.3703L 36.0988 70.4112L 18.9329 74.493L 18.1756 74.493L 0 79.085L 0 11.4801L 51.75 0L 51.4976 50.2573L 51.4976 52.0431L 51.4976 61.4822L 51.4976 66.5845Z" fill="url(#paint21_linear)"/>
<path fill-rule="evenodd" clip-rule="evenodd" d="M 51.4976 66.5845L 44.1768 68.3703L 36.0988 70.4112L 18.9329 74.493L 18.1756 74.493L 0 79.085L 0 11.4801L 51.75 0L 51.4976 50.2573L 51.4976 52.0431L 51.4976 61.4822L 51.4976 66.5845Z" fill="url(#paint22_linear)"/>
</g>
</g>
<g id="Group_6">
<path id="Vector_16" fill-rule="evenodd" clip-rule="evenodd" d="M 18.428 73.9828L 0.252435 66.5845L 0.252435 56.8902L 0 0L 41.4 15.817L 41.4 83.4219L 33.3219 80.1055L 18.428 73.9828Z" transform="translate(284.301 129.359)" fill="url(#paint23_linear)"/>
<path id="Vector_17" fill-rule="evenodd" clip-rule="evenodd" d="M 51.75 0L 60.5854 3.31647L 77.7512 9.69429L 93.15 15.3068L 41.4 26.7869L 0 10.9699L 36.6037 3.31647L 51.75 0Z" transform="translate(284.301 118.383)" fill="url(#paint24_linear)"/>
<g id="Vector_18" transform="translate(325.704 133.699)">
<path fill-rule="evenodd" clip-rule="evenodd" d="M 51.4976 66.5845L 44.1768 68.3703L 36.0988 70.4112L 18.9329 74.493L 18.1756 74.493L 0 79.085L 0 11.4801L 51.75 0L 51.4976 50.2573L 51.4976 52.0431L 51.4976 61.4822L 51.4976 66.5845Z" fill="url(#paint25_linear)"/>
<path fill-rule="evenodd" clip-rule="evenodd" d="M 51.4976 66.5845L 44.1768 68.3703L 36.0988 70.4112L 18.9329 74.493L 18.1756 74.493L 0 79.085L 0 11.4801L 51.75 0L 51.4976 50.2573L 51.4976 52.0431L 51.4976 61.4822L 51.4976 66.5845Z" fill="url(#paint26_linear)"/>
</g>
</g>
<g id="Group_7">
<path id="Vector_19" fill-rule="evenodd" clip-rule="evenodd" d="M 6.26532 24.8087L 0.0858251 22.3278L 0.0858251 19.077L 0 0L 14.0755 5.30393L 14.0755 27.9739L 11.3291 26.8618L 6.26532 24.8087Z" transform="translate(246.297 249.762)" fill="url(#paint27_linear)"/>
<path id="Vector_20" fill-rule="evenodd" clip-rule="evenodd" d="M 17.5944 0L 20.5983 1.11212L 26.4345 3.2508L 31.6699 5.13283L 14.0755 8.98246L 0 3.67853L 12.4448 1.11212L 17.5944 0Z" transform="translate(246.297 246.074)" fill="url(#paint28_linear)"/>
<g id="Vector_21" transform="translate(260.373 251.211)">
<path fill-rule="evenodd" clip-rule="evenodd" d="M 17.5086 22.3278L 15.0196 22.9267L 12.2732 23.611L 6.43698 24.9798L 6.1795 24.9798L 0 26.5196L 0 3.84963L 17.5944 0L 17.5086 16.8528L 17.5086 17.4516L 17.5086 20.6169L 17.5086 22.3278Z" fill="url(#paint29_linear)"/>
<path fill-rule="evenodd" clip-rule="evenodd" d="M 17.5086 22.3278L 15.0196 22.9267L 12.2732 23.611L 6.43698 24.9798L 6.1795 24.9798L 0 26.5196L 0 3.84963L 17.5944 0L 17.5086 16.8528L 17.5086 17.4516L 17.5086 20.6169L 17.5086 22.3278Z" fill="url(#paint30_linear)"/>
</g>
</g>
</g>
</g>
</g>
</g>
<defs>
<filter id="filter0_d" x="0.783802" y="5.24452" width="511.943" height="512" filterUnits="userSpaceOnUse" color-interpolation-filters="sRGB">
<feFlood flood-opacity="0" result="BackgroundImageFix"/>
<feColorMatrix in="SourceAlpha" type="matrix" values="0 0 0 0 0 0 0 0 0 0 0 0 0 0 0 0 0 0 255 0"/>
<feOffset dx="-5.24452" dy="5.24452"/>
<feGaussianBlur stdDeviation="12.5"/>
<feColorMatrix type="matrix" values="0 0 0 0 0 0 0 0 0 0 0 0 0 0 0 0 0 0 0.4 0"/>
<feBlend mode="normal" in2="BackgroundImageFix" result="effect1_dropShadow"/>
<feBlend mode="normal" in="SourceGraphic" in2="effect1_dropShadow" result="shape"/>
</filter>
<filter id="filter1_d" x="131.008" y="112.383" width="251.445" height="294.84" filterUnits="userSpaceOnUse" color-interpolation-filters="sRGB">
<feFlood flood-opacity="0" result="BackgroundImageFix"/>
<feColorMatrix in="SourceAlpha" type="matrix" values="0 0 0 0 0 0 0 0 0 0 0 0 0 0 0 0 0 0 255 0"/>
<feOffset dx="-5" dy="4"/>
<feGaussianBlur stdDeviation="5"/>
<feColorMatrix type="matrix" values="0 0 0 0 0.105882 0 0 0 0 0.141176 0 0 0 0 0.192157 0 0 0 0.4 0"/>
<feBlend mode="normal" in2="BackgroundImageFix" result="effect1_dropShadow"/>
<feBlend mode="normal" in="SourceGraphic" in2="effect1_dropShadow" result="shape"/>
</filter>
<linearGradient id="paint0_linear" x2="1" gradientUnits="userSpaceOnUse" gradientTransform="matrix(317.575 420.777 -420.749 317.659 355.107 -70.1856)">
<stop stop-color="#1B2431"/>
<stop offset="1" stop-color="#3F00A5"/>
</linearGradient>
<radialGradient id="paint1_radial" cx="0.5" cy="0.5" r="0.5" gradientUnits="userSpaceOnUse" gradientTransform="matrix(0.335871 393.019 -392.97 0.384385 427.289 34.2984)">
<stop stop-color="#390082"/>
<stop offset="1" stop-color="#2B1C61" stop-opacity="0"/>
</radialGradient>
<linearGradient id="paint2_linear" x2="1" gradientUnits="userSpaceOnUse" gradientTransform="matrix(153.073 166.727 -166.687 152.946 339.317 186.808)">
<stop stop-color="#300E75" stop-opacity="0"/>
<stop offset="1" stop-color="#F2C94C" stop-opacity="0.35"/>
</linearGradient>
<linearGradient id="paint3_linear" x2="1" gradientUnits="userSpaceOnUse" gradientTransform="matrix(62.2849 109.217 -54.1986 30.8999 -1.40393 -36.7442)">
<stop stop-color="#1C2334"/>
<stop offset="0.449069" stop-color="#6759E0"/>
<stop offset="1" stop-color="#4BB2F9"/>
</linearGradient>
<linearGradient id="paint4_linear" x2="1" gradientUnits="userSpaceOnUse" gradientTransform="matrix(-7.91757 34.8227 -121.102 -27.5461 103.306 13.4804)">
<stop stop-color="#231C4C"/>
<stop offset="1" stop-color="#0143D6"/>
</linearGradient>
<linearGradient id="paint5_linear" x2="1" gradientUnits="userSpaceOnUse" gradientTransform="matrix(-40.6435 122.172 -79.9436 -26.5896 91.4695 -30.2789)">
<stop offset="0.176754" stop-color="#1D2237"/>
<stop offset="0.323267" stop-color="#47137A"/>
<stop offset="1" stop-color="#913BFE"/>
</linearGradient>
<linearGradient id="paint6_linear" x2="1" gradientUnits="userSpaceOnUse" gradientTransform="matrix(60.1735 72.2835 -47.2994 39.3421 23.4193 -8.60759)">
<stop stop-color="#5F20A5" stop-opacity="0"/>
<stop offset="1" stop-color="#F2C94C" stop-opacity="0.35"/>
</linearGradient>
<linearGradient id="paint7_linear" x2="1" gradientUnits="userSpaceOnUse" gradientTransform="matrix(62.2849 109.217 -54.1986 30.8999 -1.40393 -36.7442)">
<stop stop-color="#1C2334"/>
<stop offset="0.449069" stop-color="#6759E0"/>
<stop offset="1" stop-color="#4BB2F9"/>
</linearGradient>
<linearGradient id="paint8_linear" x2="1" gradientUnits="userSpaceOnUse" gradientTransform="matrix(-7.91757 34.8227 -121.102 -27.5461 103.306 13.4804)">
<stop stop-color="#231C4C"/>
<stop offset="1" stop-color="#0143D6"/>
</linearGradient>
<linearGradient id="paint9_linear" x2="1" gradientUnits="userSpaceOnUse" gradientTransform="matrix(-43.8106 122.172 -79.9433 -28.6603 91.4693 -29.2436)">
<stop offset="0.176754" stop-color="#1D2237"/>
<stop offset="0.319251" stop-color="#47137A"/>
<stop offset="1" stop-color="#913BFE"/>
</linearGradient>
<linearGradient id="paint10_linear" x2="1" gradientUnits="userSpaceOnUse" gradientTransform="matrix(63.8684 68.0626 -44.5374 41.7578 22.0383 -6.12214)">
<stop stop-color="#5D1FA2" stop-opacity="0"/>
<stop offset="1" stop-color="#F2C94C" stop-opacity="0.35"/>
</linearGradient>
<linearGradient id="paint11_linear" x2="1" gradientUnits="userSpaceOnUse" gradientTransform="matrix(62.2849 109.217 -54.1986 30.8999 -1.40393 -36.7442)">
<stop stop-color="#1C2334"/>
<stop offset="0.449069" stop-color="#6759E0"/>
<stop offset="1" stop-color="#4BB2F9"/>
</linearGradient>
<linearGradient id="paint12_linear" x2="1" gradientUnits="userSpaceOnUse" gradientTransform="matrix(-7.91757 34.8227 -121.102 -27.5461 103.306 13.4804)">
<stop stop-color="#231C4C"/>
<stop offset="1" stop-color="#0143D6"/>
</linearGradient>
<linearGradient id="paint13_linear" x2="1" gradientUnits="userSpaceOnUse" gradientTransform="matrix(-47.5054 122.935 -80.4418 -31.0763 91.7186 -28.0356)">
<stop offset="0.176754" stop-color="#1D2237"/>
<stop offset="0.324583" stop-color="#47137A"/>
<stop offset="1" stop-color="#913BFE"/>
</linearGradient>
<linearGradient id="paint14_linear" x2="1" gradientUnits="userSpaceOnUse" gradientTransform="matrix(58.0622 61.7312 -40.3943 37.9617 24.7173 -1.35102)">
<stop stop-color="#5C1EA0" stop-opacity="0"/>
<stop offset="1" stop-color="#F2C94C" stop-opacity="0.35"/>
</linearGradient>
<linearGradient id="paint15_linear" x2="1" gradientUnits="userSpaceOnUse" gradientTransform="matrix(62.2849 109.217 -54.1986 30.8999 -1.40393 -36.7442)">
<stop stop-color="#1C2334"/>
<stop offset="0.449069" stop-color="#6759E0"/>
<stop offset="1" stop-color="#4BB2F9"/>
</linearGradient>
<linearGradient id="paint16_linear" x2="1" gradientUnits="userSpaceOnUse" gradientTransform="matrix(-7.91757 34.8227 -121.102 -27.5461 103.306 13.4804)">
<stop stop-color="#231C4C"/>
<stop offset="1" stop-color="#0143D6"/>
</linearGradient>
<linearGradient id="paint17_linear" x2="1" gradientUnits="userSpaceOnUse" gradientTransform="matrix(-40.6435 122.172 -79.9436 -26.5896 91.4695 -30.2789)">
<stop offset="0.176754" stop-color="#1D2237"/>
<stop offset="0.323267" stop-color="#47137A"/>
<stop offset="1" stop-color="#913BFE"/>
</linearGradient>
<linearGradient id="paint18_linear" x2="1" gradientUnits="userSpaceOnUse" gradientTransform="matrix(60.7014 65.9521 -43.1564 39.6872 23.987 -10.5979)">
<stop stop-color="#5D1FA3" stop-opacity="0"/>
<stop offset="1" stop-color="#F2C94C" stop-opacity="0.35"/>
</linearGradient>
<linearGradient id="paint19_linear" x2="1" gradientUnits="userSpaceOnUse" gradientTransform="matrix(62.2849 109.217 -54.1986 30.8999 -1.40393 -36.7442)">
<stop stop-color="#1C2334"/>
<stop offset="0.449069" stop-color="#6759E0"/>
<stop offset="1" stop-color="#4BB2F9"/>
</linearGradient>
<linearGradient id="paint20_linear" x2="1" gradientUnits="userSpaceOnUse" gradientTransform="matrix(-7.91757 34.8227 -121.102 -27.5461 103.306 13.4804)">
<stop stop-color="#231C4C"/>
<stop offset="1" stop-color="#0143D6"/>
</linearGradient>
<linearGradient id="paint21_linear" x2="1" gradientUnits="userSpaceOnUse" gradientTransform="matrix(-43.8106 122.172 -79.9433 -28.6603 91.4693 -29.2436)">
<stop offset="0.176754" stop-color="#1D2237"/>
<stop offset="0.319251" stop-color="#47137A"/>
<stop offset="1" stop-color="#913BFE"/>
</linearGradient>
<linearGradient id="paint22_linear" x2="1" gradientUnits="userSpaceOnUse" gradientTransform="matrix(58.59 67.5349 -44.1921 38.3068 21.8656 -7.79727)">
<stop stop-color="#5D1FA3" stop-opacity="0"/>
<stop offset="1" stop-color="#F2C94C" stop-opacity="0.35"/>
</linearGradient>
<linearGradient id="paint23_linear" x2="1" gradientUnits="userSpaceOnUse" gradientTransform="matrix(62.2849 109.217 -54.1986 30.8999 -1.40393 -36.7442)">
<stop stop-color="#1C2334"/>
<stop offset="0.449069" stop-color="#6759E0"/>
<stop offset="1" stop-color="#4BB2F9"/>
</linearGradient>
<linearGradient id="paint24_linear" x2="1" gradientUnits="userSpaceOnUse" gradientTransform="matrix(-7.91757 34.8227 -121.102 -27.5461 103.306 13.4804)">
<stop stop-color="#231C4C"/>
<stop offset="1" stop-color="#0143D6"/>
</linearGradient>
<linearGradient id="paint25_linear" x2="1" gradientUnits="userSpaceOnUse" gradientTransform="matrix(-47.5054 122.935 -80.4418 -31.0763 91.7186 -28.0356)">
<stop offset="0.176754" stop-color="#1D2237"/>
<stop offset="0.324583" stop-color="#47137A"/>
<stop offset="1" stop-color="#913BFE"/>
</linearGradient>
<linearGradient id="paint26_linear" x2="1" gradientUnits="userSpaceOnUse" gradientTransform="matrix(63.8684 68.0626 -44.5374 41.7578 22.0383 -10.3431)">
<stop stop-color="#5F20A6" stop-opacity="0"/>
<stop offset="1" stop-color="#F2C94C" stop-opacity="0.35"/>
</linearGradient>
<linearGradient id="paint27_linear" x2="1" gradientUnits="userSpaceOnUse" gradientTransform="matrix(21.1761 36.6237 -18.4269 10.3617 -0.47732 -12.3215)">
<stop stop-color="#1C2334"/>
<stop offset="0.449069" stop-color="#6759E0"/>
<stop offset="1" stop-color="#4BB2F9"/>
</linearGradient>
<linearGradient id="paint28_linear" x2="1" gradientUnits="userSpaceOnUse" gradientTransform="matrix(-2.69188 11.6771 -41.1731 -9.23706 35.1227 4.52039)">
<stop stop-color="#231C4C"/>
<stop offset="1" stop-color="#0143D6"/>
</linearGradient>
<linearGradient id="paint29_linear" x2="1" gradientUnits="userSpaceOnUse" gradientTransform="matrix(-16.1513 41.2238 -27.3493 -10.4208 31.1833 -9.40119)">
<stop offset="0.176754" stop-color="#1D2237"/>
<stop offset="0.324583" stop-color="#47137A"/>
<stop offset="1" stop-color="#913BFE"/>
</linearGradient>
<linearGradient id="paint30_linear" x2="1" gradientUnits="userSpaceOnUse" gradientTransform="matrix(21.6414 23.7428 -15.7521 14.3459 7.5245 -4.39471)">
<stop stop-color="#5E20A4" stop-opacity="0"/>
<stop offset="1" stop-color="#F2C94C" stop-opacity="0.35"/>
</linearGradient>
</defs>
</svg>
