<svg width="518" height="518" viewBox="0 0 518 518" fill="none" xmlns="http://www.w3.org/2000/svg">
<g filter="url(#filter0_d)">
<rect width="461.943" height="462" rx="230.971" transform="matrix(1 6.94771e-09 -0.000123745 1 31.0571 25)" fill="url(#paint0_linear)"/>
<rect width="461.943" height="462" rx="230.971" transform="matrix(1 6.94771e-09 -0.000123745 1 31.0571 25)" fill="url(#paint1_radial)"/>
<rect width="461.943" height="462" rx="230.971" transform="matrix(1 6.94771e-09 -0.000123745 1 31.0571 25)" fill="url(#paint2_linear)"/>
</g>
<g filter="url(#filter1_d)">
<path d="M0.0798764 11.2828H0V78.0993L18.1322 73.6182L18.7712 73.4582L35.7053 69.3772L43.693 67.2967L50.882 65.5362V60.415V50.9726V49.1322L51.0418 -3.05253e-07L0.0798764 11.2828Z" transform="translate(187.238 316.406)" fill="url(#paint3_linear)"/>
<path d="M0 0L0.239633 55.8538V65.5362L18.1322 72.9781L32.8297 79.0596L40.7376 82.4204V15.6039L0 0Z" transform="translate(146.5 312.086)" fill="url(#paint4_linear)"/>
<path d="M0.0798764 11.2828H0V78.0993L18.1322 73.6182L18.7712 73.4582L35.7053 69.3772L43.693 67.2967L50.882 65.5362V60.415V50.9726V49.1322L51.0418 -3.05253e-07L0.0798764 11.2828Z" transform="translate(187.238 316.398)" fill="url(#paint5_linear)"/>
<path d="M89.6226 14.3235L76.6026 9.52236L59.6685 3.28081L50.9619 0L36.0248 3.28081L1.75731 10.4826L0 10.8027L40.7376 26.4065H40.8174L91.7793 15.1237L89.6226 14.3235Z" transform="translate(146.5 301.281)" fill="url(#paint6_linear)"/>
<path d="M89.6226 14.3235L76.6026 9.52236L59.6685 3.28081L50.9619 0L36.0248 3.28081L1.75731 10.4826L0 10.8027L40.7376 26.4065H40.8174L91.7793 15.1237L89.6226 14.3235Z" transform="translate(146.5 301.281)" fill="url(#paint7_linear)"/>
<path d="M0.0798764 11.2828H0V78.0993L18.1322 73.6182L18.7712 73.4582L35.7053 69.3772L43.693 67.2967L50.882 65.5362V60.415V50.9726V49.1322L51.0418 -3.05253e-07L0.0798764 11.2828Z" transform="translate(187.238 239.52)" fill="url(#paint8_linear)"/>
<path d="M0 0L0.239633 55.8538V65.5362L18.1322 72.9781L32.8297 79.0596L40.7376 82.4204V15.6039L0 0Z" transform="translate(146.5 235.191)" fill="url(#paint9_linear)"/>
<path d="M0.0798764 11.2828H0V78.0993L18.1322 73.6182L18.7712 73.4582L35.7053 69.3772L43.693 67.2967L50.882 65.5362V60.415V50.9726V49.1322L51.0418 -3.05253e-07L0.0798764 11.2828Z" transform="translate(187.238 239.516)" fill="url(#paint10_linear)"/>
<path d="M89.6226 14.3235L76.6026 9.52236L59.6685 3.28081L50.9619 0L36.0248 3.28081L1.75731 10.4826L0 10.8027L40.7376 26.4065H40.8174L91.7793 15.1237L89.6226 14.3235Z" transform="translate(146.5 224.395)" fill="url(#paint11_linear)"/>
<path d="M89.6226 14.3235L76.6026 9.52236L59.6685 3.28081L50.9619 0L36.0248 3.28081L1.75731 10.4826L0 10.8027L40.7376 26.4065H40.8174L91.7793 15.1237L89.6226 14.3235Z" transform="translate(146.5 224.395)" fill="url(#paint12_linear)"/>
<path d="M0.0798764 11.2828H0V78.0993L18.1322 73.6182L18.7712 73.4582L35.7053 69.3772L43.693 67.2967L50.882 65.5362V60.415V50.9726V49.1322L51.0418 -3.05253e-07L0.0798764 11.2828Z" transform="translate(187.238 164.367)" fill="url(#paint13_linear)"/>
<path d="M0 0L0.239633 55.8538V65.5362L18.1322 72.9781L32.8297 79.0596L40.7376 82.4204V15.6039L0 0Z" transform="translate(146.5 160.047)" fill="url(#paint14_linear)"/>
<path d="M0.0798764 11.2828H0V78.0993L18.1322 73.6182L18.7712 73.4582L35.7053 69.3772L43.693 67.2967L50.882 65.5362V60.415V50.9726V49.1322L51.0418 -3.05253e-07L0.0798764 11.2828Z" transform="translate(187.238 164.367)" fill="url(#paint15_linear)"/>
<path d="M89.6226 14.3235L76.6026 9.52236L59.6685 3.28081L50.9619 0L36.0248 3.28081L1.75731 10.4826L0 10.8027L40.7376 26.4065H40.8174L91.7793 15.1237L89.6226 14.3235Z" transform="translate(146.5 149.246)" fill="url(#paint16_linear)"/>
<path d="M89.6226 14.3235L76.6026 9.52236L59.6685 3.28081L50.9619 0L36.0248 3.28081L1.75731 10.4826L0 10.8027L40.7376 26.4065H40.8174L91.7793 15.1237L89.6226 14.3235Z" transform="translate(146.5 149.246)" fill="url(#paint17_linear)"/>
<path d="M0.0277821 3.93474H0V27.2362L6.30663 25.6735L6.52889 25.6177L12.4188 24.1945L15.197 23.4689L17.6975 22.855V21.069V17.7761V17.1342L17.753 -1.06453e-07L0.0277821 3.93474Z" transform="translate(259.917 247.676)" fill="url(#paint18_linear)"/>
<path d="M0 0L0.0833476 19.4784V22.855L6.30663 25.4502L11.4186 27.5711L14.1691 28.7431V5.44166L0 0Z" transform="translate(245.749 246.164)" fill="url(#paint19_linear)"/>
<path d="M0.0277821 3.93474H0V27.2362L6.30663 25.6735L6.52889 25.6177L12.4188 24.1945L15.197 23.4689L17.6975 22.855V21.069V17.7761V17.1342L17.753 -1.06453e-07L0.0277821 3.93474Z" transform="translate(259.917 247.672)" fill="url(#paint20_linear)"/>
<path d="M31.172 4.99516L26.6434 3.32081L20.7535 1.14414L17.7252 0L12.5299 1.14414L0.611216 3.65568L0 3.7673L14.1691 9.20896H14.1969L31.9221 5.27422L31.172 4.99516Z" transform="translate(245.749 242.398)" fill="url(#paint21_linear)"/>
<path d="M31.172 4.99516L26.6434 3.32081L20.7535 1.14414L17.7252 0L12.5299 1.14414L0.611216 3.65568L0 3.7673L14.1691 9.20896H14.1969L31.9221 5.27422L31.172 4.99516Z" transform="translate(245.749 242.398)" fill="url(#paint22_linear)"/>
<path d="M0.0798764 11.2828H0V78.0993L18.1322 73.6182L18.7712 73.4582L35.7053 69.3772L43.693 67.2967L50.882 65.5362V60.415V50.9726V49.1322L51.0418 -3.05253e-07L0.0798764 11.2828Z" transform="translate(326.459 284.156)" fill="url(#paint23_linear)"/>
<path d="M0 0L0.239633 55.8538V65.5362L18.1322 72.9781L32.8297 79.0596L40.7376 82.4204V15.6039L0 0Z" transform="translate(285.722 279.84)" fill="url(#paint24_linear)"/>
<path d="M0.0798764 11.2828H0V78.0993L18.1322 73.6182L18.7712 73.4582L35.7053 69.3772L43.693 67.2967L50.882 65.5362V60.415V50.9726V49.1322L51.0418 -3.05253e-07L0.0798764 11.2828Z" transform="translate(326.459 284.156)" fill="url(#paint25_linear)"/>
<path d="M89.6226 14.3235L76.6026 9.52236L59.6685 3.28081L50.9619 0L36.0248 3.28081L1.75731 10.4826L0 10.8027L40.7376 26.4065H40.8174L91.7793 15.1237L89.6226 14.3235Z" transform="translate(285.722 269.035)" fill="url(#paint26_linear)"/>
<path d="M89.6226 14.3235L76.6026 9.52236L59.6685 3.28081L50.9619 0L36.0248 3.28081L1.75731 10.4826L0 10.8027L40.7376 26.4065H40.8174L91.7793 15.1237L89.6226 14.3235Z" transform="translate(285.722 269.035)" fill="url(#paint27_linear)"/>
<path d="M0.0798764 11.2828H0V78.0993L18.1322 73.6182L18.7712 73.4582L35.7053 69.3772L43.693 67.2967L50.882 65.5362V60.415V50.9726V49.1322L51.0418 -3.05253e-07L0.0798764 11.2828Z" transform="translate(326.458 208.148)" fill="url(#paint28_linear)"/>
<path d="M0 0L0.239633 55.8538V65.5362L18.1322 72.9781L32.8297 79.0596L40.7376 82.4204V15.6039L0 0Z" transform="translate(285.721 203.832)" fill="url(#paint29_linear)"/>
<path d="M0.0798764 11.2828H0V78.0993L18.1322 73.6182L18.7712 73.4582L35.7053 69.3772L43.693 67.2967L50.882 65.5362V60.415V50.9726V49.1322L51.0418 -3.05253e-07L0.0798764 11.2828Z" transform="translate(326.458 208.148)" fill="url(#paint30_linear)"/>
<path d="M89.6226 14.3235L76.6026 9.52236L59.6685 3.28081L50.9619 0L36.0248 3.28081L1.75731 10.4826L0 10.8027L40.7376 26.4065H40.8174L91.7793 15.1237L89.6226 14.3235Z" transform="translate(285.721 193.027)" fill="url(#paint31_linear)"/>
<path d="M89.6226 14.3235L76.6026 9.52236L59.6685 3.28081L50.9619 0L36.0248 3.28081L1.75731 10.4826L0 10.8027L40.7376 26.4065H40.8174L91.7793 15.1237L89.6226 14.3235Z" transform="translate(285.721 193.027)" fill="url(#paint32_linear)"/>
<path d="M0.0798764 11.2828H0V78.0993L18.1322 73.6182L18.7712 73.4582L35.7053 69.3772L43.693 67.2967L50.882 65.5362V60.415V50.9726V49.1322L51.0418 -3.05253e-07L0.0798764 11.2828Z" transform="translate(326.458 132.133)" fill="url(#paint33_linear)"/>
<path d="M0 0L0.239633 55.8538V65.5362L18.1322 72.9781L32.8297 79.0596L40.7376 82.4204V15.6039L0 0Z" transform="translate(285.721 127.816)" fill="url(#paint34_linear)"/>
<path d="M0.0798764 11.2828H0V78.0993L18.1322 73.6182L18.7712 73.4582L35.7053 69.3772L43.693 67.2967L50.882 65.5362V60.415V50.9726V49.1322L51.0418 -3.05253e-07L0.0798764 11.2828Z" transform="translate(326.458 132.133)" fill="url(#paint35_linear)"/>
<path d="M89.6226 14.3235L76.6026 9.52236L59.6685 3.28081L50.9619 0L36.0248 3.28081L1.75731 10.4826L0 10.8027L40.7376 26.4065H40.8174L91.7793 15.1237L89.6226 14.3235Z" transform="translate(285.722 117.012)" fill="url(#paint36_linear)"/>
<path d="M89.6226 14.3235L76.6026 9.52236L59.6685 3.28081L50.9619 0L36.0248 3.28081L1.75731 10.4826L0 10.8027L40.7376 26.4065H40.8174L91.7793 15.1237L89.6226 14.3235Z" transform="translate(285.722 117.012)" fill="url(#paint37_linear)"/>
</g>
<defs>
<filter id="filter0_d" x="0.783802" y="5.24452" width="511.943" height="512" filterUnits="userSpaceOnUse" color-interpolation-filters="sRGB">
<feFlood flood-opacity="0" result="BackgroundImageFix"/>
<feColorMatrix in="SourceAlpha" type="matrix" values="0 0 0 0 0 0 0 0 0 0 0 0 0 0 0 0 0 0 255 0"/>
<feOffset dx="-5.24452" dy="5.24452"/>
<feGaussianBlur stdDeviation="12.5"/>
<feColorMatrix type="matrix" values="0 0 0 0 0 0 0 0 0 0 0 0 0 0 0 0 0 0 0.4 0"/>
<feBlend mode="normal" in2="BackgroundImageFix" result="effect1_dropShadow"/>
<feBlend mode="normal" in="SourceGraphic" in2="effect1_dropShadow" result="shape"/>
</filter>
<filter id="filter1_d" x="139" y="114.012" width="241.001" height="287.495" filterUnits="userSpaceOnUse" color-interpolation-filters="sRGB">
<feFlood flood-opacity="0" result="BackgroundImageFix"/>
<feColorMatrix in="SourceAlpha" type="matrix" values="0 0 0 0 0 0 0 0 0 0 0 0 0 0 0 0 0 0 255 0"/>
<feOffset dx="-2.5" dy="2"/>
<feGaussianBlur stdDeviation="2.5"/>
<feColorMatrix type="matrix" values="0 0 0 0 0 0 0 0 0 0 0 0 0 0 0 0 0 0 0.1 0"/>
<feBlend mode="normal" in2="BackgroundImageFix" result="effect1_dropShadow"/>
<feBlend mode="normal" in="SourceGraphic" in2="effect1_dropShadow" result="shape"/>
</filter>
<linearGradient id="paint0_linear" x2="1" gradientUnits="userSpaceOnUse" gradientTransform="translate(355.069 -70.1856) scale(527.146 527.219) rotate(52.9479)">
<stop stop-color="#1B2431"/>
<stop offset="1" stop-color="#3F00A5"/>
</linearGradient>
<radialGradient id="paint1_radial" cx="0.5" cy="0.5" r="0.5" gradientUnits="userSpaceOnUse" gradientTransform="translate(427.264 34.2984) scale(392.97 393.019) rotate(89.9439)">
<stop stop-color="#390082"/>
<stop offset="1" stop-color="#2B1C61" stop-opacity="0"/>
</radialGradient>
<linearGradient id="paint2_linear" x2="1" gradientUnits="userSpaceOnUse" gradientTransform="matrix(153.094 166.727 -166.668 152.946 339.311 186.808)">
<stop stop-color="#300E75" stop-opacity="0"/>
<stop offset="1" stop-color="#F2C94C" stop-opacity="0.35"/>
</linearGradient>
<linearGradient id="paint3_linear" x2="1" gradientUnits="userSpaceOnUse" gradientTransform="matrix(-46.922 123.42 79.4537 31.199 16.6681 -58.505)">
<stop offset="0.1768" stop-color="#1D2237"/>
<stop offset="0.3246" stop-color="#47137A"/>
<stop offset="1" stop-color="#913BFE"/>
</linearGradient>
<linearGradient id="paint4_linear" x2="1" gradientUnits="userSpaceOnUse" gradientTransform="matrix(61.3471 109.22 53.3827 -30.9009 -44.763 -12.659)">
<stop stop-color="#1C2334"/>
<stop offset="0.4491" stop-color="#6759E0"/>
<stop offset="1" stop-color="#4BB2F9"/>
</linearGradient>
<linearGradient id="paint5_linear" x2="1" gradientUnits="userSpaceOnUse" gradientTransform="matrix(57.3571 61.9834 39.9038 -38.1168 -15.3919 35.3821)">
<stop stop-color="#5C1EA0" stop-opacity="0"/>
<stop offset="1" stop-color="#F2C94C" stop-opacity="0.35"/>
</linearGradient>
<linearGradient id="paint6_linear" x2="1" gradientUnits="userSpaceOnUse" gradientTransform="translate(-14.981 -58.2922) scale(142.743 142.998)">
<stop stop-color="#231C4C"/>
<stop offset="1" stop-color="#0143D6"/>
</linearGradient>
<linearGradient id="paint7_linear" x2="1" gradientUnits="userSpaceOnUse" gradientTransform="matrix(-4.79265 33.6083 -116.81 -16.7169 101.14 -5.24493)">
<stop/>
<stop offset="1" stop-color="#0D35A5"/>
</linearGradient>
<linearGradient id="paint8_linear" x2="1" gradientUnits="userSpaceOnUse" gradientTransform="matrix(-46.922 123.42 79.4537 31.199 16.6681 -58.505)">
<stop offset="0.1768" stop-color="#1D2237"/>
<stop offset="0.3246" stop-color="#47137A"/>
<stop offset="1" stop-color="#913BFE"/>
</linearGradient>
<linearGradient id="paint9_linear" x2="1" gradientUnits="userSpaceOnUse" gradientTransform="matrix(61.3471 109.22 53.3827 -30.9009 -44.763 -12.659)">
<stop stop-color="#1C2334"/>
<stop offset="0.4491" stop-color="#6759E0"/>
<stop offset="1" stop-color="#4BB2F9"/>
</linearGradient>
<linearGradient id="paint10_linear" x2="1" gradientUnits="userSpaceOnUse" gradientTransform="matrix(57.3571 61.9834 39.9038 -38.1168 -15.3919 35.3821)">
<stop stop-color="#5C1EA0" stop-opacity="0"/>
<stop offset="1" stop-color="#F2C94C" stop-opacity="0.35"/>
</linearGradient>
<linearGradient id="paint11_linear" x2="1" gradientUnits="userSpaceOnUse" gradientTransform="translate(-14.981 -58.2922) scale(142.743 142.998)">
<stop stop-color="#231C4C"/>
<stop offset="1" stop-color="#0143D6"/>
</linearGradient>
<linearGradient id="paint12_linear" x2="1" gradientUnits="userSpaceOnUse" gradientTransform="matrix(-4.79265 33.6083 -116.81 -16.7169 101.14 -5.24493)">
<stop/>
<stop offset="1" stop-color="#0D35A5"/>
</linearGradient>
<linearGradient id="paint13_linear" x2="1" gradientUnits="userSpaceOnUse" gradientTransform="matrix(-46.922 123.42 79.4537 31.199 16.6681 -58.505)">
<stop offset="0.1768" stop-color="#1D2237"/>
<stop offset="0.3246" stop-color="#47137A"/>
<stop offset="1" stop-color="#913BFE"/>
</linearGradient>
<linearGradient id="paint14_linear" x2="1" gradientUnits="userSpaceOnUse" gradientTransform="matrix(61.3471 109.22 53.3827 -30.9009 -44.763 -12.659)">
<stop stop-color="#1C2334"/>
<stop offset="0.4491" stop-color="#6759E0"/>
<stop offset="1" stop-color="#4BB2F9"/>
</linearGradient>
<linearGradient id="paint15_linear" x2="1" gradientUnits="userSpaceOnUse" gradientTransform="matrix(57.3571 61.9834 39.9038 -38.1168 -15.3919 35.3821)">
<stop stop-color="#5C1EA0" stop-opacity="0"/>
<stop offset="1" stop-color="#F2C94C" stop-opacity="0.35"/>
</linearGradient>
<linearGradient id="paint16_linear" x2="1" gradientUnits="userSpaceOnUse" gradientTransform="translate(-14.981 -58.2922) scale(142.743 142.998)">
<stop stop-color="#231C4C"/>
<stop offset="1" stop-color="#0143D6"/>
</linearGradient>
<linearGradient id="paint17_linear" x2="1" gradientUnits="userSpaceOnUse" gradientTransform="matrix(-4.79265 33.6083 -116.81 -16.7169 101.14 -5.24493)">
<stop/>
<stop offset="1" stop-color="#0D35A5"/>
</linearGradient>
<linearGradient id="paint18_linear" x2="1" gradientUnits="userSpaceOnUse" gradientTransform="matrix(-16.3201 43.0413 27.6351 10.8803 5.7974 -20.4029)">
<stop offset="0.1768" stop-color="#1D2237"/>
<stop offset="0.3246" stop-color="#47137A"/>
<stop offset="1" stop-color="#913BFE"/>
</linearGradient>
<linearGradient id="paint19_linear" x2="1" gradientUnits="userSpaceOnUse" gradientTransform="matrix(21.3374 38.0892 18.5672 -10.7763 -15.5692 -4.41467)">
<stop stop-color="#1C2334"/>
<stop offset="0.4491" stop-color="#6759E0"/>
<stop offset="1" stop-color="#4BB2F9"/>
</linearGradient>
<linearGradient id="paint20_linear" x2="1" gradientUnits="userSpaceOnUse" gradientTransform="matrix(19.9496 21.6159 13.8791 -13.2928 -5.35351 12.3391)">
<stop stop-color="#5C1EA0" stop-opacity="0"/>
<stop offset="1" stop-color="#F2C94C" stop-opacity="0.35"/>
</linearGradient>
<linearGradient id="paint21_linear" x2="1" gradientUnits="userSpaceOnUse" gradientTransform="translate(-5.21061 -20.3287) scale(49.6481 49.8687)">
<stop stop-color="#231C4C"/>
<stop offset="1" stop-color="#0143D6"/>
</linearGradient>
<linearGradient id="paint22_linear" x2="1" gradientUnits="userSpaceOnUse" gradientTransform="matrix(-1.66695 11.7205 -40.6282 -5.82981 35.1777 -1.82911)">
<stop/>
<stop offset="1" stop-color="#0D35A5"/>
</linearGradient>
<linearGradient id="paint23_linear" x2="1" gradientUnits="userSpaceOnUse" gradientTransform="matrix(-46.922 123.42 79.4537 31.199 16.6681 -58.505)">
<stop offset="0.1768" stop-color="#1D2237"/>
<stop offset="0.3246" stop-color="#47137A"/>
<stop offset="1" stop-color="#913BFE"/>
</linearGradient>
<linearGradient id="paint24_linear" x2="1" gradientUnits="userSpaceOnUse" gradientTransform="matrix(61.3471 109.22 53.3827 -30.9009 -44.763 -12.659)">
<stop stop-color="#1C2334"/>
<stop offset="0.4491" stop-color="#6759E0"/>
<stop offset="1" stop-color="#4BB2F9"/>
</linearGradient>
<linearGradient id="paint25_linear" x2="1" gradientUnits="userSpaceOnUse" gradientTransform="matrix(57.3571 61.9834 39.9038 -38.1168 -15.3919 35.3821)">
<stop stop-color="#5C1EA0" stop-opacity="0"/>
<stop offset="1" stop-color="#F2C94C" stop-opacity="0.35"/>
</linearGradient>
<linearGradient id="paint26_linear" x2="1" gradientUnits="userSpaceOnUse" gradientTransform="translate(-14.981 -58.2922) scale(142.743 142.998)">
<stop stop-color="#231C4C"/>
<stop offset="1" stop-color="#0143D6"/>
</linearGradient>
<linearGradient id="paint27_linear" x2="1" gradientUnits="userSpaceOnUse" gradientTransform="matrix(-4.79265 33.6083 -116.81 -16.7169 101.14 -5.24493)">
<stop/>
<stop offset="1" stop-color="#0D35A5"/>
</linearGradient>
<linearGradient id="paint28_linear" x2="1" gradientUnits="userSpaceOnUse" gradientTransform="matrix(-46.922 123.42 79.4537 31.199 16.6681 -58.505)">
<stop offset="0.1768" stop-color="#1D2237"/>
<stop offset="0.3246" stop-color="#47137A"/>
<stop offset="1" stop-color="#913BFE"/>
</linearGradient>
<linearGradient id="paint29_linear" x2="1" gradientUnits="userSpaceOnUse" gradientTransform="matrix(61.3471 109.22 53.3827 -30.9009 -44.763 -12.659)">
<stop stop-color="#1C2334"/>
<stop offset="0.4491" stop-color="#6759E0"/>
<stop offset="1" stop-color="#4BB2F9"/>
</linearGradient>
<linearGradient id="paint30_linear" x2="1" gradientUnits="userSpaceOnUse" gradientTransform="matrix(57.3571 61.9834 39.9038 -38.1168 -15.3919 35.3821)">
<stop stop-color="#5C1EA0" stop-opacity="0"/>
<stop offset="1" stop-color="#F2C94C" stop-opacity="0.35"/>
</linearGradient>
<linearGradient id="paint31_linear" x2="1" gradientUnits="userSpaceOnUse" gradientTransform="translate(-14.981 -58.2922) scale(142.743 142.998)">
<stop stop-color="#231C4C"/>
<stop offset="1" stop-color="#0143D6"/>
</linearGradient>
<linearGradient id="paint32_linear" x2="1" gradientUnits="userSpaceOnUse" gradientTransform="matrix(-4.79265 33.6083 -116.81 -16.7169 101.14 -5.24493)">
<stop/>
<stop offset="1" stop-color="#0D35A5"/>
</linearGradient>
<linearGradient id="paint33_linear" x2="1" gradientUnits="userSpaceOnUse" gradientTransform="matrix(-46.922 123.42 79.4537 31.199 16.6681 -58.505)">
<stop offset="0.1768" stop-color="#1D2237"/>
<stop offset="0.3246" stop-color="#47137A"/>
<stop offset="1" stop-color="#913BFE"/>
</linearGradient>
<linearGradient id="paint34_linear" x2="1" gradientUnits="userSpaceOnUse" gradientTransform="matrix(61.3471 109.22 53.3827 -30.9009 -44.763 -12.659)">
<stop stop-color="#1C2334"/>
<stop offset="0.4491" stop-color="#6759E0"/>
<stop offset="1" stop-color="#4BB2F9"/>
</linearGradient>
<linearGradient id="paint35_linear" x2="1" gradientUnits="userSpaceOnUse" gradientTransform="matrix(57.3571 61.9834 39.9038 -38.1168 -15.3919 35.3821)">
<stop stop-color="#5C1EA0" stop-opacity="0"/>
<stop offset="1" stop-color="#F2C94C" stop-opacity="0.35"/>
</linearGradient>
<linearGradient id="paint36_linear" x2="1" gradientUnits="userSpaceOnUse" gradientTransform="translate(-14.981 -58.2922) scale(142.743 142.998)">
<stop stop-color="#231C4C"/>
<stop offset="1" stop-color="#0143D6"/>
</linearGradient>
<linearGradient id="paint37_linear" x2="1" gradientUnits="userSpaceOnUse" gradientTransform="matrix(-4.79265 33.6083 -116.81 -16.7169 101.14 -5.24493)">
<stop/>
<stop offset="1" stop-color="#0D35A5"/>
</linearGradient>
</defs>
</svg>
